<svg width="64" height="64" fill="none" xmlns="http://www.w3.org/2000/svg"><g clip-path="url(#clip0_143_477)"><path d="M29.379 2.365C15.37 2.045-.081 13.665.217 32.485c.26 16.547 12.694 29.07 28.805 29.331 16.11.26 30.386-10.39 30.47-29.417.091-19.177-14.705-29.683-30.113-30.034z" fill="#FF2A23"/><path d="M29.422 9.081C18.31 9.46 7.095 17.751 6.834 32.372c-.26 14.62 12.518 22.764 22.588 22.764 12.785 0 23.467-10.07 23.2-23.467-.26-13.39-10.33-23.024-23.2-22.588z" fill="#FFFDFE"/><path d="M29.682 14.777c-10.07-.23-17.51 8.67-17.6 17.159-.086 8.67 5.337 17.51 17.425 17.947 12.087.437 17.771-9.192 17.947-17.335.18-8.143-6.302-17.51-17.772-17.772z" fill="#FF2A23"/><path d="M18.17 32.255c-.085 7.616 5.338 11.997 11.906 11.997 5.967 0 11.821-3.763 11.821-11.731 0-7.18-5.429-11.47-11.47-11.73-6.04-.267-12.172 4.114-12.257 11.464z" fill="#fff"/><path d="M23.556 32.196c-.325 4.54 3.37 6.712 6.696 6.712 3.15 0 6.259-2.07 6.35-6.275.08-3.95-3.018-6.36-6.35-6.478-3.439-.117-6.435 2.353-6.696 6.041z" fill="#FB2B22"/><path d="M31.349 32.553l-1.783.99 3.4 4.838s2.63.203 3.237-.484c.607-.687-.08-2.71-.08-2.71l-4.774-2.634z" fill="#CC1935"/><path d="M42.355 27.295c-.478-.99-.968-1.783-2.267-1.538-1.293.244-3.683 1.618-4.13 2.267-.41.596-.809 1.336-.809 1.336s-4.577 2.501-5.301 2.911c-1.134.65-.351 1.97.447 1.82 1.091-.202 5.966-2.187 5.966-2.187s1.033.245 1.64.245c.606 0 4.066-1.709 4.534-2.023.772-.527.405-1.82-.08-2.831z" fill="#ACB1B5"/><path d="M36.107 35.177s-.256.905-1.187 1.842c-.969.968-1.964 1.352-1.964 1.352l3.071 4.502s2.283.165 3.944-1.453c1.66-1.618.937-3.736.937-3.736l-4.801-2.507z" fill="#C8C8C8"/><path d="M39.151 47.605l-3.13-4.737s.522-.277 1.209-.745c1.261-.863 1.964-1.55 2.863-2.954.49-.756.804-1.49.804-1.49l4.838 2.39s-.107 3.736-1.687 5.556c-1.581 1.82-4.897 1.98-4.897 1.98z" fill="#CC1935"/><path d="M39.15 47.605l2.689 4.03s3.507.345 6.381-3.099c2.874-3.443 2.108-6.275 2.108-6.275l-4.593-2.198s-.895 2.15-2.672 4.216c-1.778 2.065-3.912 3.326-3.912 3.326z" fill="#C8C8C8"/><path d="M45.82 57.59l-3.976-5.95s2.997-1.751 5.126-4.269c2.209-2.613 3.364-5.099 3.364-5.099l6.434 3.2s-1.447 3.74-4.657 7.12c-3.14 3.295-6.29 4.998-6.29 4.998z" fill="#CC1935"/><path d="M39.263 28.87c.602 1.123 1.597 1.134 2.65.687 1.055-.447 6.031-3.965 6.031-3.965s6.76 3.4 11.13 1.697c4.369-1.698 4.247-6.312 4.247-6.312l-2.587-1.64s1.884-.979 2.49-1.34c.299-.181.74-.852.496-1.454-.192-.468-.926-.628-1.533-.383-.607.245-2.358.793-2.358.793s.697-2.9.575-3.06c-.123-.16-1.379-.81-1.379-.81s-4.087 0-4.614.203c-.527.202-4.572 4.21-4.572 4.21l-1.943 3.965-.83 1.767s-5.668 2.54-6.52 2.901c-.846.367-2.023 1.373-1.283 2.741z" fill="#006CA9"/><path d="M48.273 22.739s2.385-1.724 4.083-2.576c1.697-.852 4.848-1.89 5.78-2.001.931-.112 1.314.138 1.48.575.164.436-.384.984-.852 1.234-.463.245-2.933 1.368-5.669 2.821-2.735 1.453-4.034 2.518-5.141 2.768-.559.128-1.277-.373-1.32-1.208-.032-.65.096-1.192.522-2.438.521-1.533 1.666-3.837 2.629-5.338 1.426-2.22 3.48-3.726 5.753-4.136 2.273-.41 4.136.165 4.604.548.463.384.437.777.272.91-.165.134-.41.24-1.645-.196-.857-.304-3.587-.304-5.503 1.123-1.938 1.437-2.411 2.326-3.258 3.89-.846 1.565-1.735 4.024-1.735 4.024z" fill="#1F87FD"/></g><defs><clipPath id="clip0_143_477"><path fill="#fff" transform="translate(0 2.125)" d="M0 0h64v59.784H0z"/></clipPath></defs></svg>