<svg width="96" height="52" viewBox="0 0 96 52" fill="none" xmlns="http://www.w3.org/2000/svg">
<path d="M70.4604 51.5L70.9576 51.5L70.9604 51.0028C71.0315 38.299 81.3358 28.0187 94.0487 27.9864C94.0489 27.9864 94.0492 27.9864 94.0495 27.9864L94.1682 27.9864C94.1685 27.9864 94.1687 27.9864 94.169 27.9864C94.186 27.9864 94.1968 27.9864 94.2065 27.9863C94.2172 27.9863 94.2265 27.9863 94.2412 27.9864L94.744 27.9892L94.744 27.4863L94.744 24.7836L94.7439 24.2864L94.2468 24.2836C81.5229 24.2124 71.2302 13.8757 71.2302 1.1351C71.2302 1.09097 71.2303 1.04687 71.2305 1.00279L71.2334 0.499998L70.7306 0.499998L68.0278 0.499998L67.5303 0.499998L67.5278 0.997499C67.5276 1.04332 67.5275 1.08919 67.5275 1.1351C67.5275 10.9963 72.8432 19.615 80.7637 24.2836L0.999972 24.2836L0.499972 24.2836L0.499972 24.7836L0.499972 27.4864L0.499971 27.9864L0.999971 27.9864L80.494 27.9864C72.6102 32.6332 67.3069 41.1936 67.2577 50.9975L67.2552 51.5L67.7577 51.5L70.4604 51.5Z" fill="#212529" stroke="#212529"/>
</svg>
