<svg width="121" height="225" viewBox="0 0 121 225" fill="none" xmlns="http://www.w3.org/2000/svg">
<path fill-rule="evenodd" clip-rule="evenodd" d="M56.8252 224.214L56.8252 223.923C56.7469 192.752 31.5409 167.486 0.392579 167.312L0.392579 160.826C25.1569 160.95 46.5551 175.307 56.8252 196.136L56.8252 0.607377L63.3117 0.607377L63.3117 196.783C73.6269 175.864 95.1668 161.473 120.068 161.473C120.176 161.473 120.284 161.473 120.392 161.474L120.392 167.96C120.284 167.96 120.176 167.96 120.068 167.96C88.8301 167.96 63.4863 193.196 63.3119 224.392L56.8252 224.393C56.8255 224.333 56.825 224.273 56.8252 224.214ZM56.8246 224.566L56.8244 224.717L56.8246 224.867L56.8246 224.566Z" fill="#212529"/>
</svg>
