<svg width="100" height="97" viewBox="0 0 100 97" fill="none" xmlns="http://www.w3.org/2000/svg">
<g clip-path="url(#clip0_653_2403)">
<path d="M88.3047 46.6317C88.3047 46.6317 97.5029 45.4538 97.7834 46.1029C98.2321 47.1525 91.5417 54.2274 91.5417 54.2274L88.3047 46.6317Z" fill="#5C6063"/>
<path d="M54.8472 49.4202C54.8472 49.4202 59.6627 43.7074 68.6125 41.7523C77.5624 39.7973 88.4592 43.4029 90.8629 49.4923C93.459 56.0705 92.5215 63.4499 88.1548 68.7461C83.5637 74.3147 76.4967 80.2519 64.6143 79.3465C55.1837 78.6334 52.2031 74.6833 52.2031 74.6833L54.8472 49.4202Z" fill="#FCD41E"/>
<path d="M78.0829 56.0387C80.4385 62.2323 80.9433 68.3698 80.8632 71.4545C80.7911 74.5393 80.5587 75.5889 80.5587 75.5889C80.5587 75.5889 83.7156 73.5618 85.6706 71.6789C87.3612 70.0524 88.6032 68.2976 88.6032 68.2976C88.6032 68.2976 89.4284 59.3478 86.1994 51.8322C82.9704 44.3165 76.2801 41.3359 76.2801 41.3359C76.2801 41.3359 73.9885 40.8472 71.3925 41.1516C68.8286 41.4481 65.6797 42.5778 65.6797 42.5778C65.6797 42.5778 74.2449 45.9591 78.0829 56.0387Z" fill="#414340"/>
<path d="M58.6752 46.0308C58.6752 46.0308 64.1636 48.9633 67.6971 57.3122C71.4549 66.1819 70.7018 79.2742 70.7018 79.2742C70.7018 79.2742 68.3702 79.6348 65.8142 79.5787C64.1636 79.5386 61.2231 78.9377 61.2231 78.9377C61.2231 78.9377 62.0644 68.3693 59.0517 61.3745C57.7137 58.2737 54.3164 54.3797 54.3164 54.3797L54.8052 49.1155L58.6752 46.0308Z" fill="#414340"/>
<path d="M30.7059 66.6387C30.7059 66.6387 26.7237 68.3693 23.1102 69.1225C19.5046 69.8757 16.4919 69.9478 15.4423 70.0279C14.3927 70.1 13.0386 70.5567 13.2629 72.8883C13.4552 74.9155 16.4198 74.7072 18.2226 74.619C21.1551 74.4668 25.2895 73.7136 28.9031 72.4396C32.5167 71.1657 36.1944 69.2026 36.1944 69.2026L30.7059 66.6387Z" fill="#5A6066"/>
<path opacity="0.7" d="M51.7969 47.1608C51.7969 47.1608 69.1678 25.0546 71.5394 21.8977C73.9111 18.7408 77.4045 13.1001 81.3546 12.9879C85.3047 12.8757 88.9103 16.4813 90.7131 21.7855C92.5159 27.0897 92.6281 32.434 89.8077 35.9995C85.9697 40.847 75.3693 48.2985 67.0204 50.4379C58.6715 52.5772 53.824 53.146 53.824 53.146L51.7969 47.1608Z" fill="#6DA3AF"/>
<path opacity="0.7" d="M46.2116 43.5844C46.2116 43.5844 63.4647 26.2504 67.2849 22.0233C71.1073 17.7884 74.616 13.8262 74.7975 10.5485C74.9389 7.9154 70.7072 4.01927 63.6874 3.19178C56.6675 2.36429 50.1072 3.56778 47.605 9.6246C44.9491 16.0384 40.2826 35.2187 40.2826 35.2187L36.7883 44.3277L45.1524 47.9707L46.2116 43.5844Z" fill="#A1C5CB"/>
<path d="M10.0057 32.8905C10.0057 32.8905 5.32645 29.6214 3.63583 36.6162C1.67279 44.7007 7.6901 43.2665 7.6901 43.2665L10.0057 32.8905Z" fill="black"/>
<path d="M23.4828 24.9424C23.4828 24.9424 22.3531 19.3577 20.4381 15.4076C18.5232 11.4575 15.9352 8.78937 14.6852 8.13235C13.3872 7.45931 9.91785 7.05068 6.50457 6.94652C4.18898 6.87441 1.9375 6.83435 1.9375 8.58105C1.9375 10.6162 4.53352 10.8806 6.33631 11.0649C8.93232 11.3293 11.6806 11.6658 12.6501 11.9142C14.4529 12.3629 16.7684 16.8739 17.4976 18.909C18.2347 20.9362 19.5808 26.1843 19.5808 26.1843L23.4828 24.9424Z" fill="#848484"/>
<path d="M45.7032 42.3125L47.7304 45.8059C47.7304 45.8059 51.1116 42.9855 51.6244 43.0416C52.1292 43.0977 53.0346 47.777 53.0346 47.777C53.0346 47.777 56.1915 46.9837 56.6402 47.2722C57.0888 47.5526 56.8645 50.9419 56.8645 50.9419C56.8645 50.9419 60.8146 51.1662 60.9268 51.5027C61.039 51.8392 59.1801 54.9961 59.1801 54.9961C59.1801 54.9961 62.337 56.9111 62.2809 57.4239C62.2248 57.9287 59.5727 60.0199 59.5727 60.0199C59.5727 60.0199 62.0565 62.8403 61.8322 63.5694C61.6078 64.2985 58.0503 64.4748 58.0503 64.4748C58.0503 64.4748 58.8996 68.1445 58.6673 68.481C58.4429 68.8175 54.4928 68.7614 54.4928 68.7614C54.4928 68.7614 56.4078 71.8622 56.1274 72.1987C55.8469 72.5353 50.0139 73.7371 50.0139 73.7371C50.0139 73.7371 47.0814 77.0062 44.9581 77.4389C42.8588 77.8635 41.8973 77.3828 41.8973 77.3828L39.4375 74.955C39.4375 74.955 33.9651 75.4598 33.4603 75.1233C32.9555 74.7868 32.8433 68.3528 32.8433 68.3528C32.8433 68.3528 29.3499 68.6172 29.1176 68.1845C28.8852 67.7519 29.6223 64.1783 29.6223 64.1783L38.7565 49.6278L45.7032 42.3125Z" fill="#FE8D00"/>
<path d="M38.3143 70.621C36.135 69.0746 33.6271 72.1113 32.281 73.1609C30.2539 74.7394 28.3309 77.5036 21.7367 79.2503C17.8587 80.2759 18.067 81.6781 18.4676 82.9761C18.9644 84.6106 21.3441 84.4424 24.2205 83.6491C27.097 82.8559 30.4462 81.0611 31.7762 80.0997C33.4107 78.9138 37.3048 75.2522 38.0339 74.5711C38.771 73.8981 40.061 71.8629 38.3143 70.621Z" fill="#848484"/>
<path d="M44.404 72.3672C42.5691 71.6221 41.3593 72.9281 40.3978 75.6363C39.4363 78.3445 37.6335 83.3603 36.7922 85.2832C35.9429 87.1982 33.7715 90.7958 36.1753 91.9976C38.7713 93.2956 39.9571 90.9801 40.6862 89.4016C41.4154 87.8232 43.6188 82.575 44.2357 80.4918C44.8527 78.4086 45.1972 77.2788 45.4776 76.4856C45.7581 75.7004 46.4952 73.2166 44.404 72.3672Z" fill="#848484"/>
<path d="M50.6724 72.087C48.1085 72.4316 48.5892 75.4683 48.7575 77.6717C48.9257 79.8751 49.2622 86.9741 49.1501 88.4403C49.0379 89.9066 49.1501 92.3905 51.7461 92.3344C54.3421 92.2783 54.2299 89.4018 54.286 88.4964C54.3421 87.591 53.8934 78.9056 53.8373 77.5515C53.7732 76.2054 53.9976 71.6383 50.6724 72.087Z" fill="#848484"/>
<path d="M11.3063 29.7338C7.26804 33.9243 4.5278 46.2714 7.07574 53.4745C9.67176 60.8059 14.968 65.8296 24.4466 66.2222C33.9253 66.6149 42.2101 60.6937 45.1987 50.4859C48.0592 40.7108 44.4215 28.6681 34.0294 24.9904C25.7446 22.0659 17.2835 23.5322 11.3063 29.7338Z" fill="#FEBB00"/>
<path d="M34.4289 42.4253C34.4289 46.6959 31.0717 50.1573 26.9293 50.1573C22.7869 50.1573 19.4297 47.4491 19.4297 42.4253C19.4297 38.1547 22.7869 34.6453 26.9293 34.6934C31.5524 34.7494 34.4289 38.1547 34.4289 42.4253Z" fill="black"/>
<path d="M9.32696 54.7002C9.91988 54.1073 11.298 51.9359 12.7082 53.4022C14.1184 54.8685 11.6345 56.7273 11.1858 57.128C10.5849 57.6568 9.38305 57.9773 8.75808 57.0719C8.33342 56.4469 8.59783 55.4293 9.32696 54.7002Z" fill="#FE8D00"/>
<path d="M20.5556 5.08726C20.3473 6.64968 21.1405 7.13042 23.2077 7.68328C25.0826 8.18005 28.8965 9.08545 29.81 9.71042C30.5471 10.2152 32.3499 14.8464 32.7986 20.5352C33.0309 23.4837 32.9108 26.2881 32.7986 28.4835C32.7024 30.3103 33.079 31.5282 34.5453 31.7525C35.8753 31.9608 36.949 31.0555 37.1413 28.4835C37.3656 25.3827 37.5419 23.7241 37.1413 19.6859C36.8368 16.6171 36.316 14.0852 35.3385 10.7761C34.5373 8.06787 33.2793 6.61763 32.0134 5.6962C30.483 4.59851 27.1659 3.9495 24.4577 3.66907C22.1822 3.44472 20.78 3.41267 20.5556 5.08726Z" fill="#848484"/>
</g>
<defs>
<clipPath id="clip0_653_2403">
<rect width="100" height="96.1538" fill="white"/>
</clipPath>
</defs>
</svg>
