<svg width="40" height="40" fill="none" xmlns="http://www.w3.org/2000/svg"><path d="M36.67 3.334H3.334V36.67h33.338V3.334z" fill="#fff"/><path fill-rule="evenodd" clip-rule="evenodd" d="M3.77 8.71h32.9v.555H3.77V8.71zm-.028 5.367h32.93v.555H3.741v-.555zm-.031 5.367h32.96V20H3.711v-.556zm-.028 5.367h32.988v.556H3.683v-.556zm-.03 5.371H36.67v.555H3.653v-.555z" fill="#B0BEC5"/><path d="M22.34 36.09h-4.677V23.015c0-.378.306-.683.684-.683h3.308c.377 0 .683.305.683.683v13.077h.003z" fill="#F44336"/><path d="M12.979 36.09H8.304V17.607c0-.377.305-.683.683-.683h3.308c.378 0 .684.306.684.684V36.09z" fill="#9CCC65"/><path d="M31.014 36.09h-3.308a.683.683 0 01-.683-.683v-26c0-.378.305-.684.683-.684h3.308c.378 0 .683.306.683.684v26a.683.683 0 01-.683.684z" fill="#0091EA"/><path d="M36.67 35.56H4.445V3.334h-1.11V36.67H36.67v-1.11z" fill="#B0BEC5"/><path d="M36.115 3.89v32.225H3.89V3.89h32.226zm.556-.556H3.333V36.67h33.338V3.334z" fill="#B0BEC5"/></svg>