<svg width="135" height="86" fill="none" xmlns="http://www.w3.org/2000/svg"><path d="M51.077 58.577c-1.871-3.867-3.784-6.965-8.857-6.008-5.052.956-14.387 6.32-16.133 8.856-1.601 2.329-3.16 5.219-3.16 5.219S5.046 76.415 2.218 78.016c-4.428 2.537-1.372 7.693 1.746 7.11 4.262-.79 23.307-8.544 23.307-8.544s4.033.956 6.403.956c2.37 0 15.884-6.674 17.714-7.9 3.014-2.059 1.58-7.11-.312-11.06z" fill="#ACB1B5"/><path d="M38.997 64.731c2.35 4.387 6.237 4.428 10.354 2.682 4.116-1.746 23.556-15.49 23.556-15.49S99.31 65.21 116.38 58.557c17.069-6.632 16.591-24.657 16.591-24.657l-10.104-6.404s7.359-3.826 9.73-5.24c1.164-.706 2.889-3.326 1.933-5.675-.748-1.83-3.617-2.453-5.988-1.497-2.37.956-9.21 3.098-9.21 3.098s2.724-11.331 2.246-11.955c-.479-.624-5.385-3.16-5.385-3.16s-15.967 0-18.026.79c-2.058.79-17.859 16.445-17.859 16.445l-7.589 15.49-3.243 6.902s-22.142 9.917-25.468 11.33c-3.306 1.435-7.9 5.365-5.01 10.708z" fill="#006CA9"/><path d="M74.194 40.782s9.314-6.737 15.947-10.063c6.632-3.327 18.94-7.38 22.578-7.817 3.639-.437 5.136.54 5.78 2.245.645 1.705-1.497 3.846-3.326 4.823-1.809.957-11.456 5.344-22.142 11.02-10.687 5.675-15.76 9.833-20.084 10.81-2.183.5-4.99-1.455-5.156-4.719-.125-2.536.374-4.657 2.037-9.522 2.038-5.988 6.508-14.99 10.27-20.853C85.672 8.036 93.697 2.153 102.574.552c8.878-1.601 16.155.644 17.984 2.141 1.809 1.497 1.705 3.035 1.061 3.555-.645.52-1.601.936-6.425-.769-3.347-1.185-14.013-1.185-21.497 4.387-7.568 5.613-9.418 9.085-12.724 15.198-3.306 6.112-6.778 15.718-6.778 15.718z" fill="#1F87FD"/></svg>