<svg width="15" height="16" fill="none" xmlns="http://www.w3.org/2000/svg"><g clip-path="url(#clip0_716_529)"><path d="M1.05 3.967s-.806.063-.914.245c-.108.181-.115.46-.115.766 0 .308-.012 1.013-.012 1.013l.192.413s.037 5.275.037 5.439c0 .162 0 .361.235.487.235.127 6.208 3.012 6.394 3.09.281.116.415.072.415.072l6.637-11.1s-.021-.304-.297-.377c-.159-.04-12.572-.048-12.572-.048z" fill="#F5B03E"/><path d="M7.211 7.616c-.101.279-.055 3.162-.037 5.258.017 2.095-.054 2.53 0 2.602.054.072.2.002.614-.182.768-.34 4.461-2.167 4.733-2.33.271-.162.934-.499 1.042-.68.11-.181.168-1.868.204-3.222.036-1.355.073-2.439.073-2.439l.162-.487s-.035-1.318-.041-1.463c-.011-.24-.038-.364-.099-.334-.087.042-.818.64-2.75 1.58-1.214.59-3.83 1.504-3.9 1.697z" fill="#E07F14"/><path d="M7.229 1.401c-.542-.025-2.023.832-3.45 1.3C2.35 3.172.194 4.114.176 4.169c-.018.054.867.45 1.432.721.672.322 3.234 1.536 3.703 1.734.47.2 1.59.664 1.77.65.253-.017 2.638-.957 3.848-1.535 1.21-.577 2.723-1.472 2.743-1.69.009-.098-2.225-.931-3.339-1.435C8.184 1.639 7.625 1.42 7.229 1.4z" fill="#FDD717"/><path d="M.015 6.222c.02.235.148.319.475.461.328.143 6.52 3.359 6.663 3.359.142 0 .185-.51.028-.496-.085.007-2.119-.96-4.019-1.924C1.549 6.804.005 5.988.005 5.988l.01.234z" fill="#E37D14"/><path d="M14.003 6.125L7.326 9.519c-.065.033-.169.022-.169.022l-.005.5s.062.015.13-.007c.04-.012 6.53-3.37 6.559-3.38a.33.33 0 00.18-.244c.022-.128-.018-.285-.018-.285z" fill="#BA5E0D"/><path d="M2.608 12.179l1.294 1.925.566.194s.047-2.1.065-3.657c.027-2.274.017-4.348.05-4.465.053-.199 2.57-1.015 2.57-1.015s2.842.891 2.932 1.09c.04.087.009 1.56 0 3.276-.011 2.168-.007 4.671-.007 4.671s.294-.001.329-.11c.036-.109.18-.948.18-.948l1.104-7.35.56-.722-.778-1.48-3.19-1.57-1.097.246L6 2.083 2.237 4.787l.439.89 1.076.549-1.144 5.953z" fill="#AF0F1B"/><path d="M4.17 6.013c.04.045-.027 8.134-.11 8.152-.067.017-1.573-.656-1.573-.725 0-.068.121-7.798.121-7.798s1.439.234 1.561.371z" fill="#FF2A23"/><path d="M10.411 6.174c-.068.152-.028 7.946-.028 7.946s.343-.19.786-.402c.44-.211.756-.343.784-.453.027-.11.076-7.818.076-7.818l-1.618.727z" fill="#DC0D28"/><path d="M7.155 1.781c-.417 0-.877.12-1.01.468-.134.349-.164.867-.164 1.255 0 .371-.06 1.321 1.084 1.306 1.143-.015 1.177-.439 1.195-1.374.015-.78-.09-1.158-.193-1.32-.092-.147-.4-.335-.912-.335z" fill="#FF2A23"/><path d="M6.494 3.711c.26.015.371-.556.571-.868.2-.312.409-.52.334-.683-.062-.135-.605-.179-.899.23-.206.289-.242 1.308-.006 1.321z" fill="#FCC9D2"/><path d="M8.167 2.053s.37.375.465 1.11c.097.735-.015 1.306-.015 1.306s1.833-.055 2.465.067c.624.12.841.396.841.596 0 .2-.41.361-.826.331-.416-.03-.697-.052-.75.053-.052.105.023.267.602.31.578.046 1.247-.037 1.454-.757.208-.72.215-1.967.142-2.866-.074-.9-.236-1.413-.639-1.608-.424-.204-1.485-.237-2.487.326-1.003.564-1.252 1.132-1.252 1.132z" fill="#FF2A23"/><path d="M10.244 1.197c-.13-.167-.549-.162-.772.097-.238.275-.29 1.32.015 1.38.345.068.282-.497.534-.845.248-.342.35-.468.223-.632z" fill="#FCC9D2"/><path d="M6.048 2.089S4.644.452 3.04.477c-.965.015-1.21.572-1.263.802-.052.23-.452 2.518.081 3.757.534 1.238 1.642.917 1.815.877.223-.052.696-.215.651-.386-.045-.171-1.618.445-1.633-.26-.015-.705 1.114-.78 1.633-.795.52-.015 1.412.103 1.412.103s-.157-.853-.053-1.462a3.088 3.088 0 01.364-1.024z" fill="#FF2A23"/><path d="M2.61 1.071c-.2.208-.282 1.404-.155 1.998.126.593.237.846.497.795.218-.044.349-1.21.453-1.62.11-.437.386-.902.275-1.105-.17-.313-.86-.284-1.07-.068z" fill="#FCC9D2"/></g><defs><clipPath id="clip0_716_529"><path fill="#fff" d="M0 0h15v16H0z"/></clipPath></defs></svg>