<svg width="40" height="40" fill="none" xmlns="http://www.w3.org/2000/svg"><path d="M20.22 35.75c1.022 0 8.92-6.715 13.527-12.24 4.433-5.317 2.834-11.594 1.859-13.341-1.153-2.064-15.816 4.725-15.816 4.725S6.13 7.219 5.107 8.886c-1.386 2.26-3.327 8.208.592 13.738C9.859 28.499 19.123 35.75 20.22 35.75z" fill="#DB0A28"/><path d="M20.15 33.943s14.517-10.744 15.764-17.305c1.18-6.214-1.236-9.227-4.211-10.68-7.541-3.683-11.347 3.544-11.705 3.544-.358 0-3.903-7.241-11.194-4.108-4.016 1.725-5.7 6.42-4.108 11.708 2.336 7.76 15.455 16.84 15.455 16.84z" fill="#FF262E"/></svg>