<svg width="60" height="57" fill="none" xmlns="http://www.w3.org/2000/svg"><path d="M29.814 53.74c-13.077 0-27.186-8.202-27.186-26.201 0-18 14.109-26.202 27.186-26.202 7.265 0 13.968 2.39 18.937 6.75C54.14 12.867 57 19.617 57 27.539c0 7.921-2.86 14.624-8.25 19.405-4.968 4.359-11.718 6.796-18.936 6.796z" fill="url(#paint0_radial_129_503)"/><path d="M52.262 11.963c2.498 4.031 3.801 8.83 3.801 14.17 0 7.921-2.859 14.624-8.25 19.405-4.968 4.359-11.718 6.796-18.936 6.796-8.465 0-17.343-3.445-22.583-10.752 5.043 8.277 14.53 12.158 23.52 12.158 7.219 0 13.969-2.437 18.937-6.796 5.39-4.781 8.25-11.484 8.25-19.405 0-5.972-1.627-11.278-4.74-15.576z" fill="#EB8F00"/><path d="M30.19 37.106c-1.678 0-3.342-.282-4.922-.844a3.721 3.721 0 00-4.312 5.578c2.016 3.093 5.203 4.78 9.234 4.78s7.218-1.686 9.234-4.78a3.723 3.723 0 00-1.04-5.16 3.713 3.713 0 00-3.272-.418c-1.58.563-3.244.844-4.922.844z" fill="#422B0D"/><path opacity=".8" d="M16.033 39.873c4.53 0 8.202-3.462 8.202-7.734 0-4.271-3.672-7.734-8.202-7.734-4.53 0-8.203 3.463-8.203 7.734 0 4.272 3.672 7.734 8.203 7.734z" fill="url(#paint1_radial_129_503)"/><path opacity=".8" d="M44.345 39.873c4.53 0 8.203-3.462 8.203-7.734 0-4.271-3.673-7.734-8.203-7.734-4.53 0-8.203 3.463-8.203 7.734 0 4.272 3.673 7.734 8.203 7.734z" fill="url(#paint2_radial_129_503)"/><path d="M50.433 14.167c-3.848-1.083-6.675 2.062-6.675 2.062s-.328-3.567-3.618-4.687c-3.947-1.355-8.114.802-8.362 6.393-.281 6.37 8.146 14.732 8.146 14.732s10.462-2.812 13.889-8.774c2.789-4.851-.47-8.91-3.38-9.726z" fill="#F44336"/><path d="M50.433 14.163a5.217 5.217 0 00-1.449-.174 8.863 8.863 0 013.15 3.722c.661 1.589.834 3.642-.422 6.094-2.723 5.329-11.109 8.629-11.718 8.858.764-.215 10.542-3.028 13.837-8.76 2.77-4.865-.488-8.925-3.398-9.74zm-6.68 2.642a8.492 8.492 0 00-.215-1.453 4.889 4.889 0 00-2.344-3.282 7.087 7.087 0 00-2.714-.914s1.406.427 2.41 2.372a8.597 8.597 0 01.89 3.277c-.005.417.07.825.22 1.214a.938.938 0 001.003.553c.642-.164.783-.966.75-1.767z" fill="#C62828"/><path d="M34.642 14.57c.876-1.088 2.315-2.124 3.693-1.168.732.51.74 1.96-.154 2.61-1.51 1.107-1.58 1.834-1.749 2.443-.206.726-.337 1.594-.998 1.96-.66.365-1.242 0-1.589-1.046a4.957 4.957 0 01.797-4.8z" fill="#FF847A"/><path d="M19.09 11.447c-3.802 1.233-4.411 5.419-4.411 5.419s-2.25-2.812-5.625-1.903c-4.026 1.06-6.3 5.165-3.426 9.95 3.328 5.485 14.971 7.758 14.971 7.758s7.148-8.137 6.698-14.999c-.37-5.587-5.334-7.157-8.207-6.225z" fill="#F44336"/><path d="M19.09 11.447a5.31 5.31 0 00-1.317.638 8.869 8.869 0 014.687 1.355c1.434.937 2.714 2.568 3.032 5.31.69 5.948-4.467 13.34-4.865 13.88.52-.6 7.097-8.363 6.665-14.963-.365-5.582-5.33-7.152-8.202-6.22zm-4.088 5.911a7.026 7.026 0 00-.984-1.092 4.888 4.888 0 00-3.75-1.463 7.04 7.04 0 00-2.766.741s1.407-.427 3.319.642a8.598 8.598 0 012.56 2.269c.224.351.515.651.857.89a.94.94 0 001.139-.098c.417-.506.094-1.247-.375-1.889z" fill="#C62828"/><path d="M6.19 20.556a4.62 4.62 0 01.206-1.158 2.567 2.567 0 011.495-1.753c.717-.225 1.71-.066 2.095.651.342.638.094 1.407-.093 2.11a13.507 13.507 0 00-.282 2.456 1.223 1.223 0 01-1.209 1.233c-.637 0-1.134-.554-1.49-1.083a4.094 4.094 0 01-.722-2.456z" fill="#FF847A"/><defs><radialGradient id="paint0_radial_129_503" cx="0" cy="0" r="1" gradientUnits="userSpaceOnUse" gradientTransform="matrix(26.6984 0 0 26.6983 29.814 27.539)"><stop offset=".5" stop-color="#FDE030"/><stop offset=".92" stop-color="#F7C02B"/><stop offset="1" stop-color="#F4A223"/></radialGradient><radialGradient id="paint1_radial_129_503" cx="0" cy="0" r="1" gradientUnits="userSpaceOnUse" gradientTransform="matrix(8.93947 0 0 8.02724 16.033 28.582)"><stop stop-color="#ED7770"/><stop offset=".9" stop-color="#ED7770" stop-opacity="0"/></radialGradient><radialGradient id="paint2_radial_129_503" cx="0" cy="0" r="1" gradientUnits="userSpaceOnUse" gradientTransform="matrix(9.12139 0 0 9.12135 57.713 1182.8)"><stop stop-color="#ED7770"/><stop offset=".9" stop-color="#ED7770" stop-opacity="0"/></radialGradient></defs></svg>