<svg width="40" height="40" fill="none" xmlns="http://www.w3.org/2000/svg"><path d="M20.002 36.67c1.854 0 3.358-.886 3.358-1.98 0-1.094-1.504-1.98-3.358-1.98-1.855 0-3.359.886-3.359 1.98 0 1.094 1.504 1.98 3.358 1.98z" fill="#424242"/><path d="M20.001 3.333c-5.856 0-10.606 4.353-10.606 9.72 0 1.4.422 2.898 1.041 4.218.87 1.856 1.817 3.228 2.095 3.734.772 1.405.661 2.886.875 3.814.403 1.734 1.609 2.361 6.593 2.361s6.056-.597 6.503-2.194c.306-1.087.009-2.273.778-3.676.278-.505 1.409-2.18 2.28-4.04.62-1.319 1.043-2.816 1.043-4.216.005-5.368-4.745-9.721-10.602-9.721z" fill="#FFD600"/><path d="M20.002 27.389c3.366 0 6.095-.555 6.095-1.24 0-.683-2.73-1.238-6.096-1.238s-6.095.555-6.095 1.239 2.73 1.239 6.095 1.239z" fill="#B26500"/><path d="M20.002 27.389c3.366 0 6.095-.555 6.095-1.24 0-.683-2.73-1.238-6.096-1.238s-6.095.555-6.095 1.239 2.73 1.239 6.095 1.239z" fill="#B26500"/><path d="M20.001 26.723c2.453 0 4.442-.257 4.442-.573 0-.316-1.989-.572-4.442-.572-2.453 0-4.441.256-4.441.572 0 .316 1.988.573 4.441.573z" fill="#FFA000"/><path fill-rule="evenodd" clip-rule="evenodd" d="M16.69 18.085c.032-.075.06-.141.081-.194l.516.205c-.029.073-.063.152-.098.236-.08.19-.17.401-.24.62-.05.154-.082.294-.091.411-.01.12.008.185.025.215.207.356.539.612.895.888l.156.121c.376.295.82.67.82 1.25 0 .686-.244 2.1-.48 3.311a91.538 91.538 0 01-.466 2.238l-.01.048-.272-.06-.27-.062.01-.047.03-.136a93.628 93.628 0 00.433-2.087c.239-1.23.47-2.584.47-3.205 0-.275-.202-.494-.608-.813a18.016 18.016 0 00-.146-.112c-.349-.269-.776-.597-1.042-1.054m.287-1.773a7.846 7.846 0 00-.27.699l.27-.699zm-.27.699a2.453 2.453 0 00-.116.535l.115-.535zm-.116.535a.92.92 0 00.099.539l-.1-.54zm6.233-1.364l.251-.117.252-.118v.002l.002.003.006.013a4.936 4.936 0 01.09.213c.057.14.13.334.194.548.064.213.123.454.146.687.023.227.017.48-.077.694-.074.167-.221.327-.367.462a5.806 5.806 0 01-.508.412 13.8 13.8 0 01-.484.337l-.102.069c-.084.055-.136.09-.157.106 0 0-.014.014-.032.057a1.049 1.049 0 00-.061.211 4.29 4.29 0 00-.064.743c-.011.603.039 1.364.112 2.117a49.288 49.288 0 00.37 2.873l.007.048.003.016-.274.045-.274.045-.003-.017-.008-.05a41.512 41.512 0 01-.126-.85 49.907 49.907 0 01-.248-2.057c-.074-.76-.126-1.545-.114-2.18.005-.317.027-.607.074-.841a1.59 1.59 0 01.097-.327.687.687 0 01.197-.269c.039-.03.12-.085.214-.147l.08-.053c.134-.09.3-.203.465-.324.166-.122.328-.25.458-.37.137-.128.212-.224.237-.28.037-.084.052-.223.033-.413a3.232 3.232 0 00-.126-.584 5.891 5.891 0 00-.258-.692l-.004-.01-.001-.002z" fill="#B26500"/><path fill-rule="evenodd" clip-rule="evenodd" d="M19.1 12.168c.166-.27.426-.446.774-.442a.98.98 0 01.765.358c.179.214.282.498.337.803.111.61.05 1.404-.104 2.196a11.45 11.45 0 01-.645 2.15c.086.194.176.372.267.527.163.278.316.46.442.55a.285.285 0 00.127.06c.02.002.04 0 .069-.02.08-.052.205-.18.361-.398.152-.211.317-.484.485-.8.074-.14.147-.287.22-.44a21.588 21.588 0 01-.358-1.744c-.115-.734-.181-1.496-.1-2.084.041-.293.123-.573.279-.786a.86.86 0 01.718-.364c.332 0 .6.126.784.365.172.224.246.52.267.83.041.617-.122 1.417-.37 2.207a14.143 14.143 0 01-.633 1.633l.023.089a25.734 25.734 0 00.229.834l.008.028.006.02.004.012v.003l-.265.082-.265.08-.002-.004-.004-.013-.015-.05a20.169 20.169 0 01-.094-.33 7.384 7.384 0 01-.465.756c-.165.23-.34.43-.513.541a.652.652 0 01-.428.105.828.828 0 01-.39-.159c-.222-.158-.422-.42-.6-.722a4.786 4.786 0 01-.09-.163 4.943 4.943 0 01-.241.408c-.166.25-.35.465-.551.597-.278.182-.576.117-.816-.034-.23-.147-.448-.394-.646-.684a5.516 5.516 0 01-.238-.383 5.27 5.27 0 01-.155.336l-.495-.251c.11-.22.216-.475.312-.755-.177-.392-.337-.82-.472-1.255-.27-.873-.44-1.802-.407-2.55.017-.373.086-.724.24-1.004.158-.29.408-.501.758-.564m.478 5.34a12.77 12.77 0 00.546-2.848c.046-.654.026-1.268-.096-1.716-.06-.222-.154-.434-.304-.583a.682.682 0 00-.624-.193m.478 5.34c.141.293.29.556.438.773.181.266.348.44.485.527.128.082.18.06.213.04.11-.072.244-.216.393-.44.135-.204.271-.457.402-.747a11.38 11.38 0 01-.505-1.571c-.218-.89-.34-1.823-.28-2.546.03-.358.107-.694.263-.947m.826 4.292c.164-.473.303-.983.4-1.483.15-.765.197-1.48.104-1.99-.047-.255-.124-.435-.217-.546a.425.425 0 00-.345-.16c-.124-.001-.215.05-.295.179-.09.145-.155.38-.182.701-.053.639.055 1.507.266 2.368.078.32.17.634.27.93zm-2.58-.2a10.811 10.811 0 01-.193-.567c-.26-.842-.413-1.702-.383-2.36.015-.331.075-.587.171-.763a.51.51 0 01.371-.285c.06-.01.094.002.132.04.052.052.112.156.16.336.098.358.123.898.079 1.531a12.303 12.303 0 01-.337 2.069zm5.226-.404c.115-.292.222-.59.315-.886.243-.771.38-1.492.346-2.004-.017-.257-.076-.428-.153-.53-.067-.087-.165-.146-.343-.146a.306.306 0 00-.27.137c-.078.105-.141.28-.176.534-.07.503-.016 1.198.098 1.92.052.33.116.661.183.975z" fill="#fff"/><path d="M26.083 26.409s-1.6.772-6.081.772-6.081-.772-6.081-.772-.1 1.427.23 2.075c.397.777.703 1.047.703 1.047l.167.791-.067.209a.812.812 0 00.167.786l.144.16.161.762-.055.153a.808.808 0 00.183.839l.106.108.13.622s.661 1.411 4.212 1.411c3.55 0 4.211-1.41 4.211-1.41l.011-.054.073-.072a.51.51 0 00.122-.542l-.042-.108.173-.822.302-.32a.515.515 0 00.087-.586l-.14-.275.176-.825.11-.086c.165-.18.167-.452.095-.638a.395.395 0 01.103-.423c.175-.166.4-.42.567-.733.341-.636.233-2.07.233-2.07z" fill="#82AEC0"/><path d="M14.854 29.53l.15.798c1.616-.008 3.774.072 7.916-.586.747-.17 1.644-.506.652-.367 0-.003-3.802.361-8.718.156zm.556 2.715c1.788-.03 5.443-.209 9.37-1.061l.176-.825c-4.108.933-7.972 1.1-9.708 1.122l.161.764zm9.122.117c-3.636.789-7.039.992-8.88 1.036l.119.567s.058 1.758 4.21 1.758c4.153 0 4.212-1.758 4.212-1.758s-1.772.505-3.953.258a.175.175 0 01-.002-.35 61.887 61.887 0 004.122-.689l.172-.822z" fill="#2F7889"/><path fill-rule="evenodd" clip-rule="evenodd" d="M26.575 26.192a.555.555 0 01-.296.728l-.216-.512.216.512h-.002l-.002.002-.008.003-.023.009a5.987 5.987 0 01-.371.126c-.256.078-.636.18-1.149.28-1.025.2-2.58.396-4.74.396-2.158 0-3.706-.196-4.723-.397-.509-.1-.885-.201-1.138-.28a5.804 5.804 0 01-.39-.136l-.008-.003h-.003v-.001h-.001l.219-.51-.22.51a.555.555 0 01.437-1.021h.001m0 0l.008.003.05.02c.049.017.126.044.234.078.216.066.554.158 1.026.25.942.187 2.417.377 4.509.377 2.091 0 3.575-.19 4.527-.376a10.56 10.56 0 001.038-.252 4.914 4.914 0 00.29-.098l.009-.003h-.001.001a.555.555 0 01.726.295" fill="#82AEC0"/><path d="M16.078 5.09c1.086-.267 2.222-.134 3 .81.22.267.389.584.428.928.078.664-.334 1.292-.822 1.753-1.395 1.316-3.375 1.955-4.275 3.772-.211.425-.378.883-.7 1.23-.322.348-.858.559-1.278.336-.222-.116-.375-.336-.5-.555-.789-1.406-.73-3.197-.036-4.653.764-1.594 2.439-3.194 4.183-3.622z" fill="#FFFF8D"/><path d="M15.126 27.762c-.244-.111-.147-.478.12-.459.894.07 2.416.156 4.43.156 2.122 0 3.989-.159 5.078-.275.269-.028.372.341.124.455-.838.395-2.374.845-5.008.845-2.569 0-3.986-.38-4.744-.722z" fill="#FFD600"/><path d="M16.651 30.567c-.186.067-.378.158-.472.33a.321.321 0 00-.039.209c.022.105.12.18.217.228.194.094.414.12.627.122.442.006.88-.078 1.317-.161.13-.025.264-.05.38-.114.117-.064.217-.172.237-.303.027-.175-.098-.344-.25-.428-.528-.291-1.484-.075-2.017.117zm.414 1.831c-.186.067-.378.158-.472.33a.32.32 0 00-.039.209c.022.105.12.18.217.228.194.094.414.119.627.122.442.005.881-.078 1.317-.161.13-.025.264-.05.38-.114.117-.064.217-.172.237-.303.027-.175-.098-.344-.25-.428-.528-.289-1.486-.072-2.017.117z" fill="#94D1E0"/><path d="M16.115 25.613c.253.026.52.003.734-.133.213-.136.35-.414.263-.653-.044-.125-.141-.225-.236-.319-.208-.206-.416-.411-.622-.617-.23-.23-.461-.458-.711-.666-.386-.323-.905-.625-1.414-.39-.433.2-.536.595-.344 1.01.408.869 1.358 1.669 2.33 1.768z" fill="#FFFF8D"/></svg>