<svg width="60" height="60" viewBox="0 0 60 60" fill="none" xmlns="http://www.w3.org/2000/svg">
<path d="M43.8015 28.0616C44.7265 27.2992 50.0679 23.9952 52.9927 21.212C55.2759 19.0371 56.1592 13.3583 52.6469 10.5959C48.0805 7.00859 43.6974 10.7751 43.6974 10.7751C43.6974 10.7751 43.3141 8.646 40.6475 7.39607C37.2894 5.82115 33.0354 5.23368 29.1231 5.28368C25.3317 5.32951 21.8402 5.78782 18.7403 7.30857C15.9655 8.671 15.7988 10.6126 15.7988 10.6126C15.7988 10.6126 12.1574 7.13358 7.6951 9.95843C3.237 12.7875 4.5161 18.4538 6.66182 20.8329C9.4575 23.9327 12.8157 25.5118 14.3406 26.6534C15.8613 27.795 17.3196 28.8824 17.3196 29.8615C17.3196 30.8407 16.8863 31.0573 16.7196 31.0032C16.5571 30.949 16.2696 29.9949 15.5239 30.4032C14.5072 30.9657 14.8156 33.2322 16.9363 33.4489C18.9903 33.6613 19.382 31.4906 19.382 31.4906L19.707 29.3699L23.0776 31.7073L26.7733 34.753L26.6649 37.3611C26.6649 37.3611 26.5024 39.3735 25.5233 41.1151C24.5442 42.8567 22.9693 44.5941 22.9693 44.5941L22.9193 46.169L36.6227 45.844L36.1894 44.3233C36.1894 44.3233 34.4229 42.3817 33.3604 40.2985C32.6021 38.8069 32.4813 37.3028 32.4813 37.3028L32.448 33.5614L39.5601 29.2032C39.5601 29.2032 40.3225 29.8032 40.2142 30.0199C40.1059 30.2365 40.0809 32.4572 41.7891 33.2822C43.4765 34.0988 44.8348 33.0655 44.6723 31.649C44.5098 30.2365 43.639 30.724 43.3682 30.9407C43.0974 31.1573 42.4974 31.2115 42.3349 30.3948C42.1683 29.5866 42.8766 28.8241 43.8015 28.0616ZM8.79087 20.3704L7.16179 15.4123L9.13252 12.8333L11.3407 12.1875C11.3407 12.1875 14.1614 14.2915 14.2614 14.4624C14.3614 14.6332 16.0613 18.1288 16.0613 18.1288L18.3029 26.2451L8.79087 20.3704ZM40.8142 26.8909C40.8475 26.72 42.9182 18.1955 42.9182 18.1955C42.9182 18.0955 44.3765 17.4164 44.3765 17.2789C44.3765 17.1414 47.0264 12.8291 47.0264 12.8291L51.4428 12.9999L52.3594 17.3789L50.1512 21.012C50.1554 21.0162 40.7808 27.0575 40.8142 26.8909Z" fill="#FEC417"/>
<path d="M53.2969 16.0997C52.9719 12.2166 49.1304 11.2875 47.5513 11.8499C45.9723 12.4124 44.9473 13.4665 44.5973 14.9664C44.314 16.1789 44.0307 16.9872 43.7057 17.1122C43.3474 17.2455 43.0182 17.1913 43.0182 17.1913C43.0182 17.1913 42.9599 14.5665 42.9766 13.5082C43.0182 11.325 43.6849 10.7667 43.6849 10.7667C43.6849 10.7667 43.5432 10.0292 43.2599 9.62089C42.9766 9.21674 42.4516 8.69177 42.4516 8.69177C42.4516 8.69177 42.5724 9.74172 42.0475 9.98754C41.5225 10.2334 40.9559 9.86671 40.9559 9.86671L41.4808 12.0499C41.4808 12.0499 40.6309 22.9327 40.5517 23.1743C40.4725 23.416 37.2769 28.9574 37.2769 28.9574C37.2769 28.9574 35.4145 30.6989 34.527 31.1031C33.6354 31.5072 32.8688 32.5613 29.4315 32.5988C25.9941 32.6405 23.0401 29.9282 23.0401 29.9282L20.0861 27.095L17.9029 20.662L17.5779 14.1082L17.7154 11.7249L17.8112 10.7292L17.6571 10.225C17.6571 10.225 17.3738 10.5083 16.8488 10.3875C16.3238 10.2667 16.1197 9.57923 16.1197 9.57923C16.1197 9.57923 15.9155 9.90421 15.878 10.0667C15.8363 10.2292 15.7947 10.6042 15.7947 10.6042C15.7947 10.6042 16.3613 11.2 16.4821 12.0499C16.603 12.8999 16.4405 16.4205 15.8363 16.3372C15.228 16.258 15.428 13.304 13.124 12.1708C11.1283 11.1875 8.14925 11.4833 6.93265 13.9498C5.72022 16.4164 6.60767 19.3287 10.4116 22.0411C14.2156 24.7534 18.2654 27.0325 18.907 29.2074C19.6736 31.7947 17.9362 33.3321 17.9362 33.3321C17.9362 33.3321 19.1987 33.1571 19.8195 31.8031C20.0195 31.3656 20.0945 30.7281 20.1236 30.349C21.561 32.2239 23.4734 33.8113 26.0066 34.5779C26.9649 34.9071 28.044 35.0737 29.544 35.0737C29.7606 35.0737 29.9731 35.0654 30.1856 35.057C31.9397 34.9945 33.4396 34.6654 34.8937 33.9446C36.8561 33.0363 38.3768 31.6489 39.5518 30.074C39.5184 30.449 39.7476 31.3822 40.1851 32.1197C40.9517 33.4155 42.2475 33.4946 42.2475 33.4946C42.2475 33.4946 40.4684 32.4447 40.8309 29.9365C41.1933 27.4283 42.8516 26.5367 45.3598 24.9201C47.8763 23.2993 53.6177 19.9828 53.2969 16.0997ZM12.1949 21.6036C11.0658 20.8078 9.0867 19.7454 8.27008 18.1246C7.18264 15.9622 8.06592 13.3499 10.1325 13.029C14.4239 12.3541 14.5031 17.683 14.7864 18.3288C15.0697 18.9746 15.878 19.0162 15.878 19.0162C15.878 19.0162 15.9072 19.3745 16.0238 20.0662C16.028 20.087 16.0322 20.1037 16.0322 20.1245C16.0363 20.1453 16.0405 20.1662 16.0447 20.187C16.1238 20.6578 16.2363 21.2453 16.3947 21.9161C16.3988 21.9327 16.403 21.9494 16.4072 21.9661C16.4946 22.3452 16.5863 22.7035 16.6821 23.0327C16.8738 23.7243 17.1071 24.4701 17.3946 25.2367C16.978 24.9534 14.5906 23.2993 12.1949 21.6036ZM51.072 18.6079C50.1762 20.0578 48.3638 21.1369 47.0264 22.0452C45.3015 23.216 42.7349 24.9742 42.01 25.4659C42.1766 25.0242 42.3224 24.5868 42.4558 24.1576C42.6724 23.591 42.9016 22.8994 43.0599 22.1536C43.4766 20.1953 43.5474 18.4829 43.5474 18.4829C43.5474 18.4829 44.3973 18.7246 44.9223 18.1579C45.4473 17.5913 45.6431 15.8331 46.1348 15.0039C46.9014 13.7082 48.4388 12.3749 50.747 13.9915C52.0803 14.9289 52.1303 16.8913 51.072 18.6079Z" fill="#FFA828"/>
<path d="M28.5481 36.3779L30.9022 36.3487C30.9022 36.3487 30.9647 38.9194 31.3355 40.836C31.7063 42.7567 32.2021 44.89 32.2021 44.89C32.2021 44.89 27.4065 46.4982 27.4357 44.765C27.4648 43.0317 28.1773 39.6569 28.1773 39.6569C28.1773 39.6569 28.6106 35.6363 28.5481 36.3779Z" fill="#FFA828"/>
<path d="M24.6017 9.66261C24.6017 9.66261 27.2224 9.36679 29.6597 9.40429C32.0971 9.44178 34.6053 9.92093 34.6053 9.92093C34.6053 9.92093 34.4595 18.0788 34.0137 22.6578C33.572 27.2367 31.8388 30.6657 31.3763 31.6364C30.9305 32.5781 30.6055 33.0822 30.6055 33.0822L28.2556 32.8072L24.1934 24.6493L24.6017 9.66261Z" fill="#FFA828"/>
<path d="M21.4639 10.883C21.4639 10.883 22.2014 10.5122 23.2722 10.108C24.243 9.7414 25.1179 9.62891 25.1179 9.62891C25.1179 9.62891 25.1429 15.037 25.2304 18.8951C25.3054 22.1824 26.522 27.5696 27.1136 29.0112C27.7053 30.4528 28.7719 32.6527 28.7719 32.6527C28.7719 32.6527 26.6262 32.3444 25.3054 30.6695C24.6096 29.7862 21.3556 22.9532 21.2431 18.4493C21.1306 13.9453 21.5723 10.7705 21.4639 10.883Z" fill="#FFEFAB"/>
<path d="M20.2399 11.5081C20.1649 11.7289 19.5774 16.3829 20.4982 20.6993C21.419 25.0157 22.7814 27.9697 23.6813 29.1405C24.4813 30.178 25.0021 30.6696 25.2979 30.6696C25.5937 30.6696 24.0813 27.0906 23.3772 24.2824C22.6772 21.4784 22.3064 18.1161 22.2314 16.4578C22.1564 14.7954 22.0856 10.5123 22.0856 10.5123C22.0856 10.5123 21.2731 10.8831 21.0898 10.9915C20.9065 11.104 20.2399 11.5081 20.2399 11.5081Z" fill="#FFFCFD"/>
<path d="M25.5605 44.5854C25.5605 44.5854 27.148 42.0022 27.4813 40.044C27.8146 38.0858 27.9979 36.3525 27.9979 36.3525L28.9812 36.3942C28.9812 36.3942 28.8854 39.2316 28.7729 41.1523C28.6604 43.073 28.3312 44.9563 28.3312 44.9563L25.5605 44.5854Z" fill="#FFEFAB"/>
<path d="M26.7743 34.7528C26.7743 34.7528 27.5118 34.032 29.5409 34.032C31.5699 34.032 32.4407 34.8111 32.4407 34.8111L32.4949 37.3151C32.4949 37.3151 31.1449 36.8943 29.5034 36.8735C28.1368 36.8568 26.666 37.3651 26.666 37.3651L26.7743 34.7528Z" fill="#D1701C"/>
<path d="M17.9143 9.88339C18.256 9.56674 21.5308 7.10853 29.2846 7.04187C37.6258 6.96687 40.7548 9.38341 40.9506 9.51674C41.1714 9.66257 41.4298 10.3292 41.3214 10.625C41.2089 10.9208 40.9881 11.0292 40.3632 10.7708C39.734 10.5125 36.6342 8.25014 29.1762 8.48346C22.0141 8.70428 18.9768 10.8833 18.656 11.0667C18.3976 11.2125 17.9185 11.25 17.6977 10.9542C17.4727 10.6625 17.6935 10.0917 17.9143 9.88339Z" fill="#D1701C"/>
<path d="M41.3256 11.6206C40.3673 11.6956 41.0298 19.4119 39.0007 24.2449C36.8258 29.4155 34.051 30.8904 34.1635 31.1862C34.276 31.482 36.9925 30.6613 38.7049 28.2322C40.2923 25.9823 41.2506 23.9866 41.6964 21.3284C42.1339 18.6702 42.3922 11.5373 41.3256 11.6206Z" fill="#D1701C"/>
<path d="M17.7143 12.5041C17.4726 12.4916 17.7185 16.3414 17.3268 18.0329C17.1768 18.6829 16.8102 18.8162 16.7727 18.962C16.7352 19.1079 17.5768 24.0618 18.9892 26.2367C20.3558 28.3407 23.0515 30.9614 23.4932 30.5198C23.9348 30.0781 21.5349 28.599 19.9142 25.3867C18.9809 23.5451 18.031 20.7703 17.9935 17.5955C17.9685 15.4956 18.2309 12.5332 17.7143 12.5041Z" fill="#D1701C"/>
<path d="M39.4843 50.2935L39.4801 44.3396H20.3686C20.4269 44.3396 20.3811 49.181 20.3728 50.3143H17.6562V54.6266H41.9258C41.9258 54.6266 41.9258 50.3851 41.9258 50.3143L39.4843 50.2935Z" fill="#865C50"/>
<path d="M26.4975 47.4688C26.0267 47.4479 25.485 47.5438 25.4642 48.1271C25.4434 48.7104 25.4434 50.3978 25.4434 50.7186C25.4434 51.0394 25.7058 51.3186 26.3641 51.3394C27.0224 51.3602 33.2013 51.3394 33.6346 51.3394C34.0679 51.3394 34.2929 50.9644 34.3096 50.5894C34.3304 50.2144 34.2887 48.6354 34.2887 48.2062C34.2887 47.4938 33.6513 47.4938 33.2179 47.4938C32.7513 47.4854 26.4975 47.4688 26.4975 47.4688Z" fill="#FCC219"/>
</svg>
