<svg width="60" height="60" viewBox="0 0 60 60" fill="none" xmlns="http://www.w3.org/2000/svg">
<path d="M50.1722 6.88811C48.9933 6.90632 48.2396 10.6043 42.2793 12.0006C36.3189 13.3969 23.7619 12.4971 17.1503 22.1331C10.8219 31.354 17.3828 38.6581 15.8396 39.8747C14.3011 41.083 11.8026 40.9564 10.7645 40.5699C9.72635 40.1835 7.70499 39.5898 7.39495 39.6728C7.08491 39.7559 5.55051 41.4963 6.14053 43.2074C6.72883 44.912 8.14333 45.2045 8.54438 45.2286C8.9519 45.2509 11.0603 43.6891 13.5576 43.553C16.0549 43.4169 17.5431 43.752 18.0919 44.0688C18.6406 44.3856 26.1173 49.9143 35.2966 47.1224C44.476 44.3305 51.2461 36.7843 52.6563 25.1498C53.9632 14.4221 51.2327 6.86703 50.1722 6.88811Z" fill="#8BC12D"/>
<path d="M37.7609 23.1869C33.9836 25.6251 29.3192 27.5949 26.3744 30.3501C23.4409 33.0953 20.204 37.5764 22.432 38.7863C24.6763 40.0057 26.2048 34.0578 32.0813 30.2817C37.9643 26.5038 40.3443 24.7931 42.2211 22.6771C44.098 20.5612 45.49 16.8168 44.7519 16.6199C43.9159 16.3939 42.6823 20.0059 37.7609 23.1869Z" fill="#599724"/>
</svg>
