<svg width="60" height="60" viewBox="0 0 60 60" fill="none" xmlns="http://www.w3.org/2000/svg">
<path d="M23.347 28.3902C23.347 28.3902 23.347 19.5407 23.347 17.9158C23.347 16.2908 22.9971 15.0826 22.5179 14.4784C22.0388 13.8743 21.6596 13.5868 21.3096 13.6827C20.9597 13.7785 19.9389 14.6368 20.1014 15.0201C20.2597 15.4034 20.993 15.8492 21.1846 16.8033C21.3763 17.7574 21.2805 18.4907 21.2805 18.4907C21.2805 18.4907 20.6763 18.4907 20.643 18.9699C20.6097 19.449 20.643 28.9027 20.643 28.9027L23.347 28.3902Z" fill="#5E6268"/>
<path d="M31.7257 15.874L26.7343 31.6982C26.7343 31.6982 20.8055 34.4189 20.6722 34.4605C20.5388 34.5064 13.8059 35.7521 13.8059 35.7521L13.3601 39.7644L8.18949 42.1268C8.18949 42.1268 8.32282 40.1644 8.05617 39.9853C7.78951 39.8061 3.99805 41.456 3.99805 41.9476C3.99805 42.4393 4.13137 45.7808 4.13137 45.9599C4.13137 46.1391 7.25204 47.6973 7.51869 47.8307C7.78535 47.964 23.8762 48.3223 23.8762 48.3223C23.8762 48.3223 27.4885 48.189 30.03 48.1807C32.6965 48.1723 37.4671 48.0473 37.4671 48.0473L51.0206 36.3771H54.6745L53.7454 34.1939L49.9998 32.0982C49.9998 32.0982 49.8206 27.2401 49.5081 23.4528C49.1957 19.6655 49.0165 16.499 49.0165 16.499L31.7257 15.874Z" fill="#5E6268"/>
<path d="M23.5352 39.4644C23.5352 39.4644 23.956 38.7769 24.6393 38.7228C25.3226 38.6686 27.6516 38.6853 27.6516 38.6853V42.7642L25.5934 42.7851L23.5352 39.4644Z" fill="#1A1A1A"/>
<path d="M22.5915 38.6063C22.5915 38.6063 23.2164 37.8022 24.1497 37.7605C25.0872 37.7147 27.762 37.6272 27.762 37.6272C27.762 37.6272 28.0745 33.6607 28.2953 32.0567C28.5161 30.4526 28.8745 28.136 28.8745 28.136L26.4663 25.907L25.0413 27.9569L20.7624 29.6068L13.8086 31.7483L14.3002 36.5189L18.3584 36.4731L22.5915 38.6063Z" fill="#02AB47"/>
<path d="M43.7872 18.3365C43.4122 18.3365 43.2247 18.6824 43.2872 19.274C43.3497 19.8698 43.758 28.7902 43.8205 29.136C43.883 29.4818 43.9789 29.8234 44.6663 29.8234C45.3538 29.8234 47.3912 29.7901 47.6703 29.7901C47.9495 29.7901 48.2328 29.4151 48.1703 28.7568C48.1078 28.0985 47.6078 19.4907 47.5745 19.0198C47.5412 18.549 47.2912 18.3949 46.7287 18.3615C46.1954 18.3407 44.0664 18.3365 43.7872 18.3365Z" fill="#94C7EA"/>
<path d="M25.0465 27.9526L28.8797 28.1318C28.8797 28.1318 29.7713 24.5653 30.8421 21.403C31.9128 18.2406 32.892 15.6991 32.892 15.6991L29.1463 16.6365C29.1463 16.6365 27.8214 19.7322 26.8298 22.4321C25.634 25.6652 24.9257 28.1943 25.0465 27.9526Z" fill="#AFE2FB"/>
<path d="M9.80469 32.2609C9.80469 32.2609 10.0838 31.261 11.8546 30.4569C13.6295 29.6527 16.0127 29.0153 18.5626 28.5445C21.1124 28.0737 24.7331 27.9695 25.0372 27.9653C26.0747 27.9487 26.658 28.7695 26.0205 28.9903C25.6872 29.1069 24.1623 29.2111 20.2541 30.2361C17.1168 31.0568 15.7919 32.0943 15.7919 32.0943L12.7129 32.7609L9.80469 32.2609Z" fill="#76DE88"/>
<path d="M9.80841 32.2608C9.80841 32.2608 15.6789 31.9233 15.7956 32.0942C15.9664 32.3483 15.4539 33.4858 15.0415 34.6982C14.6248 35.9106 13.7624 39.3896 13.7624 39.3896L8.7168 42.0395C8.7168 42.0395 9.00428 37.1564 9.10011 35.719C9.19594 34.2816 9.39593 32.6316 9.80841 32.2608Z" fill="#2C7E33"/>
<path d="M8.93971 38.3478C8.93971 38.3478 10.523 38.2686 11.1438 38.252C11.7687 38.2353 12.4812 38.1645 12.5104 38.4145C12.5395 38.6686 12.1812 39.0561 11.5271 39.1269C11.0354 39.1811 8.87305 39.3936 8.87305 39.3936C8.87305 39.3936 8.88138 39.1103 8.89388 38.8644C8.91471 38.6061 8.93971 38.3478 8.93971 38.3478Z" fill="#1A1A19"/>
<path d="M9.0806 36.0813C9.0806 36.0813 10.7638 36.0229 12.2763 36.0229C13.1387 36.0229 13.4512 36.1396 13.4512 36.3813C13.4512 36.5896 12.9137 36.7812 12.2929 36.8729C10.7722 37.0896 9.00977 37.2271 9.00977 37.2271C9.00977 37.2271 9.02226 36.9354 9.03893 36.6437C9.0556 36.3604 9.0806 36.0813 9.0806 36.0813Z" fill="#1A1A19"/>
<path d="M24.9396 48.2973L26.7936 48.2557C26.7936 48.2557 28.0019 43.0018 23.5021 38.5354C19.5898 34.6522 13.7776 35.8605 13.8943 36.6521C13.9901 37.3229 19.5357 36.0522 22.8105 40.1311C26.1895 44.3434 24.9396 48.2973 24.9396 48.2973Z" fill="#868586"/>
<path d="M24.2701 46.4268C24.2701 51.1807 20.5536 55.0055 15.7663 55.0055C10.9791 55.0055 7.1543 51.0224 7.1543 46.2643C7.1543 41.5062 10.9791 37.6231 15.7663 37.7814C20.7286 37.9522 24.2701 41.6729 24.2701 46.4268Z" fill="#302F2F"/>
<path d="M13.0407 52.7846C12.9907 52.7971 12.2324 54.2596 12.2324 54.2596C12.2324 54.2596 12.6407 54.4595 13.399 54.6929C14.1573 54.9304 14.7281 54.9554 14.7281 54.9554C14.7281 54.9554 14.9073 53.3221 14.8281 53.2554C14.774 53.2096 14.374 53.2179 13.924 53.093C13.4365 52.9638 13.0865 52.7721 13.0407 52.7846Z" fill="#8E736E"/>
<path d="M19.2968 54.2556C19.2968 54.2556 18.7427 52.7473 18.6927 52.7265C18.651 52.7098 18.2469 52.8973 17.7094 53.0515C17.1844 53.2015 16.8469 53.2223 16.8011 53.264C16.7636 53.3015 16.8428 54.9472 16.8428 54.9472C16.8428 54.9472 17.2386 54.9305 18.0344 54.7222C18.7802 54.5264 19.2968 54.2556 19.2968 54.2556Z" fill="#8E736E"/>
<path d="M24.2283 47.4016C24.2283 47.4016 22.8034 47.1182 22.7825 47.1641C22.7617 47.2057 22.6117 47.864 22.5242 48.1432C22.4367 48.4223 22.2576 48.8848 22.2659 48.9473C22.2742 49.0098 23.6783 49.6514 23.6783 49.6514C23.6783 49.6514 23.8742 49.1515 24.0158 48.614C24.1575 48.0765 24.2283 47.4016 24.2283 47.4016Z" fill="#8E736E"/>
<path d="M20.5093 46.5266C20.5093 49.0806 18.8969 51.2888 15.7179 51.2888C12.7972 51.2888 11.0473 49.1056 10.8932 46.9265C10.6932 44.06 12.6139 41.6726 15.5429 41.6518C18.7219 41.6268 20.5093 43.9142 20.5093 46.5266Z" fill="#F3790E"/>
<path d="M10.1389 50.5638C10.1055 50.5472 8.82227 51.418 8.82227 51.418C8.82227 51.418 9.28057 52.0638 9.61806 52.3971C9.95137 52.7304 10.5472 53.2179 10.5472 53.2179C10.5472 53.2179 11.4888 51.9638 11.4888 51.9138C11.4888 51.8638 11.0221 51.5263 10.768 51.2805C10.4347 50.9596 10.1889 50.5888 10.1389 50.5638Z" fill="#8E736E"/>
<path d="M22.6514 51.5181C22.6514 51.5181 21.4806 50.5056 21.414 50.514C21.3473 50.5223 20.9848 50.9764 20.739 51.2348C20.4932 51.4931 20.0849 51.8556 20.0724 51.9014C20.0599 51.9431 21.0098 53.2263 21.0098 53.2263C21.0098 53.2263 21.589 52.8138 21.9515 52.393C22.3139 51.9722 22.6514 51.5181 22.6514 51.5181Z" fill="#8E736E"/>
<path d="M8.74328 47.1264C8.70578 47.0889 7.19336 47.1264 7.19336 47.1264C7.19336 47.1264 7.26836 47.9305 7.38918 48.443C7.54334 49.1055 7.86416 49.7429 7.86416 49.7429C7.86416 49.7429 9.23075 49.0346 9.26825 48.9846C9.30575 48.9346 9.06409 48.4722 8.95993 48.0805C8.81827 47.5722 8.74328 47.1264 8.74328 47.1264Z" fill="#8E736E"/>
<path d="M19.1121 46.5226C19.1121 48.4684 17.5456 50.0266 15.5998 50.0266C13.8791 50.0266 12.1875 48.535 12.1875 46.5851C12.1875 44.6394 13.7124 43.0228 15.6581 43.0228C17.6039 43.0228 19.1121 44.5769 19.1121 46.5226Z" fill="#FE8F01"/>
<path d="M15.6623 48.4806C16.7691 48.4806 17.6663 47.5852 17.6663 46.4807C17.6663 45.3762 16.7691 44.4808 15.6623 44.4808C14.5555 44.4808 13.6582 45.3762 13.6582 46.4807C13.6582 47.5852 14.5555 48.4806 15.6623 48.4806Z" fill="#FCB900"/>
<path d="M7.18164 45.5727L8.73156 45.6727C8.73156 45.6727 8.80655 45.1144 8.88155 44.781C8.95655 44.4477 9.17737 43.9019 9.15654 43.8519C9.13154 43.8019 7.74411 43.0936 7.74411 43.0936C7.74411 43.0936 7.46913 43.8519 7.3483 44.3977C7.21914 44.9435 7.18164 45.5727 7.18164 45.5727Z" fill="#8E736E"/>
<path d="M23.6228 43.0103C23.6228 43.0103 22.3021 43.6186 22.2813 43.6936C22.2604 43.7685 22.4104 44.1977 22.5187 44.6185C22.6312 45.0601 22.6146 45.4976 22.6896 45.5518C22.7646 45.6059 24.2353 45.531 24.2353 45.531C24.2353 45.531 24.2353 44.7435 24.0853 44.2227C23.902 43.5769 23.6228 43.0103 23.6228 43.0103Z" fill="#8E736E"/>
<path d="M9.29934 33.79C9.29934 33.79 11.9367 33.7691 13.4491 33.8316C14.1908 33.8649 14.4157 34.0524 14.4157 34.2191C14.4157 34.4108 14.2366 34.5899 13.495 34.6524C11.9617 34.7774 9.16602 34.9274 9.16602 34.9274C9.16602 34.9274 9.18685 34.6191 9.22018 34.3108C9.25351 34.0274 9.29934 33.79 9.29934 33.79Z" fill="#1A1A19"/>
<path d="M30.987 37.8314C31.1036 38.0689 34.6451 37.9481 34.6451 37.9481L39.3615 32.5609L41.7989 31.7359C41.7989 31.7359 41.6822 26.5445 41.5614 23.1655C41.4406 19.7865 41.4031 15.6576 41.4031 15.6576L35.5034 16.2492C35.5034 16.2492 34.8743 17.545 34.5993 18.3325C34.3243 19.1199 34.0077 20.299 34.0077 20.299C34.0077 20.299 35.5409 20.1407 35.6201 20.3365C35.6992 20.5323 34.6368 24.8988 34.5201 24.9779C34.4035 25.0571 32.6327 24.9779 32.6327 24.9779C32.6327 24.9779 31.7286 28.0444 31.337 31.3484C30.9495 34.6483 30.8703 37.5981 30.987 37.8314Z" fill="#AFE2FB"/>
<path d="M31.8025 42.7144C31.8859 42.9602 32.8233 43.0644 33.0816 42.8728C33.3358 42.6811 34.8815 39.3688 36.6898 36.9647C38.648 34.3649 39.5188 33.8149 39.823 33.7274C40.3521 33.5774 43.9727 33.1024 46.6184 33.2649C49.2683 33.4232 51.6307 33.9024 52.6223 34.5732C53.6139 35.244 54.293 36.3606 54.6888 36.3773C55.0846 36.3939 54.7972 34.2857 53.3889 33.0733C51.9848 31.8608 49.3308 31.6483 46.6768 31.4775C44.6935 31.3525 39.098 31.7525 38.4147 31.9817C37.4564 32.3025 36.369 33.9024 34.7732 36.5189C33.6483 38.3688 31.6776 42.3311 31.8025 42.7144Z" fill="#02AB47"/>
<path d="M55.0159 44.6976C55.0159 50.4598 50.337 55.1346 44.5665 55.1346C38.7959 55.1346 34.0962 50.4598 34.1212 44.6976C34.1504 38.9104 38.7793 34.1232 44.5248 34.144C50.2912 34.1648 55.0159 38.9312 55.0159 44.6976Z" fill="#302F2F"/>
<path d="M43.9707 55.1177L44.3582 53.247C44.3582 53.247 45.0248 53.2803 45.4831 53.2428C45.9164 53.2095 46.4872 53.0345 46.5497 53.072C46.6122 53.1095 47.1247 54.8428 47.1247 54.8428C47.1247 54.8428 46.2789 55.0802 45.4415 55.1427C44.604 55.2052 43.9707 55.1177 43.9707 55.1177Z" fill="#8E736E"/>
<path d="M40.4756 52.3014C40.4256 52.3097 39.459 53.8013 39.459 53.8013C39.459 53.8013 39.8756 54.0846 40.6506 54.4096C41.4255 54.7346 42.1588 54.8554 42.1588 54.8554L42.5838 53.1014C42.5838 53.1014 41.9339 52.9389 41.4505 52.7639C40.9631 52.5889 40.5381 52.2889 40.4756 52.3014Z" fill="#8E736E"/>
<path d="M54.5538 47.8765C54.5538 47.8765 52.8456 47.2765 52.7831 47.289C52.7206 47.3015 52.5206 47.864 52.2956 48.2723C52.0706 48.6848 51.7457 49.1681 51.7582 49.2306C51.7707 49.2931 53.3289 50.3888 53.3289 50.3888C53.3289 50.3888 53.7664 49.8389 54.0664 49.2056C54.3664 48.5764 54.5538 47.8765 54.5538 47.8765Z" fill="#8E736E"/>
<path d="M54.795 42.4561C54.795 42.4561 53.0868 42.8685 53.0493 42.9185C53.0118 42.9685 53.1118 43.606 53.1493 44.1893C53.1784 44.6726 53.1118 45.3476 53.1368 45.4101C53.1618 45.4726 54.995 45.6476 54.995 45.6476C54.995 45.6476 55.095 44.9976 55.045 44.1268C54.995 43.2518 54.795 42.4561 54.795 42.4561Z" fill="#8E736E"/>
<path d="M50.8696 45.0519C50.8696 48.3434 48.6947 51.2849 44.6574 51.3099C41.0118 51.3307 38.6369 48.3809 38.4369 45.5685C38.1744 41.8771 40.6618 38.7981 44.4491 38.7689C48.5572 38.7397 50.8696 41.6896 50.8696 45.0519Z" fill="#F3790E"/>
<path d="M51.715 52.3095C51.715 52.3095 50.3275 50.9304 50.2775 50.9679C50.2275 51.0054 49.7776 51.4304 49.4192 51.6929C49.0568 51.9554 48.4485 52.3053 48.3985 52.3428C48.3151 52.4053 49.1443 54.0969 49.1443 54.0969C49.1443 54.0969 49.7442 53.8761 50.5525 53.3053C51.3608 52.7262 51.715 52.3095 51.715 52.3095Z" fill="#8E736E"/>
<path d="M37.1373 49.1222C37.0956 49.093 35.5332 49.9721 35.5332 49.9721C35.5332 49.9721 35.954 50.6804 36.3998 51.2304C36.8498 51.7804 37.4039 52.2928 37.4039 52.2928C37.4039 52.2928 38.583 50.9929 38.583 50.9554C38.583 50.9179 38.0581 50.4054 37.7248 49.9971C37.3873 49.5846 37.1873 49.1597 37.1373 49.1222Z" fill="#8E736E"/>
<path d="M34.4163 47.2808C34.4163 47.2808 36.1746 46.9308 36.1996 46.8933C36.2246 46.8558 36.0871 46.1934 36.0371 45.7976C35.9871 45.3976 35.9871 44.7268 35.9746 44.6768C35.9621 44.6268 34.1205 44.5768 34.1205 44.5768C34.1205 44.5768 34.0705 45.2851 34.133 45.8226C34.2163 46.6058 34.4163 47.2808 34.4163 47.2808Z" fill="#8E736E"/>
<path d="M49.0609 45.0476C49.0609 47.5558 47.036 49.5641 44.5194 49.5641C42.2945 49.5641 40.1113 47.6392 40.1113 45.131C40.1113 42.6228 42.0821 40.5396 44.5986 40.5396C47.1151 40.5396 49.0609 42.5394 49.0609 45.0476Z" fill="#FE8F01"/>
<path d="M47.1923 44.9976C47.1923 46.4225 46.0299 47.635 44.6049 47.5766C43.0759 47.5141 42.0176 46.4225 42.0176 44.9976C42.0176 43.5727 43.1758 42.4186 44.6049 42.4186C46.034 42.4186 47.1923 43.5727 47.1923 44.9976Z" fill="#FCB900"/>
<path d="M20.8928 39.5105C20.8928 39.5105 20.0137 40.7771 20.0137 40.8646C20.0137 40.9063 20.3845 41.1312 20.6928 41.4271C21.022 41.7395 21.2844 42.1229 21.3261 42.1312C21.4011 42.152 22.6219 41.2521 22.6219 41.2521C22.6219 41.2521 22.2552 40.7104 21.8302 40.2855C21.3761 39.8313 20.8928 39.5105 20.8928 39.5105Z" fill="#8E736E"/>
<path d="M8.84766 41.0687C8.84766 41.0687 10.0643 42.2103 10.1143 42.2228C10.1643 42.2353 10.4476 41.8395 10.8392 41.4603C11.2475 41.0687 11.6517 40.7895 11.6642 40.7312C11.685 40.6354 10.6976 39.3063 10.6976 39.3063C10.6976 39.3063 10.1643 39.6271 9.66845 40.1271C9.17264 40.6229 8.84766 41.0687 8.84766 41.0687Z" fill="#8E736E"/>
<path d="M34.4922 41.8811C34.4922 41.8811 36.3379 42.3186 36.3754 42.3186C36.4129 42.3186 36.5129 41.8686 36.7379 41.3978C36.9629 40.9228 37.2879 40.4645 37.2629 40.4145C37.2379 40.3645 35.6421 39.1813 35.6421 39.1813C35.6421 39.1813 35.1797 39.8687 34.8963 40.6145C34.6047 41.3603 34.4922 41.8811 34.4922 41.8811Z" fill="#8E736E"/>
<path d="M16.8003 37.8564C16.8003 37.8564 16.6378 39.3439 16.6628 39.4064C16.6878 39.4689 17.2711 39.5439 17.6794 39.6688C18.0877 39.7938 18.4543 39.9563 18.5418 39.9563C18.6293 39.9563 19.321 38.5897 19.321 38.5897C19.321 38.5897 18.6168 38.2439 18.1169 38.1064C17.3586 37.8939 16.8003 37.8564 16.8003 37.8564Z" fill="#8E736E"/>
<path d="M52.4852 37.8439C52.4852 37.8439 51.3936 39.0063 51.3811 39.0938C51.3686 39.1813 51.8103 39.6604 51.9853 39.9479C52.1602 40.2354 52.4436 40.8854 52.4936 40.8979C52.5436 40.9104 54.0768 40.3437 54.0768 40.3437C54.0768 40.3437 53.756 39.4813 53.381 38.9188C53.006 38.3563 52.4852 37.8439 52.4852 37.8439Z" fill="#8E736E"/>
<path d="M12.4355 38.3648C12.4355 38.3648 13.0813 39.8272 13.1188 39.8522C13.1563 39.8772 13.6063 39.648 13.998 39.5564C14.5979 39.4147 14.9521 39.4397 15.0021 39.3897C15.0521 39.3397 14.9146 37.794 14.9146 37.794C14.9146 37.794 14.3188 37.7565 13.598 37.9439C12.8814 38.1314 12.4355 38.3648 12.4355 38.3648Z" fill="#8E736E"/>
<path d="M37.4219 36.9856C37.4219 36.9856 38.8051 38.2563 38.8676 38.2563C38.9301 38.2563 39.3801 37.9272 39.8134 37.6147C40.2467 37.3022 40.755 37.0106 40.755 36.9731C40.755 36.9356 39.8592 35.2482 39.8592 35.2482C39.8592 35.2482 39.0551 35.619 38.5052 36.0356C37.8843 36.5106 37.4219 36.9856 37.4219 36.9856Z" fill="#8E736E"/>
<path d="M48.1396 34.7522C48.1396 34.7522 47.5522 36.2854 47.5646 36.3479C47.5771 36.4104 48.3479 36.7229 48.6729 36.9354C48.9979 37.1479 49.5437 37.5354 49.5937 37.5604C49.6437 37.5854 50.7895 36.2271 50.7895 36.2271C50.7895 36.2271 50.2937 35.8313 49.5062 35.3813C48.6854 34.9022 48.1396 34.7522 48.1396 34.7522Z" fill="#8E736E"/>
<path d="M42.2598 34.3939C42.2598 34.3939 42.7389 36.1397 42.8014 36.2105C42.8639 36.2813 43.2555 36.1772 44.0138 36.1147C44.7596 36.0563 45.1721 36.1063 45.1971 36.0813C45.2221 36.0563 45.4471 34.1481 45.4471 34.1481C45.4471 34.1481 44.9555 34.0564 43.7764 34.1314C42.7556 34.1981 42.2598 34.3939 42.2598 34.3939Z" fill="#8E736E"/>
<path d="M29.1565 16.949C30.8814 16.8865 35.2854 16.8865 39.181 16.949C43.0766 17.0114 48.6013 17.2031 49.1096 17.2031C49.6221 17.2031 50.2262 16.6281 50.1637 15.8615C50.1012 15.0949 49.0763 14.7449 47.0972 14.5532C45.8181 14.4283 42.66 14.1366 38.7977 14.0741C34.9354 14.0116 31.5522 14.0408 29.9856 14.5532C28.7357 14.9616 28.1982 15.799 28.2607 16.4031C28.3232 17.0073 28.7107 16.9656 29.1565 16.949Z" fill="#02AB47"/>
</svg>
