<svg width="167" height="156" fill="none" xmlns="http://www.w3.org/2000/svg"><g clip-path="url(#clip0_25_437)"><path d="M76.66.626C40.107-.207-.21 30.11.567 79.219c.68 43.178 33.123 75.857 75.163 76.538 42.039.68 79.287-27.11 79.509-76.76.236-50.04-38.373-77.454-78.579-78.371z" fill="#FF2A23"/><path d="M76.774 18.151c-28.999.986-58.261 22.624-58.942 60.775-.68 38.151 32.665 59.399 58.942 59.399 33.359 0 61.232-26.276 60.538-61.232-.68-34.943-26.957-60.08-60.538-58.942z" fill="#FFFDFE"/><path d="M77.452 33.013c-26.277-.598-45.692 22.623-45.928 44.775-.223 22.624 13.93 45.692 45.47 46.831 31.539 1.139 46.372-23.985 46.83-45.234.472-21.249-16.443-45.692-46.372-46.373z" fill="#FF2A23"/><path d="M47.412 78.62c-.222 19.874 13.93 31.304 31.068 31.304 15.568 0 30.845-9.819 30.845-30.61 0-18.735-14.166-29.928-29.929-30.609-15.763-.694-31.762 10.736-31.984 29.915z" fill="#fff"/><path d="M61.467 78.468C60.62 90.314 70.258 95.98 78.938 95.98c8.222 0 16.333-5.403 16.569-16.375.208-10.305-7.875-16.596-16.569-16.901-8.972-.306-16.79 6.138-17.471 15.763z" fill="#FB2B22"/><path d="M81.8 79.399l-4.652 2.583 8.875 12.624s6.86.528 8.444-1.264c1.583-1.791-.209-7.069-.209-7.069L81.801 79.4z" fill="#CC1935"/><path d="M110.522 65.677c-1.25-2.583-2.528-4.652-5.917-4.014-3.374.64-9.61 4.222-10.777 5.917-1.07 1.555-2.11 3.486-2.11 3.486s-11.945 6.527-13.833 7.597c-2.959 1.694-.917 5.138 1.166 4.75 2.847-.528 15.569-5.709 15.569-5.709s2.694.64 4.277.64c1.584 0 10.611-4.459 11.833-5.278 2.014-1.375 1.056-4.75-.208-7.389z" fill="#ACB1B5"/><path d="M94.216 86.246s-.667 2.36-3.097 4.805c-2.528 2.528-5.125 3.528-5.125 3.528l8.014 11.749s5.958.43 10.291-3.792c4.333-4.222 2.444-9.75 2.444-9.75l-12.527-6.54z" fill="#C8C8C8"/><path d="M102.16 118.674l-8.166-12.361s1.36-.722 3.153-1.944c3.291-2.25 5.124-4.042 7.471-7.708 1.278-1.972 2.097-3.889 2.097-3.889l12.625 6.236s-.278 9.749-4.403 14.499-12.777 5.167-12.777 5.167z" fill="#CC1935"/><path d="M102.159 118.675l7.014 10.513s9.152.903 16.652-8.083c7.499-8.986 5.499-16.374 5.499-16.374l-11.985-5.736s-2.333 5.611-6.972 11c-4.639 5.388-10.208 8.68-10.208 8.68z" fill="#C8C8C8"/><path d="M119.562 144.73l-10.374-15.527s7.819-4.57 13.374-11.139c5.763-6.819 8.777-13.304 8.777-13.304l16.791 8.346s-3.778 9.764-12.152 18.583c-8.194 8.596-16.416 13.041-16.416 13.041z" fill="#CC1935"/><path d="M102.452 69.788c1.57 2.93 4.167 2.958 6.917 1.791 2.75-1.166 15.735-10.346 15.735-10.346s17.638 8.874 29.04 4.43c11.402-4.43 11.083-16.471 11.083-16.471l-6.75-4.278s4.917-2.555 6.5-3.5c.778-.472 1.93-2.222 1.291-3.791-.5-1.222-2.416-1.639-3.999-1-1.584.639-6.153 2.07-6.153 2.07s1.82-7.57 1.5-7.986c-.319-.417-3.597-2.111-3.597-2.111s-10.666 0-12.041.527c-1.375.528-11.93 10.986-11.93 10.986l-5.069 10.347-2.167 4.61s-14.79 6.625-17.013 7.57c-2.208.958-5.277 3.583-3.347 7.152z" fill="#006CA9"/><path d="M125.964 53.79s6.222-4.5 10.652-6.722c4.43-2.222 12.652-4.93 15.083-5.222 2.43-.292 3.43.361 3.86 1.5.431 1.139-1 2.57-2.222 3.222-1.208.639-7.652 3.57-14.791 7.36-7.138 3.792-10.527 6.57-13.416 7.223-1.458.333-3.333-.973-3.444-3.153-.083-1.694.25-3.11 1.361-6.36 1.361-4 4.347-10.014 6.861-13.93 3.722-5.792 9.083-9.722 15.013-10.792 5.93-1.07 10.791.43 12.013 1.43 1.209 1 1.139 2.029.709 2.376-.431.347-1.07.625-4.292-.514-2.236-.792-9.36-.792-14.36 2.93-5.055 3.75-6.291 6.07-8.5 10.153-2.208 4.083-4.527 10.499-4.527 10.499z" fill="#1F87FD"/></g><defs><clipPath id="clip0_25_437"><path fill="#fff" d="M0 0h167v156H0z"/></clipPath></defs></svg>