<?xml version="1.0" encoding="utf-8"?><svg viewBox="0 0 167 156" xmlns="http://www.w3.org/2000/svg" xmlns:xlink="http://www.w3.org/1999/xlink"><style>:root>svg{display:none}:root>svg:target{display:block}</style><svg viewBox="0 0 167 156" id="dart-board" xmlns="http://www.w3.org/2000/svg"><g clip-path="url(#aa)"><path d="M76.66.626C40.107-.207-.21 30.11.567 79.219c.68 43.178 33.123 75.857 75.163 76.538 42.039.68 79.287-27.11 79.509-76.76.236-50.04-38.373-77.454-78.579-78.371z"/><path d="M76.774 18.151c-28.999.986-58.261 22.624-58.942 60.775-.68 38.151 32.665 59.399 58.942 59.399 33.359 0 61.232-26.276 60.538-61.232-.68-34.943-26.957-60.08-60.538-58.942z"/><path d="M77.452 33.013c-26.277-.598-45.692 22.623-45.928 44.775-.223 22.624 13.93 45.692 45.47 46.831 31.539 1.139 46.372-23.985 46.83-45.234.472-21.249-16.443-45.692-46.372-46.373z"/><path d="M47.412 78.62c-.222 19.874 13.93 31.304 31.068 31.304 15.568 0 30.845-9.819 30.845-30.61 0-18.735-14.166-29.928-29.929-30.609-15.763-.694-31.762 10.736-31.984 29.915z"/><path d="M61.467 78.468C60.62 90.314 70.258 95.98 78.938 95.98c8.222 0 16.333-5.403 16.569-16.375.208-10.305-7.875-16.596-16.569-16.901-8.972-.306-16.79 6.138-17.471 15.763z"/><path d="m81.8 79.399-4.652 2.583 8.875 12.624s6.86.528 8.444-1.264c1.583-1.791-.209-7.069-.209-7.069L81.801 79.4z"/><path d="M110.522 65.677c-1.25-2.583-2.528-4.652-5.917-4.014-3.374.64-9.61 4.222-10.777 5.917-1.07 1.555-2.11 3.486-2.11 3.486s-11.945 6.527-13.833 7.597c-2.959 1.694-.917 5.138 1.166 4.75 2.847-.528 15.569-5.709 15.569-5.709s2.694.64 4.277.64c1.584 0 10.611-4.459 11.833-5.278 2.014-1.375 1.056-4.75-.208-7.389zM94.216 86.246s-.667 2.36-3.097 4.805c-2.528 2.528-5.125 3.528-5.125 3.528l8.014 11.749s5.958.43 10.291-3.792c4.333-4.222 2.444-9.75 2.444-9.75l-12.527-6.54z"/><path d="m102.16 118.674-8.166-12.361s1.36-.722 3.153-1.944c3.291-2.25 5.124-4.042 7.471-7.708 1.278-1.972 2.097-3.889 2.097-3.889l12.625 6.236s-.278 9.749-4.403 14.499-12.777 5.167-12.777 5.167z"/><path d="m102.159 118.675 7.014 10.513s9.152.903 16.652-8.083c7.499-8.986 5.499-16.374 5.499-16.374l-11.985-5.736s-2.333 5.611-6.972 11c-4.639 5.388-10.208 8.68-10.208 8.68z"/><path d="m119.562 144.73-10.374-15.527s7.819-4.57 13.374-11.139c5.763-6.819 8.777-13.304 8.777-13.304l16.791 8.346s-3.778 9.764-12.152 18.583c-8.194 8.596-16.416 13.041-16.416 13.041zM102.452 69.788c1.57 2.93 4.167 2.958 6.917 1.791 2.75-1.166 15.735-10.346 15.735-10.346s17.638 8.874 29.04 4.43c11.402-4.43 11.083-16.471 11.083-16.471l-6.75-4.278s4.917-2.555 6.5-3.5c.778-.472 1.93-2.222 1.291-3.791-.5-1.222-2.416-1.639-3.999-1-1.584.639-6.153 2.07-6.153 2.07s1.82-7.57 1.5-7.986c-.319-.417-3.597-2.111-3.597-2.111s-10.666 0-12.041.527c-1.375.528-11.93 10.986-11.93 10.986l-5.069 10.347-2.167 4.61s-14.79 6.625-17.013 7.57c-2.208.958-5.277 3.583-3.347 7.152z"/><path d="M125.964 53.79s6.222-4.5 10.652-6.722c4.43-2.222 12.652-4.93 15.083-5.222 2.43-.292 3.43.361 3.86 1.5.431 1.139-1 2.57-2.222 3.222-1.208.639-7.652 3.57-14.791 7.36-7.138 3.792-10.527 6.57-13.416 7.223-1.458.333-3.333-.973-3.444-3.153-.083-1.694.25-3.11 1.361-6.36 1.361-4 4.347-10.014 6.861-13.93 3.722-5.792 9.083-9.722 15.013-10.792 5.93-1.07 10.791.43 12.013 1.43 1.209 1 1.139 2.029.709 2.376-.431.347-1.07.625-4.292-.514-2.236-.792-9.36-.792-14.36 2.93-5.055 3.75-6.291 6.07-8.5 10.153-2.208 4.083-4.527 10.499-4.527 10.499z"/></g><defs><clipPath id="aa"><path d="M0 0h167v156H0z"/></clipPath></defs></svg><svg viewBox="0 0 40 40" id="icons--barchart" xmlns="http://www.w3.org/2000/svg"><path d="M36.67 3.334H3.334V36.67h33.338V3.334z"/><path fill-rule="evenodd" clip-rule="evenodd" d="M3.77 8.71h32.9v.555H3.77V8.71zm-.028 5.367h32.93v.555H3.741v-.555zm-.031 5.367h32.96V20H3.711v-.556zm-.028 5.367h32.988v.556H3.683v-.556zm-.03 5.371H36.67v.555H3.653v-.555z"/><path d="M22.34 36.09h-4.677V23.015c0-.378.306-.683.684-.683h3.308c.377 0 .683.305.683.683v13.077h.003zM12.979 36.09H8.304V17.607c0-.377.305-.683.683-.683h3.308c.378 0 .684.306.684.684V36.09zM31.014 36.09h-3.308a.683.683 0 0 1-.683-.683v-26c0-.378.305-.684.683-.684h3.308c.378 0 .683.306.683.684v26a.683.683 0 0 1-.683.684z"/><path d="M36.67 35.56H4.445V3.334h-1.11V36.67H36.67v-1.11z"/><path d="M36.115 3.89v32.225H3.89V3.89h32.226zm.556-.556H3.333V36.67h33.338V3.334z"/></svg><svg viewBox="0 0 40 40" id="icons--compass" xmlns="http://www.w3.org/2000/svg"><path d="M35.634 4.359a3.48 3.48 0 0 0-2.475-1.025 3.48 3.48 0 0 0-2.475 1.025 3.512 3.512 0 0 0 0 4.955 3.48 3.48 0 0 0 2.475 1.025c.936 0 1.814-.364 2.478-1.025a3.51 3.51 0 0 0-.003-4.955zm-3.858 1.094c.37-.37.86-.572 1.38-.572a1.957 1.957 0 1 1-1.38 3.339 1.962 1.962 0 0 1 0-2.767z"/><path d="m31.533 10.82-2.352-2.355 1.677-1.68a.956.956 0 0 1 1.35 0l1.006 1.005a.952.952 0 0 1 0 1.347l-1.68 1.683z"/><path d="M32.139 10.212s.37-.742-.622-1.733c-.992-.992-1.742-.611-1.742-.611l-.594.597 2.352 2.355.606-.608z"/><path d="M19.549 36.671c8.95 0 16.205-7.26 16.205-16.216 0-8.956-7.255-16.216-16.205-16.216S3.344 11.5 3.344 20.455c0 8.956 7.255 16.216 16.205 16.216z"/><path d="M19.55 33.602c7.256 0 13.138-5.886 13.138-13.146 0-7.26-5.882-13.146-13.138-13.146S6.412 13.195 6.412 20.456c0 7.26 5.882 13.146 13.138 13.146z"/><path d="m21.33 22.24-1.78 7.697-1.78-7.698-7.696-1.783 7.695-1.781 1.78-7.701 1.782 7.7 7.695 1.782-7.695 1.783z"/><path d="m22.067 20.456 4.184 6.706-6.7-4.187-6.702 4.187 4.184-6.706-4.184-6.704 6.701 4.184 6.701-4.184-4.184 6.704z"/><path opacity=".32" d="M16.238 26.375s3.561-2.525 4.911-3.875c1.353-1.348 4.204-5.312 4.204-5.312.764-.847 1.622-2.99 1.861-3.611.025-.067-.039-.134-.105-.109-.545.209-2.27.89-3.473 1.656-1.503.961-4.192 3.159-5.445 4.412-1.253 1.252-2.881 3.667-3.806 4.98-.773 1.1-1.74 3.146-2.031 3.782-.034.07.039.142.108.11.656-.274 2.781-1.21 3.776-2.033z"/><path d="M25.185 16.796c.794-1.014 1.547-3.011 1.77-3.63.027-.075-.045-.148-.123-.123-.62.223-2.614.978-3.628 1.772-1.208.948-5.227 4.25-5.227 4.25l2.958 2.961c.003 0 3.303-4.022 4.25-5.23zM13.726 24.302c-.795 1.014-1.547 3.011-1.77 3.63-.027.075.045.148.123.123.62-.223 2.614-.978 3.627-1.773 1.209-.947 5.228-4.25 5.228-4.25l-2.961-2.96s-3.3 4.019-4.247 5.23z"/><path d="M19.454 22.655c1.16 0 2.1-.942 2.1-2.103a2.1 2.1 0 1 0-4.2 0c0 1.161.94 2.103 2.1 2.103zM27.354 12.646a.956.956 0 0 1 0-1.35l.989-.989 1.35 1.35-.986.99a.954.954 0 0 1-1.353 0zM11.746 28.265a.956.956 0 0 1 0 1.35l-.99.989-1.349-1.35.986-.989a.959.959 0 0 1 1.353 0zM30.588 20.456c0-.528.427-.956.955-.956h1.395v1.911h-1.395a.955.955 0 0 1-.955-.956zm-22.073 0a.955.955 0 0 1-.956.955H6.165V19.5h1.394c.528 0 .956.428.956.956zM27.355 28.265a.956.956 0 0 1 1.35 0l.986.989-1.35 1.35-.99-.99a.958.958 0 0 1 .004-1.35zM11.747 12.646a.956.956 0 0 1-1.35 0l-.986-.989 1.35-1.35.989.989c.37.372.37.978-.003 1.35zM19.55 31.499c.528 0 .956.428.956.955v1.397h-1.908v-1.397a.951.951 0 0 1 .952-.955zm0-22.087a.955.955 0 0 1-.955-.955V7.059h1.908v1.398a.951.951 0 0 1-.953.955z"/><path fill-rule="evenodd" clip-rule="evenodd" d="M19.55 7.726c-7.025 0-12.721 5.7-12.721 12.73s5.696 12.73 12.721 12.73c7.026 0 12.721-5.7 12.721-12.73s-5.695-12.73-12.72-12.73zM5.996 20.456c0-7.49 6.068-13.563 13.554-13.563 7.486 0 13.555 6.073 13.555 13.563S27.036 34.019 19.55 34.019 5.996 27.946 5.996 20.456z"/><path d="M4.644 20.258s-.589-2.984.981-6.679c2.317-5.45 7.32-8.451 12.702-8.684C22.363 4.72 24.69 6.05 24.69 6.05s-3.283-.27-5.548-.17c-5.461.243-9.256 2.735-11.857 6.996-2.139 3.512-2.642 7.382-2.642 7.382z"/></svg><svg viewBox="0 0 15 16" id="icons--gift" xmlns="http://www.w3.org/2000/svg"><g clip-path="url(#da)"><path d="M1.05 3.967s-.806.063-.914.245c-.108.181-.115.46-.115.766 0 .308-.012 1.013-.012 1.013l.192.413s.037 5.275.037 5.439c0 .162 0 .361.235.487.235.127 6.208 3.012 6.394 3.09.281.116.415.072.415.072l6.637-11.1s-.021-.304-.297-.377c-.159-.04-12.572-.048-12.572-.048z"/><path d="M7.211 7.616c-.101.279-.055 3.162-.037 5.258.017 2.095-.054 2.53 0 2.602.054.072.2.002.614-.182.768-.34 4.461-2.167 4.733-2.33.271-.162.934-.499 1.042-.68.11-.181.168-1.868.204-3.222.036-1.355.073-2.439.073-2.439l.162-.487s-.035-1.318-.041-1.463c-.011-.24-.038-.364-.099-.334-.087.042-.818.64-2.75 1.58-1.214.59-3.83 1.504-3.9 1.697zM7.229 1.401c-.542-.025-2.023.832-3.45 1.3C2.35 3.172.194 4.114.176 4.169c-.018.054.867.45 1.432.721.672.322 3.234 1.536 3.703 1.734.47.2 1.59.664 1.77.65.253-.017 2.638-.957 3.848-1.535 1.21-.577 2.723-1.472 2.743-1.69.009-.098-2.225-.931-3.339-1.435C8.184 1.639 7.625 1.42 7.229 1.4z"/><path d="M.015 6.222c.02.235.148.319.475.461.328.143 6.52 3.359 6.663 3.359.142 0 .185-.51.028-.496-.085.007-2.119-.96-4.019-1.924C1.549 6.804.005 5.988.005 5.988l.01.234z"/><path d="M14.003 6.125 7.326 9.519c-.065.033-.169.022-.169.022l-.005.5s.062.015.13-.007c.04-.012 6.53-3.37 6.559-3.38a.33.33 0 0 0 .18-.244c.022-.128-.018-.285-.018-.285z"/><path d="m2.608 12.179 1.294 1.925.566.194s.047-2.1.065-3.657c.027-2.274.017-4.348.05-4.465.053-.199 2.57-1.015 2.57-1.015s2.842.891 2.932 1.09c.04.087.009 1.56 0 3.276-.011 2.168-.007 4.671-.007 4.671s.294-.001.329-.11c.036-.109.18-.948.18-.948l1.104-7.35.56-.722-.778-1.48-3.19-1.57-1.097.246L6 2.083 2.237 4.787l.439.89 1.076.549-1.144 5.953z"/><path d="M4.17 6.013c.04.045-.027 8.134-.11 8.152-.067.017-1.573-.656-1.573-.725 0-.068.121-7.798.121-7.798s1.439.234 1.561.371zM10.411 6.174c-.068.152-.028 7.946-.028 7.946s.343-.19.786-.402c.44-.211.756-.343.784-.453.027-.11.076-7.818.076-7.818l-1.618.727zM7.155 1.781c-.417 0-.877.12-1.01.468-.134.349-.164.867-.164 1.255 0 .371-.06 1.321 1.084 1.306 1.143-.015 1.177-.439 1.195-1.374.015-.78-.09-1.158-.193-1.32-.092-.147-.4-.335-.912-.335z"/><path d="M6.494 3.711c.26.015.371-.556.571-.868.2-.312.409-.52.334-.683-.062-.135-.605-.179-.899.23-.206.289-.242 1.308-.006 1.321zM8.167 2.053s.37.375.465 1.11c.097.735-.015 1.306-.015 1.306s1.833-.055 2.465.067c.624.12.841.396.841.596 0 .2-.41.361-.826.331-.416-.03-.697-.052-.75.053-.052.105.023.267.602.31.578.046 1.247-.037 1.454-.757.208-.72.215-1.967.142-2.866-.074-.9-.236-1.413-.639-1.608-.424-.204-1.485-.237-2.487.326-1.003.564-1.252 1.132-1.252 1.132z"/><path d="M10.244 1.197c-.13-.167-.549-.162-.772.097-.238.275-.29 1.32.015 1.38.345.068.282-.497.534-.845.248-.342.35-.468.223-.632zM6.048 2.089S4.644.452 3.04.477c-.965.015-1.21.572-1.263.802-.052.23-.452 2.518.081 3.757.534 1.238 1.642.917 1.815.877.223-.052.696-.215.651-.386-.045-.171-1.618.445-1.633-.26-.015-.705 1.114-.78 1.633-.795.52-.015 1.412.103 1.412.103s-.157-.853-.053-1.462a3.088 3.088 0 0 1 .364-1.024z"/><path d="M2.61 1.071c-.2.208-.282 1.404-.155 1.998.126.593.237.846.497.795.218-.044.349-1.21.453-1.62.11-.437.386-.902.275-1.105-.17-.313-.86-.284-1.07-.068z"/></g><defs><clipPath id="da"><path d="M0 0h15v16H0z"/></clipPath></defs></svg><svg viewBox="0 0 40 40" id="icons--heart" xmlns="http://www.w3.org/2000/svg"><path d="M20.22 35.75c1.022 0 8.92-6.715 13.527-12.24 4.433-5.317 2.834-11.594 1.859-13.341-1.153-2.064-15.816 4.725-15.816 4.725S6.13 7.219 5.107 8.886c-1.386 2.26-3.327 8.208.592 13.738C9.859 28.499 19.123 35.75 20.22 35.75z"/><path d="M20.15 33.943s14.517-10.744 15.764-17.305c1.18-6.214-1.236-9.227-4.211-10.68-7.541-3.683-11.347 3.544-11.705 3.544-.358 0-3.903-7.241-11.194-4.108-4.016 1.725-5.7 6.42-4.108 11.708 2.336 7.76 15.455 16.84 15.455 16.84z"/></svg><svg viewBox="0 0 40 40" id="icons--lightbulb" xmlns="http://www.w3.org/2000/svg"><path d="M20.002 36.67c1.854 0 3.358-.886 3.358-1.98 0-1.094-1.504-1.98-3.358-1.98-1.855 0-3.359.886-3.359 1.98 0 1.094 1.504 1.98 3.358 1.98zM20.001 3.333c-5.856 0-10.606 4.353-10.606 9.72 0 1.4.422 2.898 1.041 4.218.87 1.856 1.817 3.228 2.095 3.734.772 1.405.661 2.886.875 3.814.403 1.734 1.609 2.361 6.593 2.361s6.056-.597 6.503-2.194c.306-1.087.009-2.273.778-3.676.278-.505 1.409-2.18 2.28-4.04.62-1.319 1.043-2.816 1.043-4.216.005-5.368-4.745-9.721-10.602-9.721z"/><path d="M20.002 27.389c3.366 0 6.095-.555 6.095-1.24 0-.683-2.73-1.238-6.096-1.238s-6.095.555-6.095 1.239 2.73 1.239 6.095 1.239z"/><path d="M20.002 27.389c3.366 0 6.095-.555 6.095-1.24 0-.683-2.73-1.238-6.096-1.238s-6.095.555-6.095 1.239 2.73 1.239 6.095 1.239z"/><path d="M20.001 26.723c2.453 0 4.442-.257 4.442-.573 0-.316-1.989-.572-4.442-.572-2.453 0-4.441.256-4.441.572 0 .316 1.988.573 4.441.573z"/><path fill-rule="evenodd" clip-rule="evenodd" d="M16.69 18.085c.032-.075.06-.141.081-.194l.516.205c-.029.073-.063.152-.098.236-.08.19-.17.401-.24.62-.05.154-.082.294-.091.411-.01.12.008.185.025.215.207.356.539.612.895.888l.156.121c.376.295.82.67.82 1.25 0 .686-.244 2.1-.48 3.311a91.538 91.538 0 0 1-.466 2.238l-.01.048-.272-.06-.27-.062.01-.047.03-.136a93.628 93.628 0 0 0 .433-2.087c.239-1.23.47-2.584.47-3.205 0-.275-.202-.494-.608-.813a18.016 18.016 0 0 0-.146-.112c-.349-.269-.776-.597-1.042-1.054m.287-1.773a7.846 7.846 0 0 0-.27.699l.27-.699zm-.27.699a2.453 2.453 0 0 0-.116.535l.115-.535zm-.116.535a.92.92 0 0 0 .099.539l-.1-.54zm6.233-1.364.251-.117.252-.118v.002l.002.003.006.013a4.936 4.936 0 0 1 .09.213c.057.14.13.334.194.548.064.213.123.454.146.687.023.227.017.48-.077.694-.074.167-.221.327-.367.462a5.806 5.806 0 0 1-.508.412 13.8 13.8 0 0 1-.484.337l-.102.069c-.084.055-.136.09-.157.106 0 0-.014.014-.032.057a1.049 1.049 0 0 0-.061.211 4.29 4.29 0 0 0-.064.743c-.011.603.039 1.364.112 2.117a49.288 49.288 0 0 0 .37 2.873l.007.048.003.016-.274.045-.274.045-.003-.017-.008-.05a41.512 41.512 0 0 1-.126-.85 49.907 49.907 0 0 1-.248-2.057c-.074-.76-.126-1.545-.114-2.18.005-.317.027-.607.074-.841a1.59 1.59 0 0 1 .097-.327.687.687 0 0 1 .197-.269c.039-.03.12-.085.214-.147l.08-.053c.134-.09.3-.203.465-.324.166-.122.328-.25.458-.37.137-.128.212-.224.237-.28.037-.084.052-.223.033-.413a3.232 3.232 0 0 0-.126-.584 5.891 5.891 0 0 0-.258-.692l-.004-.01-.001-.002z"/><path fill-rule="evenodd" clip-rule="evenodd" d="M19.1 12.168c.166-.27.426-.446.774-.442a.98.98 0 0 1 .765.358c.179.214.282.498.337.803.111.61.05 1.404-.104 2.196a11.45 11.45 0 0 1-.645 2.15c.086.194.176.372.267.527.163.278.316.46.442.55a.285.285 0 0 0 .127.06c.02.002.04 0 .069-.02.08-.052.205-.18.361-.398.152-.211.317-.484.485-.8.074-.14.147-.287.22-.44a21.588 21.588 0 0 1-.358-1.744c-.115-.734-.181-1.496-.1-2.084.041-.293.123-.573.279-.786a.86.86 0 0 1 .718-.364c.332 0 .6.126.784.365.172.224.246.52.267.83.041.617-.122 1.417-.37 2.207a14.143 14.143 0 0 1-.633 1.633l.023.089a25.734 25.734 0 0 0 .229.834l.008.028.006.02.004.012v.003l-.265.082-.265.08-.002-.004-.004-.013-.015-.05a20.169 20.169 0 0 1-.094-.33 7.384 7.384 0 0 1-.465.756c-.165.23-.34.43-.513.541a.652.652 0 0 1-.428.105.828.828 0 0 1-.39-.159c-.222-.158-.422-.42-.6-.722a4.786 4.786 0 0 1-.09-.163 4.943 4.943 0 0 1-.241.408c-.166.25-.35.465-.551.597-.278.182-.576.117-.816-.034-.23-.147-.448-.394-.646-.684a5.516 5.516 0 0 1-.238-.383 5.27 5.27 0 0 1-.155.336l-.495-.251c.11-.22.216-.475.312-.755-.177-.392-.337-.82-.472-1.255-.27-.873-.44-1.802-.407-2.55.017-.373.086-.724.24-1.004.158-.29.408-.501.758-.564m.478 5.34a12.77 12.77 0 0 0 .546-2.848c.046-.654.026-1.268-.096-1.716-.06-.222-.154-.434-.304-.583a.682.682 0 0 0-.624-.193m.478 5.34c.141.293.29.556.438.773.181.266.348.44.485.527.128.082.18.06.213.04.11-.072.244-.216.393-.44.135-.204.271-.457.402-.747a11.38 11.38 0 0 1-.505-1.571c-.218-.89-.34-1.823-.28-2.546.03-.358.107-.694.263-.947m.826 4.292c.164-.473.303-.983.4-1.483.15-.765.197-1.48.104-1.99-.047-.255-.124-.435-.217-.546a.425.425 0 0 0-.345-.16c-.124-.001-.215.05-.295.179-.09.145-.155.38-.182.701-.053.639.055 1.507.266 2.368.078.32.17.634.27.93zm-2.58-.2a10.811 10.811 0 0 1-.193-.567c-.26-.842-.413-1.702-.383-2.36.015-.331.075-.587.171-.763a.51.51 0 0 1 .371-.285c.06-.01.094.002.132.04.052.052.112.156.16.336.098.358.123.898.079 1.531a12.303 12.303 0 0 1-.337 2.069zm5.226-.404c.115-.292.222-.59.315-.886.243-.771.38-1.492.346-2.004-.017-.257-.076-.428-.153-.53-.067-.087-.165-.146-.343-.146a.306.306 0 0 0-.27.137c-.078.105-.141.28-.176.534-.07.503-.016 1.198.098 1.92.052.33.116.661.183.975z"/><path d="M26.083 26.409s-1.6.772-6.081.772-6.081-.772-6.081-.772-.1 1.427.23 2.075c.397.777.703 1.047.703 1.047l.167.791-.067.209a.812.812 0 0 0 .167.786l.144.16.161.762-.055.153a.808.808 0 0 0 .183.839l.106.108.13.622s.661 1.411 4.212 1.411c3.55 0 4.211-1.41 4.211-1.41l.011-.054.073-.072a.51.51 0 0 0 .122-.542l-.042-.108.173-.822.302-.32a.515.515 0 0 0 .087-.586l-.14-.275.176-.825.11-.086c.165-.18.167-.452.095-.638a.395.395 0 0 1 .103-.423c.175-.166.4-.42.567-.733.341-.636.233-2.07.233-2.07z"/><path d="m14.854 29.53.15.798c1.616-.008 3.774.072 7.916-.586.747-.17 1.644-.506.652-.367 0-.003-3.802.361-8.718.156zm.556 2.715c1.788-.03 5.443-.209 9.37-1.061l.176-.825c-4.108.933-7.972 1.1-9.708 1.122l.161.764zm9.122.117c-3.636.789-7.039.992-8.88 1.036l.119.567s.058 1.758 4.21 1.758c4.153 0 4.212-1.758 4.212-1.758s-1.772.505-3.953.258a.175.175 0 0 1-.002-.35 61.887 61.887 0 0 0 4.122-.689l.172-.822z"/><path fill-rule="evenodd" clip-rule="evenodd" d="M26.575 26.192a.555.555 0 0 1-.296.728l-.216-.512.216.512h-.002l-.002.002-.008.003-.023.009a5.987 5.987 0 0 1-.371.126c-.256.078-.636.18-1.149.28-1.025.2-2.58.396-4.74.396-2.158 0-3.706-.196-4.723-.397-.509-.1-.885-.201-1.138-.28a5.804 5.804 0 0 1-.39-.136l-.008-.003h-.003v-.001h-.001l.219-.51-.22.51a.555.555 0 0 1 .437-1.021h.001m0 0 .008.003.05.02c.049.017.126.044.234.078.216.066.554.158 1.026.25.942.187 2.417.377 4.509.377 2.091 0 3.575-.19 4.527-.376a10.56 10.56 0 0 0 1.038-.252 4.914 4.914 0 0 0 .29-.098l.009-.003h-.001.001a.555.555 0 0 1 .726.295"/><path d="M16.078 5.09c1.086-.267 2.222-.134 3 .81.22.267.389.584.428.928.078.664-.334 1.292-.822 1.753-1.395 1.316-3.375 1.955-4.275 3.772-.211.425-.378.883-.7 1.23-.322.348-.858.559-1.278.336-.222-.116-.375-.336-.5-.555-.789-1.406-.73-3.197-.036-4.653.764-1.594 2.439-3.194 4.183-3.622zM15.126 27.762c-.244-.111-.147-.478.12-.459.894.07 2.416.156 4.43.156 2.122 0 3.989-.159 5.078-.275.269-.028.372.341.124.455-.838.395-2.374.845-5.008.845-2.569 0-3.986-.38-4.744-.722zM16.651 30.567c-.186.067-.378.158-.472.33a.321.321 0 0 0-.039.209c.022.105.12.18.217.228.194.094.414.12.627.122.442.006.88-.078 1.317-.161.13-.025.264-.05.38-.114.117-.064.217-.172.237-.303.027-.175-.098-.344-.25-.428-.528-.291-1.484-.075-2.017.117zm.414 1.831c-.186.067-.378.158-.472.33a.32.32 0 0 0-.039.209c.022.105.12.18.217.228.194.094.414.119.627.122.442.005.881-.078 1.317-.161.13-.025.264-.05.38-.114.117-.064.217-.172.237-.303.027-.175-.098-.344-.25-.428-.528-.289-1.486-.072-2.017.117zM16.115 25.613c.253.026.52.003.734-.133.213-.136.35-.414.263-.653-.044-.125-.141-.225-.236-.319-.208-.206-.416-.411-.622-.617-.23-.23-.461-.458-.711-.666-.386-.323-.905-.625-1.414-.39-.433.2-.536.595-.344 1.01.408.869 1.358 1.669 2.33 1.768z"/></svg><svg viewBox="0 0 40 40" id="icons--megaphone" xmlns="http://www.w3.org/2000/svg"><path d="m13.614 34.08-2.825-8.672 4.172.247.206 2.44c.255.48.858.7 1.113 1.18.131.247.153.539.117.816-.075.575-.378 1.197-.083 1.7.347.592 1.214.761 1.186 1.575-.028.745-3.525 1.756-3.886.714z"/><path d="m13.19 35.95-.263.091a1.994 1.994 0 0 1-2.539-1.23L7.11 25.358h4.517c.16.462.216.63.38 1.092.15.42.356.628.223 1.072-.134.439-.245.939-.017 1.367.255.48.858.7 1.114 1.18.13.248.152.54.116.817-.075.575-.377 1.197-.083 1.7.347.591 1.214.76 1.186 1.575-.025.744-.655 1.547-1.355 1.788z"/><path d="M14.547 34.16c-.372 1.183-1.3 1.594-2.27 1.658a2.456 2.456 0 0 1-1.588-.462c1.344 2.023 4.794.764 5.494.381 1.07-.586 1.247-1.18 1.317-2.3.005-.07-.111-.305-.33-.128-.334.267-.712.364-1.134.45-.52.106-.797.075-1.008.09-.273.016-.409.077-.48.31zm-1.274-2.44c-.106.434.152.492.414.497.636.017 1.475-.238 1.888-.425.159-.07.306-.16.44-.264a.443.443 0 0 0 .174-.316c.02-.364.159-.75.206-1.12.02-.152.02-.31-.006-.46-.02-.12-.158-.181-.264-.123-.266.147-.741.392-1.058.456-.628.128-1.014.116-1.286.122a.342.342 0 0 0-.336.383c.02.14.017.28 0 .417-.036.272-.106.558-.172.833zM7.11 25.358l.87 2.523s.53-1.181 2.641-.964c1.43.147 1.858.647 1.858.647l.092-2.133-5.46-.073z"/><path d="M30.88 32.959s-9.393-6.954-17.202-7.162a260.305 260.305 0 0 0-6.382-.097c-1.839.002-3.964-2.612-3.964-7.212 0-4.601 2.392-7.704 4.231-7.704.272 0 3.181.172 6.698.072 8.273-.233 16.619-6.84 16.619-6.84V32.96z"/><path d="M24.486 22.63c-.314.561-.32 1.839-.236 3.022a1.16 1.16 0 0 1-1.578 1.164c-5.4-2.105-9.835-1.916-9.835-1.916l.214.88.625.017c4.718.125 10.013 2.71 13.466 4.741 0 0-1.067-1.533-1.611-3.627-.564-2.184-1.045-4.28-1.045-4.28zM12.842 26.503l-.209.36.892 1.742a.535.535 0 0 0 .575.284l1.505-.303s.42-.597.5-.733c.08-.136.05-.217.05-.217l-1.71.328c-.004 0-1.548-1.444-1.603-1.461z"/><path d="m13.981 27.77-1.155-1.259 2.08-.008 1.178 1.02c.142.15.05.335-.153.369l-1.17.183a.837.837 0 0 1-.78-.306zM11.74 18.488c0-2.625.858-5.57 1.933-7.618-3.247.067-5.852-.086-6.11-.086-1.84 0-4.231 3.103-4.231 7.704 0 4.6 2.125 7.212 3.966 7.212.587 0 3.023.008 6.38.097l.062.003c-1.245-2.234-2-4.695-2-7.312zM30.88 32.959c3.198 0 5.79-6.48 5.79-14.471 0-7.993-2.592-14.472-5.79-14.472-3.197 0-5.789 6.48-5.789 14.472 0 7.992 2.592 14.47 5.79 14.47z"/><path d="M25.346 14.254a34.983 34.983 0 0 0-.253 4.237c0 7.992 2.592 14.47 5.79 14.47s5.79-6.478 5.79-14.47c0-1.476-.09-2.895-.253-4.237H25.346z"/><path d="M30.88 33.792c-3.775 0-6.622-6.578-6.622-15.304 0-8.726 2.847-15.305 6.623-15.305 3.775 0 5.79 6.581 5.79 15.305 0 8.726-2.015 15.304-5.79 15.304zm0-28.942c-2.344 0-4.955 5.6-4.955 13.638 0 8.037 2.611 13.638 4.956 13.638s4.956-5.601 4.956-13.638c0-8.037-2.611-13.638-4.956-13.638z"/><path d="M27.102 8.678c-.25.678-1.153 2.18-1.57 7.125-.013.167-.105.9-.513.9-.272 0-.353-.411-.353-.978 0-2.208.367-4.644 1.22-7.05.483-1.358 1.563-.93 1.216.003zM26.085 15.138l5.25.61v5.528l-5.21.939c-.345-4.37-.04-7.077-.04-7.077z"/><path d="M31.336 21.279c.724 0 1.311-1.237 1.311-2.764 0-1.526-.587-2.764-1.311-2.764s-1.311 1.238-1.311 2.764c0 1.527.587 2.764 1.31 2.764zM18.198 12.648c1.761-.233 3.5-.77 4.99-1.739-.865 2.32-1.276 5.114-.956 7.572-.823-.405-1.653-.81-2.531-1.072-.733-.217-1.492-.33-2.25-.42-1.909-.23-3.676-.266-5.596-.23.056 0 .209-1.297.442-2.264.234-.966.473-1.527.473-1.527s3.758-.098 5.428-.32zM12.02 12.848c-2.694.08-5.702.117-5.702.117s-1.359 1.183-1.6 3.791c0 0 3.208 0 6.122.053.205-1.878.81-3.264 1.18-3.96z"/></svg></svg>