<svg width="233" height="233" fill="none" xmlns="http://www.w3.org/2000/svg"><g clip-path="url(#clip0_128_455)"><path d="M114.761.17C60.04-1.077-.316 44.31.849 117.825c1.018 64.638 49.585 113.558 112.519 114.577 62.933 1.019 118.693-40.583 119.026-114.91C232.748 42.583 174.95 1.542 114.761.17z" fill="#FF2A23"/><path d="M114.931 26.406c-43.411 1.476-87.217 33.868-88.236 90.98-1.019 57.112 48.9 88.922 88.236 88.922 49.939 0 91.666-39.336 90.626-91.666-1.019-52.31-40.355-89.94-90.626-88.236z" fill="#FFFDFE"/><path d="M115.946 48.653c-39.336-.894-68.402 33.868-68.755 67.029-.333 33.868 20.853 68.402 68.068 70.106 47.216 1.705 69.42-35.905 70.107-67.715.706-31.81-24.617-68.4-69.42-69.42z" fill="#FF2A23"/><path d="M70.975 116.928c-.332 29.752 20.854 46.862 46.509 46.862 23.307 0 46.176-14.699 46.176-45.822 0-28.047-21.206-44.804-44.804-45.823-23.597-1.04-47.548 16.071-47.88 44.783z" fill="#fff"/><path d="M92.016 116.7c-1.268 17.734 13.16 26.217 26.155 26.217 12.308 0 24.449-8.088 24.803-24.512.312-15.427-11.788-24.845-24.803-25.302-13.431-.458-25.136 9.189-26.155 23.597z" fill="#FB2B22"/></g><defs><clipPath id="clip0_128_455"><path fill="#fff" d="M0 0h233v233H0z"/></clipPath></defs></svg>