<svg width="40" height="40" fill="none" xmlns="http://www.w3.org/2000/svg"><path d="M35.634 4.359a3.48 3.48 0 00-2.475-1.025 3.48 3.48 0 00-2.475 1.025 3.512 3.512 0 000 4.955 3.48 3.48 0 002.475 1.025c.936 0 1.814-.364 2.478-1.025a3.51 3.51 0 00-.003-4.955zm-3.858 1.094c.37-.37.86-.572 1.38-.572a1.957 1.957 0 11-1.38 3.339 1.962 1.962 0 010-2.767z" fill="#E2A610"/><path d="M31.533 10.82l-2.352-2.355 1.677-1.68a.956.956 0 011.35 0l1.006 1.005a.952.952 0 010 1.347l-1.68 1.683z" fill="#FFCA28"/><path d="M32.139 10.212s.37-.742-.622-1.733c-.992-.992-1.742-.611-1.742-.611l-.594.597 2.352 2.355.606-.608z" fill="#E2A610"/><path d="M19.549 36.671c8.95 0 16.205-7.26 16.205-16.216 0-8.956-7.255-16.216-16.205-16.216S3.344 11.5 3.344 20.455c0 8.956 7.255 16.216 16.205 16.216z" fill="#FFCA28"/><path d="M19.55 33.602c7.256 0 13.138-5.886 13.138-13.146 0-7.26-5.882-13.146-13.138-13.146S6.412 13.195 6.412 20.456c0 7.26 5.882 13.146 13.138 13.146z" fill="#fff"/><path d="M21.33 22.24l-1.78 7.697-1.78-7.698-7.696-1.783 7.695-1.781 1.78-7.701 1.782 7.7 7.695 1.782-7.695 1.783z" fill="#E0C3AB"/><path d="M22.067 20.456l4.184 6.706-6.7-4.187-6.702 4.187 4.184-6.706-4.184-6.704 6.701 4.184 6.701-4.184-4.184 6.704z" fill="#B2947C"/><path opacity=".32" d="M16.238 26.375s3.561-2.525 4.911-3.875c1.353-1.348 4.204-5.312 4.204-5.312.764-.847 1.622-2.99 1.861-3.611.025-.067-.039-.134-.105-.109-.545.209-2.27.89-3.473 1.656-1.503.961-4.192 3.159-5.445 4.412-1.253 1.252-2.881 3.667-3.806 4.98-.773 1.1-1.74 3.146-2.031 3.782-.034.07.039.142.108.11.656-.274 2.781-1.21 3.776-2.033z" fill="#212121"/><path d="M25.185 16.796c.794-1.014 1.547-3.011 1.77-3.63.027-.075-.045-.148-.123-.123-.62.223-2.614.978-3.628 1.772-1.208.948-5.227 4.25-5.227 4.25l2.958 2.961c.003 0 3.303-4.022 4.25-5.23z" fill="#F44336"/><path d="M13.726 24.302c-.795 1.014-1.547 3.011-1.77 3.63-.027.075.045.148.123.123.62-.223 2.614-.978 3.627-1.773 1.209-.947 5.228-4.25 5.228-4.25l-2.961-2.96s-3.3 4.019-4.247 5.23z" fill="#2F7889"/><path d="M19.454 22.655c1.16 0 2.1-.942 2.1-2.103a2.1 2.1 0 10-4.2 0c0 1.161.94 2.103 2.1 2.103z" fill="#94D1E0"/><path d="M27.354 12.646a.956.956 0 010-1.35l.989-.989 1.35 1.35-.986.99a.954.954 0 01-1.353 0z" fill="#F44336"/><path d="M11.746 28.265a.956.956 0 010 1.35l-.99.989-1.349-1.35.986-.989a.959.959 0 011.353 0z" fill="#B2947C"/><path d="M30.588 20.456c0-.528.427-.956.955-.956h1.395v1.911h-1.395a.955.955 0 01-.955-.956zm-22.073 0a.955.955 0 01-.956.955H6.165V19.5h1.394c.528 0 .956.428.956.956z" fill="#E0C3AB"/><path d="M27.355 28.265a.956.956 0 011.35 0l.986.989-1.35 1.35-.99-.99a.958.958 0 01.004-1.35zM11.747 12.646a.956.956 0 01-1.35 0l-.986-.989 1.35-1.35.989.989c.37.372.37.978-.003 1.35z" fill="#B2947C"/><path d="M19.55 31.499c.528 0 .956.428.956.955v1.397h-1.908v-1.397a.951.951 0 01.952-.955zm0-22.087a.955.955 0 01-.955-.955V7.059h1.908v1.398a.951.951 0 01-.953.955z" fill="#E0C3AB"/><path fill-rule="evenodd" clip-rule="evenodd" d="M19.55 7.726c-7.025 0-12.721 5.7-12.721 12.73s5.696 12.73 12.721 12.73c7.026 0 12.721-5.7 12.721-12.73s-5.695-12.73-12.72-12.73zM5.996 20.456c0-7.49 6.068-13.563 13.554-13.563 7.486 0 13.555 6.073 13.555 13.563S27.036 34.019 19.55 34.019 5.996 27.946 5.996 20.456z" fill="#E2A610"/><path d="M4.644 20.258s-.589-2.984.981-6.679c2.317-5.45 7.32-8.451 12.702-8.684C22.363 4.72 24.69 6.05 24.69 6.05s-3.283-.27-5.548-.17c-5.461.243-9.256 2.735-11.857 6.996-2.139 3.512-2.642 7.382-2.642 7.382z" fill="#FFF59D"/></svg>