<svg width="51" height="22" fill="none" xmlns="http://www.w3.org/2000/svg"><path d="M46.433 3.167c-3.848-1.083-6.675 2.062-6.675 2.062S39.43 1.662 36.14.542c-3.947-1.355-8.114.802-8.362 6.393-.281 6.37 8.146 14.732 8.146 14.732s10.462-2.812 13.889-8.774c2.789-4.851-.47-8.91-3.38-9.726z" fill="#F44336"/><path d="M46.433 3.163a5.216 5.216 0 00-1.449-.174 8.863 8.863 0 013.15 3.722c.661 1.59.834 3.642-.422 6.094-2.723 5.329-11.109 8.629-11.718 8.858.764-.215 10.542-3.028 13.837-8.76 2.77-4.865-.488-8.925-3.398-9.74zm-6.68 2.642a8.492 8.492 0 00-.215-1.453 4.889 4.889 0 00-2.344-3.281A7.085 7.085 0 0034.48.157s1.406.426 2.41 2.371a8.598 8.598 0 01.89 3.277c-.005.417.07.825.22 1.214a.938.938 0 001.003.553c.642-.164.783-.966.75-1.767z" fill="#C62828"/><path d="M30.642 3.57c.876-1.088 2.315-2.124 3.693-1.168.732.51.74 1.96-.154 2.61-1.51 1.107-1.58 1.834-1.749 2.443-.206.726-.337 1.594-.998 1.96-.66.365-1.242 0-1.589-1.046a4.957 4.957 0 01.797-4.8z" fill="#FF847A"/><path d="M15.09.448c-3.802 1.232-4.411 5.418-4.411 5.418s-2.25-2.812-5.625-1.903c-4.026 1.06-6.3 5.165-3.426 9.95 3.328 5.485 14.971 7.758 14.971 7.758s7.148-8.137 6.698-14.999c-.37-5.587-5.334-7.157-8.207-6.224z" fill="#F44336"/><path d="M15.09.447c-.464.15-.91.366-1.317.638A8.869 8.869 0 0118.46 2.44c1.434.937 2.714 2.568 3.032 5.31.69 5.948-4.467 13.34-4.865 13.88.52-.6 7.097-8.363 6.665-14.963-.365-5.582-5.33-7.152-8.202-6.22zm-4.088 5.911a7.03 7.03 0 00-.984-1.092 4.888 4.888 0 00-3.75-1.463 7.04 7.04 0 00-2.766.741s1.407-.427 3.319.642a8.596 8.596 0 012.56 2.269c.224.351.515.651.857.89a.94.94 0 001.139-.098c.417-.506.094-1.247-.375-1.89z" fill="#C62828"/><path d="M2.19 9.556a4.62 4.62 0 01.206-1.158A2.567 2.567 0 013.89 6.645c.717-.225 1.71-.066 2.095.651.342.638.094 1.407-.093 2.11a13.507 13.507 0 00-.282 2.456 1.223 1.223 0 01-1.209 1.232c-.637 0-1.134-.553-1.49-1.082a4.094 4.094 0 01-.722-2.456z" fill="#FF847A"/></svg>