<svg width="40" height="40" fill="none" xmlns="http://www.w3.org/2000/svg"><path d="M13.614 34.08l-2.825-8.672 4.172.247.206 2.44c.255.48.858.7 1.113 1.18.131.247.153.539.117.816-.075.575-.378 1.197-.083 1.7.347.592 1.214.761 1.186 1.575-.028.745-3.525 1.756-3.886.714z" fill="#C62828"/><path d="M13.19 35.95l-.263.091a1.994 1.994 0 01-2.539-1.23L7.11 25.358h4.517c.16.462.216.63.38 1.092.15.42.356.628.223 1.072-.134.439-.245.939-.017 1.367.255.48.858.7 1.114 1.18.13.248.152.54.116.817-.075.575-.377 1.197-.083 1.7.347.591 1.214.76 1.186 1.575-.025.744-.655 1.547-1.355 1.788z" fill="#F44336"/><path d="M14.547 34.16c-.372 1.183-1.3 1.594-2.27 1.658a2.456 2.456 0 01-1.588-.462c1.344 2.023 4.794.764 5.494.381 1.07-.586 1.247-1.18 1.317-2.3.005-.07-.111-.305-.33-.128-.334.267-.712.364-1.134.45-.52.106-.797.075-1.008.09-.273.016-.409.077-.48.31zm-1.274-2.44c-.106.434.152.492.414.497.636.017 1.475-.238 1.888-.425.159-.07.306-.16.44-.264a.443.443 0 00.174-.316c.02-.364.159-.75.206-1.12.02-.152.02-.31-.006-.46-.02-.12-.158-.181-.264-.123-.266.147-.741.392-1.058.456-.628.128-1.014.116-1.286.122a.342.342 0 00-.336.383c.02.14.017.28 0 .417-.036.272-.106.558-.172.833z" fill="#A12524"/><path d="M7.11 25.358l.87 2.523s.53-1.181 2.641-.964c1.43.147 1.858.647 1.858.647l.092-2.133-5.46-.073z" fill="#C62828"/><path d="M30.88 32.959s-9.393-6.954-17.202-7.162a260.305 260.305 0 00-6.382-.097c-1.839.002-3.964-2.612-3.964-7.212 0-4.601 2.392-7.704 4.231-7.704.272 0 3.181.172 6.698.072 8.273-.233 16.619-6.84 16.619-6.84V32.96z" fill="#E0E0E0"/><path d="M24.486 22.63c-.314.561-.32 1.839-.236 3.022a1.16 1.16 0 01-1.578 1.164c-5.4-2.105-9.835-1.916-9.835-1.916l.214.88.625.017c4.718.125 10.013 2.71 13.466 4.741 0 0-1.067-1.533-1.611-3.627-.564-2.184-1.045-4.28-1.045-4.28z" fill="#BDBDBD"/><path d="M12.842 26.503l-.209.36.892 1.742a.535.535 0 00.575.284l1.505-.303s.42-.597.5-.733c.08-.136.05-.217.05-.217l-1.71.328c-.004 0-1.548-1.444-1.603-1.461z" fill="#353738"/><path d="M13.981 27.77l-1.155-1.259 2.08-.008 1.178 1.02c.142.15.05.335-.153.369l-1.17.183a.837.837 0 01-.78-.306z" fill="#616161"/><path d="M11.74 18.488c0-2.625.858-5.57 1.933-7.618-3.247.067-5.852-.086-6.11-.086-1.84 0-4.231 3.103-4.231 7.704 0 4.6 2.125 7.212 3.966 7.212.587 0 3.023.008 6.38.097l.062.003c-1.245-2.234-2-4.695-2-7.312z" fill="#F44336"/><path d="M30.88 32.959c3.198 0 5.79-6.48 5.79-14.471 0-7.993-2.592-14.472-5.79-14.472-3.197 0-5.789 6.48-5.789 14.472 0 7.992 2.592 14.47 5.79 14.47z" fill="#2F7889"/><path d="M25.346 14.254a34.983 34.983 0 00-.253 4.237c0 7.992 2.592 14.47 5.79 14.47s5.79-6.478 5.79-14.47c0-1.476-.09-2.895-.253-4.237H25.346z" fill="url(#paint0_linear_15_708)"/><path d="M30.88 33.792c-3.775 0-6.622-6.578-6.622-15.304 0-8.726 2.847-15.305 6.623-15.305 3.775 0 5.79 6.581 5.79 15.305 0 8.726-2.015 15.304-5.79 15.304zm0-28.942c-2.344 0-4.955 5.6-4.955 13.638 0 8.037 2.611 13.638 4.956 13.638s4.956-5.601 4.956-13.638c0-8.037-2.611-13.638-4.956-13.638z" fill="#E0E0E0"/><path d="M27.102 8.678c-.25.678-1.153 2.18-1.57 7.125-.013.167-.105.9-.513.9-.272 0-.353-.411-.353-.978 0-2.208.367-4.644 1.22-7.05.483-1.358 1.563-.93 1.216.003z" fill="#fff"/><path d="M26.085 15.138l5.25.61v5.528l-5.21.939c-.345-4.37-.04-7.077-.04-7.077z" fill="url(#paint1_radial_15_708)"/><path d="M31.336 21.279c.724 0 1.311-1.237 1.311-2.764 0-1.526-.587-2.764-1.311-2.764s-1.311 1.238-1.311 2.764c0 1.527.587 2.764 1.31 2.764z" fill="#E0E0E0"/><path d="M18.198 12.648c1.761-.233 3.5-.77 4.99-1.739-.865 2.32-1.276 5.114-.956 7.572-.823-.405-1.653-.81-2.531-1.072-.733-.217-1.492-.33-2.25-.42-1.909-.23-3.676-.266-5.596-.23.056 0 .209-1.297.442-2.264.234-.966.473-1.527.473-1.527s3.758-.098 5.428-.32z" fill="#fff"/><path d="M12.02 12.848c-2.694.08-5.702.117-5.702.117s-1.359 1.183-1.6 3.791c0 0 3.208 0 6.122.053.205-1.878.81-3.264 1.18-3.96z" fill="#FF7555"/><defs><radialGradient id="paint1_radial_15_708" cx="0" cy="0" r="1" gradientUnits="userSpaceOnUse" gradientTransform="matrix(5.81014 0 0 9.88595 30.337 18.959)"><stop offset=".416" stop-color="#82AEC0"/><stop offset="1" stop-color="#7FA9BB" stop-opacity="0"/></radialGradient><linearGradient id="paint0_linear_15_708" x1="30.881" y1="31.066" x2="30.881" y2="14.785" gradientUnits="userSpaceOnUse"><stop stop-color="#353738"/><stop offset="1" stop-color="#353738" stop-opacity="0"/></linearGradient></defs></svg>