<svg width="40" height="39" viewBox="0 0 40 39" fill="none" xmlns="http://www.w3.org/2000/svg">
<path d="M35.3223 18.6526C35.3223 18.6526 39.0016 18.1815 39.1137 18.4411C39.2932 18.8609 36.6171 21.6909 36.6171 21.6909L35.3223 18.6526Z" fill="#5C6063"/>
<path d="M21.9385 19.7681C21.9385 19.7681 23.8647 17.483 27.4446 16.701C31.0246 15.919 35.3833 17.3612 36.3448 19.797C37.3832 22.4282 37.0082 25.38 35.2615 27.4985C33.4251 29.7259 30.5983 32.1008 25.8453 31.7387C22.0731 31.4534 20.8809 29.8734 20.8809 29.8734L21.9385 19.7681Z" fill="#FCD41E"/>
<path d="M31.2328 22.4154C32.175 24.8929 32.3769 27.3479 32.3449 28.5818C32.316 29.8157 32.2231 30.2355 32.2231 30.2355C32.2231 30.2355 33.4858 29.4247 34.2679 28.6715C34.9441 28.0209 35.4409 27.319 35.4409 27.319C35.4409 27.319 35.771 23.7391 34.4794 20.7328C33.1878 17.7266 30.5116 16.5343 30.5116 16.5343C30.5116 16.5343 29.595 16.3388 28.5566 16.4606C27.531 16.5792 26.2715 17.0311 26.2715 17.0311C26.2715 17.0311 29.6976 18.3836 31.2328 22.4154Z" fill="#414340"/>
<path d="M23.4701 18.4124C23.4701 18.4124 25.6655 19.5854 27.0788 22.9249C28.582 26.4728 28.2807 31.7097 28.2807 31.7097C28.2807 31.7097 27.3481 31.854 26.3257 31.8315C25.6655 31.8155 24.4892 31.5751 24.4892 31.5751C24.4892 31.5751 24.8258 27.3478 23.6207 24.5499C23.0855 23.3095 21.7266 21.7519 21.7266 21.7519L21.9221 19.6463L23.4701 18.4124Z" fill="#414340"/>
<path d="M12.282 26.6555C12.282 26.6555 10.6891 27.3478 9.24367 27.6491C7.80144 27.9503 6.59638 27.9792 6.17653 28.0112C5.75668 28.0401 5.21504 28.2227 5.30478 29.1554C5.3817 29.9662 6.56753 29.8829 7.28865 29.8477C8.46166 29.7868 10.1154 29.4855 11.5609 28.9759C13.0063 28.4663 14.4774 27.6811 14.4774 27.6811L12.282 26.6555Z" fill="#5A6066"/>
<path opacity="0.7" d="M20.7188 18.8643C20.7188 18.8643 27.6671 10.0218 28.6158 8.75902C29.5644 7.49627 30.9618 5.23998 32.5418 5.19511C34.1219 5.15024 35.5641 6.59247 36.2852 8.71416C37.0064 10.8358 37.0512 12.9735 35.9231 14.3998C34.3879 16.3388 30.1477 19.3194 26.8082 20.1751C23.4686 21.0308 21.5296 21.2584 21.5296 21.2584L20.7188 18.8643Z" fill="#6DA3AF"/>
<path opacity="0.7" d="M20.4467 18.2328C20.4467 18.2328 25.3183 9.74924 26.3567 7.7205C27.3951 5.68856 28.3405 3.79442 28.0713 2.50924C27.8534 1.47724 25.815 0.409987 23.0171 0.817017C20.2192 1.22405 17.809 2.36822 17.4693 4.96744C17.1072 7.7205 17.2898 15.6143 17.2898 15.6143L16.8828 19.4955L20.4916 20.0372L20.4467 18.2328Z" fill="#A1C5CB"/>
<path d="M4.00227 13.1563C4.00227 13.1563 2.13058 11.8487 1.45433 14.6466C0.669117 17.8804 3.07604 17.3067 3.07604 17.3067L4.00227 13.1563Z" fill="black"/>
<path d="M9.39353 9.9769C9.39353 9.9769 8.94163 7.74304 8.17564 6.163C7.40966 4.58295 6.37445 3.5157 5.87448 3.25289C5.35528 2.98368 3.96753 2.82022 2.60222 2.77856C1.67598 2.74971 0.775391 2.73369 0.775391 3.43237C0.775391 4.24643 1.8138 4.35219 2.53491 4.42591C3.57332 4.53167 4.67262 4.66628 5.06042 4.76563C5.78154 4.94511 6.70777 6.7495 6.99942 7.56356C7.29428 8.37442 7.83271 10.4737 7.83271 10.4737L9.39353 9.9769Z" fill="#848484"/>
<path d="M18.2813 16.925L19.0921 18.3224C19.0921 18.3224 20.4446 17.1943 20.6498 17.2167C20.8517 17.2391 21.2138 19.1108 21.2138 19.1108C21.2138 19.1108 22.4766 18.7935 22.6561 18.9089C22.8355 19.0211 22.7458 20.3768 22.7458 20.3768C22.7458 20.3768 24.3258 20.4665 24.3707 20.6011C24.4156 20.7357 23.672 21.9985 23.672 21.9985C23.672 21.9985 24.9348 22.7645 24.9124 22.9696C24.8899 23.1715 23.8291 24.008 23.8291 24.008C23.8291 24.008 24.8226 25.1362 24.7329 25.4278C24.6431 25.7195 23.2201 25.79 23.2201 25.79C23.2201 25.79 23.5599 27.2578 23.4669 27.3924C23.3772 27.5271 21.7971 27.5046 21.7971 27.5046C21.7971 27.5046 22.5631 28.7449 22.4509 28.8795C22.3388 29.0142 20.0056 29.4949 20.0056 29.4949C20.0056 29.4949 18.8325 30.8025 17.9832 30.9756C17.1435 31.1455 16.7589 30.9532 16.7589 30.9532L15.775 29.9821C15.775 29.9821 13.586 30.184 13.3841 30.0494C13.1822 29.9148 13.1373 27.3412 13.1373 27.3412C13.1373 27.3412 11.74 27.4469 11.647 27.2739C11.5541 27.1008 11.8489 25.6714 11.8489 25.6714L15.5026 19.8512L18.2813 16.925Z" fill="#FE8D00"/>
<path d="M15.3257 28.2484C14.454 27.6298 13.4508 28.8445 12.9124 29.2644C12.1015 29.8957 11.3324 31.0015 8.69467 31.7001C7.14347 32.1104 7.2268 32.6712 7.38705 33.1904C7.58576 33.8443 8.53763 33.777 9.68821 33.4597C10.8388 33.1424 12.1785 32.4245 12.7105 32.0399C13.3643 31.5655 14.9219 30.1009 15.2136 29.8284C15.5084 29.5592 16.0244 28.7452 15.3257 28.2484Z" fill="#848484"/>
<path d="M17.7616 28.9469C17.0277 28.6488 16.5437 29.1712 16.1591 30.2545C15.7745 31.3378 15.0534 33.3441 14.7169 34.1132C14.3772 34.8792 13.5086 36.3183 14.4701 36.799C15.5085 37.3182 15.9828 36.392 16.2745 35.7606C16.5661 35.1292 17.4475 33.03 17.6943 32.1967C17.9411 31.3634 18.0789 30.9115 18.1911 30.5942C18.3032 30.2801 18.5981 29.2866 17.7616 28.9469Z" fill="#848484"/>
<path d="M20.2686 28.8349C19.243 28.9727 19.4353 30.1874 19.5026 31.0687C19.5699 31.9501 19.7045 34.7897 19.6596 35.3762C19.6148 35.9627 19.6596 36.9562 20.698 36.9338C21.7365 36.9114 21.6916 35.7608 21.714 35.3986C21.7365 35.0365 21.557 31.5623 21.5345 31.0206C21.5089 30.4822 21.5986 28.6554 20.2686 28.8349Z" fill="#848484"/>
<path d="M4.52212 11.8935C2.90682 13.5697 1.81073 18.5085 2.82991 21.3898C3.86831 24.3223 5.98679 26.3318 9.77826 26.4888C13.5697 26.6459 16.8837 24.2774 18.0791 20.1943C19.2233 16.2843 17.7682 11.4672 13.6114 9.99613C10.2975 8.82632 6.91302 9.41282 4.52212 11.8935Z" fill="#FEBB00"/>
<path d="M13.7712 16.9702C13.7712 18.6784 12.4283 20.063 10.7713 20.063C9.11436 20.063 7.77148 18.9797 7.77148 16.9702C7.77148 15.2619 9.11436 13.8582 10.7713 13.8774C12.6206 13.8998 13.7712 15.2619 13.7712 16.9702Z" fill="black"/>
<path d="M3.73078 21.8801C3.96795 21.6429 4.5192 20.7744 5.08328 21.3609C5.64735 21.9474 4.65381 22.6909 4.47434 22.8512C4.23396 23.0627 3.75322 23.1909 3.50323 22.8288C3.33337 22.5788 3.43913 22.1717 3.73078 21.8801Z" fill="#FE8D00"/>
<path d="M8.22186 2.03486C8.13853 2.65982 8.45583 2.85212 9.28271 3.07326C10.0327 3.27197 11.5582 3.63413 11.9236 3.88412C12.2184 4.08603 12.9396 5.9385 13.119 8.21402C13.212 9.39344 13.1639 10.5152 13.119 11.3933C13.0806 12.1241 13.2312 12.6112 13.8177 12.701C14.3497 12.7843 14.7792 12.4221 14.8561 11.3933C14.9459 10.153 15.0164 9.48959 14.8561 7.87429C14.7343 6.64679 14.526 5.63403 14.135 4.31038C13.8145 3.2271 13.3113 2.647 12.805 2.27843C12.1928 1.83935 10.866 1.57975 9.78268 1.46758C8.87247 1.37784 8.3116 1.36502 8.22186 2.03486Z" fill="#848484"/>
</svg>
