<svg width="167" height="156" viewBox="0 0 167 156" fill="none" xmlns="http://www.w3.org/2000/svg">
<g clip-path="url(#clip0_25_437)">
<path d="M76.6602 0.625878C40.1066 -0.207411 -0.210751 30.1104 0.566986 79.219C1.24751 122.397 33.6902 155.076 75.7297 155.757C117.769 156.437 155.017 128.647 155.239 78.9967C155.475 28.9577 116.866 1.5425 76.6602 0.625878Z" fill="#FF2A23"/>
<path d="M76.7736 18.1512C47.7751 19.1373 18.5128 40.775 17.8323 78.9258C17.1518 117.077 50.4972 138.325 76.7736 138.325C110.133 138.325 138.006 112.049 137.312 77.0925C136.632 42.1499 110.355 17.0124 76.7736 18.1512Z" fill="#FFFDFE"/>
<path d="M77.4517 33.0125C51.1753 32.4153 31.7597 55.6363 31.5236 77.7879C31.3014 100.412 45.4534 123.48 76.9934 124.619C108.533 125.758 123.366 100.634 123.824 79.385C124.296 58.1362 107.381 33.693 77.4517 33.0125Z" fill="#FF2A23"/>
<path d="M47.4118 78.6201C47.1896 98.494 61.3416 109.924 78.4796 109.924C94.0482 109.924 109.325 100.105 109.325 79.3145C109.325 60.5794 95.1592 49.3855 79.3962 48.705C63.6331 48.0106 47.634 59.4405 47.4118 78.6201Z" fill="white"/>
<path d="M61.4669 78.4676C60.6197 90.3142 70.2581 95.9805 78.9382 95.9805C87.16 95.9805 95.2707 90.578 95.5068 79.6064C95.7151 69.3014 87.6322 63.01 78.9382 62.7045C69.9665 62.399 62.1474 68.8431 61.4669 78.4676Z" fill="#FB2B22"/>
<path d="M81.8007 79.3987L77.1482 81.9819L86.0227 94.6062C86.0227 94.6062 92.8835 95.134 94.4667 93.3424C96.05 91.5508 94.2584 86.2733 94.2584 86.2733L81.8007 79.3987Z" fill="#CC1935"/>
<path d="M110.522 65.6772C109.272 63.094 107.994 61.0247 104.605 61.6635C101.231 62.3024 94.9948 65.8855 93.8282 67.5799C92.7588 69.1354 91.7172 71.0658 91.7172 71.0658C91.7172 71.0658 79.7734 77.5933 77.8846 78.6626C74.9264 80.357 76.968 83.8013 79.0512 83.4124C81.8983 82.8846 94.6198 77.7044 94.6198 77.7044C94.6198 77.7044 97.3141 78.3432 98.8974 78.3432C100.481 78.3432 109.508 73.8851 110.73 73.0657C112.744 71.6908 111.786 68.316 110.522 65.6772Z" fill="#ACB1B5"/>
<path d="M94.2159 86.2456C94.2159 86.2456 93.5493 88.6066 91.1189 91.0509C88.5912 93.5785 85.9941 94.5785 85.9941 94.5785L94.0076 106.328C94.0076 106.328 99.9656 106.758 104.299 102.536C108.632 98.3144 106.743 92.7869 106.743 92.7869L94.2159 86.2456Z" fill="#C8C8C8"/>
<path d="M102.16 118.674L93.9939 106.313C93.9939 106.313 95.3549 105.591 97.1465 104.369C100.438 102.119 102.271 100.327 104.618 96.6609C105.896 94.6888 106.715 92.7722 106.715 92.7722L119.34 99.008C119.34 99.008 119.062 108.757 114.937 113.507C110.812 118.257 102.16 118.674 102.16 118.674Z" fill="#CC1935"/>
<path d="M102.159 118.675L109.173 129.188C109.173 129.188 118.325 130.091 125.825 121.105C133.324 112.119 131.324 104.731 131.324 104.731L119.339 98.9951C119.339 98.9951 117.006 104.606 112.367 109.995C107.728 115.383 102.159 118.675 102.159 118.675Z" fill="#C8C8C8"/>
<path d="M119.562 144.73L109.188 129.203C109.188 129.203 117.007 124.633 122.562 118.064C128.325 111.245 131.339 104.76 131.339 104.76L148.13 113.106C148.13 113.106 144.352 122.87 135.978 131.689C127.784 140.285 119.562 144.73 119.562 144.73Z" fill="#CC1935"/>
<path d="M102.452 69.788C104.022 72.7184 106.619 72.7461 109.369 71.5795C112.119 70.4129 125.104 61.2329 125.104 61.2329C125.104 61.2329 142.742 70.1074 154.144 65.6632C165.546 61.2329 165.227 49.1918 165.227 49.1918L158.477 44.9143C158.477 44.9143 163.394 42.3589 164.977 41.4145C165.755 40.9423 166.907 39.1924 166.268 37.623C165.768 36.4008 163.852 35.9842 162.269 36.6231C160.685 37.2619 156.116 38.6924 156.116 38.6924C156.116 38.6924 157.936 31.1233 157.616 30.7067C157.297 30.2901 154.019 28.5957 154.019 28.5957C154.019 28.5957 143.353 28.5957 141.978 29.1235C140.603 29.6512 130.048 40.109 130.048 40.109L124.979 50.4557L122.812 55.0665C122.812 55.0665 108.022 61.6912 105.799 62.6356C103.591 63.5939 100.522 66.2187 102.452 69.788Z" fill="#006CA9"/>
<path d="M125.964 53.7899C125.964 53.7899 132.186 49.2901 136.616 47.068C141.046 44.8459 149.268 42.1378 151.699 41.8461C154.129 41.5544 155.129 42.2072 155.559 43.346C155.99 44.4849 154.559 45.9153 153.337 46.5681C152.129 47.2069 145.685 50.1373 138.546 53.9288C131.408 57.7203 128.019 60.4979 125.13 61.1506C123.672 61.484 121.797 60.1785 121.686 57.998C121.603 56.3037 121.936 54.8871 123.047 51.6372C124.408 47.6375 127.394 41.6239 129.908 37.7074C133.63 31.9161 138.991 27.9857 144.921 26.9163C150.851 25.8469 155.712 27.3469 156.934 28.3468C158.143 29.3468 158.073 30.3745 157.643 30.7217C157.212 31.0689 156.573 31.3467 153.351 30.2078C151.115 29.4162 143.991 29.4162 138.991 33.1382C133.936 36.888 132.7 39.2073 130.491 43.2905C128.283 47.3736 125.964 53.7899 125.964 53.7899Z" fill="#1F87FD"/>
</g>
<defs>
<clipPath id="clip0_25_437">
<rect width="167" height="156" fill="white"/>
</clipPath>
</defs>
</svg>
