<svg width="64" height="64" viewBox="0 0 64 64" fill="none" xmlns="http://www.w3.org/2000/svg">
<g clip-path="url(#clip0_143_477)">
<path d="M29.3786 2.36482C15.37 2.04547 -0.0809189 13.6643 0.217136 32.4843C0.477934 49.0317 12.9111 61.5553 29.022 61.8161C45.1329 62.0769 59.4076 51.4268 59.4928 32.3992C59.5833 13.2225 44.787 2.7161 29.3786 2.36482Z" fill="#FF2A23"/>
<path d="M29.4223 9.08115C18.3091 9.45904 7.0948 17.7513 6.83401 32.372C6.57321 46.9926 19.3523 55.1359 29.4223 55.1359C42.2067 55.1359 52.8888 45.0659 52.6227 31.6694C52.3619 18.2783 42.2919 8.64471 29.4223 9.08115Z" fill="#FFFDFE"/>
<path d="M29.6823 14.7765C19.6123 14.5477 12.1715 23.4467 12.0811 31.936C11.9959 40.6062 17.4194 49.4467 29.5066 49.8831C41.5938 50.3196 47.2781 40.6913 47.4538 32.5481C47.6347 24.4048 41.1521 15.0373 29.6823 14.7765Z" fill="#FF2A23"/>
<path d="M18.1699 32.2549C18.0848 39.8712 23.5083 44.2516 30.0762 44.2516C36.0426 44.2516 41.8972 40.4886 41.8972 32.521C41.8972 25.3411 36.4684 21.0512 30.4274 20.7904C24.3865 20.5243 18.2551 24.9046 18.1699 32.2549Z" fill="white"/>
<path d="M23.5561 32.1964C23.2314 36.7364 26.9252 38.908 30.2517 38.908C33.4026 38.908 36.5108 36.8376 36.6013 32.6328C36.6812 28.6836 33.5835 26.2726 30.2517 26.1555C26.8134 26.0384 23.8169 28.508 23.5561 32.1964Z" fill="#FB2B22"/>
<path d="M31.3489 32.5532L29.5659 33.5432L32.9669 38.3813C32.9669 38.3813 35.5962 38.5835 36.203 37.8969C36.8097 37.2103 36.1231 35.1878 36.1231 35.1878L31.3489 32.5532Z" fill="#CC1935"/>
<path d="M42.3555 27.2948C41.8765 26.3048 41.3868 25.5118 40.0881 25.7566C38.7948 26.0014 36.405 27.3746 35.958 28.0239C35.5481 28.6201 35.149 29.3599 35.149 29.3599C35.149 29.3599 30.5717 31.8614 29.8478 32.2712C28.7142 32.9206 29.4966 34.2405 30.2949 34.0915C31.386 33.8892 36.2613 31.904 36.2613 31.904C36.2613 31.904 37.2939 32.1488 37.9006 32.1488C38.5074 32.1488 41.967 30.4403 42.4353 30.1263C43.2071 29.5994 42.8398 28.306 42.3555 27.2948Z" fill="#ACB1B5"/>
<path d="M36.1069 35.1771C36.1069 35.1771 35.8514 36.0819 34.92 37.0187C33.9513 37.9874 32.9561 38.3706 32.9561 38.3706L36.0271 42.8733C36.0271 42.8733 38.3104 43.0383 39.971 41.4203C41.6316 39.8023 40.9077 37.684 40.9077 37.684L36.1069 35.1771Z" fill="#C8C8C8"/>
<path d="M39.1511 47.6048L36.0215 42.8678C36.0215 42.8678 36.5431 42.591 37.2297 42.1227C38.4911 41.2604 39.1936 40.5739 40.0931 39.1687C40.5828 38.413 40.8968 37.6785 40.8968 37.6785L45.7349 40.0682C45.7349 40.0682 45.6284 43.8046 44.0477 45.6248C42.4669 47.4451 39.1511 47.6048 39.1511 47.6048Z" fill="#CC1935"/>
<path d="M39.1509 47.6051L41.8387 51.6341C41.8387 51.6341 45.3462 51.9801 48.2203 48.5365C51.0944 45.0929 50.3279 42.2614 50.3279 42.2614L45.7347 40.0632C45.7347 40.0632 44.8405 42.2135 43.0628 44.2786C41.2852 46.3437 39.1509 47.6051 39.1509 47.6051Z" fill="#C8C8C8"/>
<path d="M45.8201 57.5902L41.8442 51.6398C41.8442 51.6398 44.8408 49.8887 46.9697 47.3712C49.1785 44.7579 50.3335 42.2723 50.3335 42.2723L56.7683 45.4711C56.7683 45.4711 55.3206 49.2128 52.1112 52.5925C48.9709 55.8871 45.8201 57.5902 45.8201 57.5902Z" fill="#CC1935"/>
<path d="M39.2633 28.8701C39.8647 29.9931 40.86 30.0038 41.9138 29.5567C42.9677 29.1096 47.9441 25.5915 47.9441 25.5915C47.9441 25.5915 54.7036 28.9925 59.0733 27.2894C63.443 25.5915 63.3206 20.977 63.3206 20.977L60.7339 19.3377C60.7339 19.3377 62.618 18.3584 63.2248 17.9964C63.5228 17.8155 63.9646 17.1449 63.7198 16.5434C63.5281 16.0751 62.7937 15.9154 62.1869 16.1602C61.5801 16.405 59.8291 16.9533 59.8291 16.9533C59.8291 16.9533 60.5263 14.0525 60.4039 13.8929C60.2815 13.7332 59.0254 13.0839 59.0254 13.0839C59.0254 13.0839 54.9378 13.0839 54.4109 13.2861C53.8839 13.4884 49.8389 17.4961 49.8389 17.4961L47.8962 21.4613L47.0659 23.2284C47.0659 23.2284 41.3976 25.7672 40.546 26.1291C39.6997 26.4963 38.5235 27.5023 39.2633 28.8701Z" fill="#006CA9"/>
<path d="M48.2734 22.739C48.2734 22.739 50.6578 21.0146 52.3556 20.163C54.0535 19.3114 57.2044 18.2735 58.1358 18.1618C59.0672 18.05 59.4504 18.3001 59.6154 18.7366C59.7804 19.173 59.2322 19.7212 58.7638 19.9714C58.3008 20.2162 55.8312 21.3392 53.0955 22.7922C50.3597 24.2453 49.0611 25.3097 47.954 25.5599C47.3952 25.6876 46.6766 25.1873 46.6341 24.3517C46.6021 23.7024 46.7299 23.1595 47.1557 21.914C47.6772 20.3812 48.8216 18.0766 49.7849 16.5757C51.2113 14.3562 53.2658 12.85 55.5384 12.4402C57.8111 12.0303 59.674 12.6052 60.1423 12.9884C60.6054 13.3716 60.5788 13.7654 60.4138 13.8985C60.2488 14.0316 60.0039 14.138 58.7691 13.7016C57.9122 13.3982 55.1818 13.3982 53.2658 14.8246C51.3284 16.2617 50.8547 17.1505 50.0085 18.7153C49.1622 20.2801 48.2734 22.739 48.2734 22.739Z" fill="#1F87FD"/>
</g>
<defs>
<clipPath id="clip0_143_477">
<rect width="64" height="59.7844" fill="white" transform="translate(0 2.125)"/>
</clipPath>
</defs>
</svg>
