<svg width="40" height="40" viewBox="0 0 40 40" fill="none" xmlns="http://www.w3.org/2000/svg">
<path d="M36.6707 3.33362H3.33325V36.6711H36.6707V3.33362Z" fill="white"/>
<path fill-rule="evenodd" clip-rule="evenodd" d="M3.76953 8.70959H36.6709V9.26512H3.76953V8.70959Z" fill="#B0BEC5"/>
<path fill-rule="evenodd" clip-rule="evenodd" d="M3.74194 14.0769H36.6711V14.6324H3.74194V14.0769Z" fill="#B0BEC5"/>
<path fill-rule="evenodd" clip-rule="evenodd" d="M3.71143 19.4442H36.6711V19.9997H3.71143V19.4442Z" fill="#B0BEC5"/>
<path fill-rule="evenodd" clip-rule="evenodd" d="M3.68335 24.8115H36.6708V25.367H3.68335V24.8115Z" fill="#B0BEC5"/>
<path fill-rule="evenodd" clip-rule="evenodd" d="M3.65283 30.1818H36.6708V30.7373H3.65283V30.1818Z" fill="#B0BEC5"/>
<path d="M22.3409 36.0908H17.6633V23.0141C17.6633 22.6363 17.9689 22.3307 18.3466 22.3307H21.6548C22.0325 22.3307 22.3381 22.6363 22.3381 23.0141V36.0908H22.3409Z" fill="#F44336"/>
<path d="M12.9787 36.0904H8.30396V17.6075C8.30396 17.2297 8.60949 16.9241 8.98725 16.9241H12.2954C12.6732 16.9241 12.9787 17.2297 12.9787 17.6075V36.0904Z" fill="#9CCC65"/>
<path d="M31.0139 36.0907H27.7058C27.328 36.0907 27.0225 35.7851 27.0225 35.4073V9.40681C27.0225 9.02898 27.328 8.72339 27.7058 8.72339H31.0139C31.3917 8.72339 31.6972 9.02898 31.6972 9.40681V35.4073C31.6972 35.7851 31.3917 36.0907 31.0139 36.0907Z" fill="#0091EA"/>
<path d="M36.6707 35.5599H4.4445V3.33362H3.33325V36.6711H36.6707V35.5599Z" fill="#B0BEC5"/>
<path d="M36.1151 3.88924V36.1155H3.88888V3.88924H36.1151ZM36.6707 3.33362H3.33325V36.6711H36.6707V3.33362Z" fill="#B0BEC5"/>
</svg>
