<svg width="233" height="233" viewBox="0 0 233 233" fill="none" xmlns="http://www.w3.org/2000/svg">
<g clip-path="url(#clip0_128_455)">
<path d="M114.761 0.170457C60.0396 -1.07698 -0.315662 44.309 0.848614 117.825C1.86736 182.463 50.4343 231.383 113.368 232.402C176.301 233.421 232.061 191.819 232.394 117.492C232.748 42.5834 174.95 1.54264 114.761 0.170457Z" fill="#FF2A23"/>
<path d="M114.931 26.406C71.5197 27.8821 27.7138 60.274 26.695 117.386C25.6763 174.498 75.5946 206.308 114.931 206.308C164.87 206.308 206.597 166.972 205.557 114.642C204.538 62.3323 165.202 24.7012 114.931 26.406Z" fill="#FFFDFE"/>
<path d="M115.946 48.6534C76.6096 47.7594 47.5443 82.5213 47.1909 115.682C46.8582 149.55 68.0439 184.084 115.259 185.788C162.475 187.493 184.679 149.883 185.366 118.073C186.072 86.2636 160.749 49.6721 115.946 48.6534Z" fill="#FF2A23"/>
<path d="M70.9755 116.928C70.6429 146.68 91.8286 163.79 117.484 163.79C140.791 163.79 163.66 149.091 163.66 117.968C163.66 89.9212 142.454 73.1639 118.856 72.1452C95.259 71.1056 71.3082 88.2163 70.9755 116.928Z" fill="white"/>
<path d="M92.016 116.7C90.7478 134.434 105.176 142.917 118.171 142.917C130.479 142.917 142.62 134.829 142.974 118.405C143.286 102.978 131.186 93.56 118.171 93.1026C104.74 92.6452 93.0347 102.292 92.016 116.7Z" fill="#FB2B22"/>
</g>
<defs>
<clipPath id="clip0_128_455">
<rect width="233" height="233" fill="white"/>
</clipPath>
</defs>
</svg>
