<svg width="40" height="40" viewBox="0 0 40 40" fill="none" xmlns="http://www.w3.org/2000/svg">
<path d="M35.634 4.35881C34.9729 3.69773 34.0924 3.33386 33.1591 3.33386C32.2258 3.33386 31.3453 3.69773 30.6842 4.35881C29.3204 5.7254 29.3204 7.94751 30.6842 9.31411C31.3453 9.97518 32.2258 10.3391 33.1591 10.3391C34.0952 10.3391 34.9729 9.97518 35.6368 9.31411C37.0006 7.94751 37.0006 5.7254 35.634 4.35881ZM31.7758 5.4532C32.1453 5.08377 32.6369 4.881 33.1563 4.881C33.6757 4.881 34.1702 5.08377 34.5396 5.4532C35.3034 6.21705 35.3034 7.45865 34.5396 8.21972C34.1702 8.58914 33.6785 8.79191 33.1563 8.79191C32.6341 8.79191 32.1425 8.58914 31.7758 8.21972C31.0148 7.45865 31.0148 6.21705 31.7758 5.4532Z" fill="#E2A610"/>
<path d="M31.5333 10.8201L29.1807 8.46462L30.8584 6.78416C31.2306 6.41195 31.8333 6.41195 32.2083 6.78416L33.2138 7.78966C33.586 8.16186 33.586 8.76461 33.2138 9.13681L31.5333 10.8201Z" fill="#FFCA28"/>
<path d="M32.1388 10.212C32.1388 10.212 32.5083 9.47035 31.5167 8.47873C30.525 7.48712 29.7751 7.86765 29.7751 7.86765L29.1807 8.46484L31.5333 10.8203L32.1388 10.212Z" fill="#E2A610"/>
<path d="M19.549 36.671C28.4987 36.671 35.7538 29.4109 35.7538 20.4551C35.7538 11.4993 28.4987 4.23914 19.549 4.23914C10.5994 4.23914 3.34424 11.4993 3.34424 20.4551C3.34424 29.4109 10.5994 36.671 19.549 36.671Z" fill="#FFCA28"/>
<path d="M19.5499 33.6018C26.8056 33.6018 32.6876 27.7161 32.6876 20.4557C32.6876 13.1953 26.8056 7.30957 19.5499 7.30957C12.2941 7.30957 6.41211 13.1953 6.41211 20.4557C6.41211 27.7161 12.2941 33.6018 19.5499 33.6018Z" fill="white"/>
<path d="M21.3307 22.2392L19.5499 29.9374L17.7691 22.2392L10.0737 20.4556L17.7691 18.6748L19.5499 10.9739L21.3307 18.6748L29.0261 20.4556L21.3307 22.2392Z" fill="#E0C3AB"/>
<path d="M22.0672 20.4556L26.251 27.162L19.5502 22.9753L12.8494 27.162L17.0332 20.4556L12.8494 13.752L19.5502 17.9358L26.251 13.752L22.0672 20.4556Z" fill="#B2947C"/>
<path opacity="0.32" d="M16.2377 26.3753C16.2377 26.3753 19.7992 23.85 21.1494 22.4998C22.5023 21.1524 25.3527 17.1881 25.3527 17.1881C26.1167 16.3407 26.9751 14.1988 27.214 13.5765C27.239 13.5098 27.1751 13.4431 27.1085 13.4681C26.564 13.6765 24.8387 14.3571 23.6358 15.1239C22.1328 16.0851 19.4436 18.2826 18.1907 19.5356C16.9377 20.7885 15.3098 23.2027 14.3847 24.5168C13.6123 25.6169 12.6455 27.6616 12.3538 28.2978C12.3205 28.3672 12.3927 28.4395 12.4622 28.4089C13.1178 28.1339 15.2431 27.1976 16.2377 26.3753Z" fill="#212121"/>
<path d="M25.1848 16.7958C25.9792 15.782 26.7319 13.7849 26.9541 13.1655C26.9819 13.0905 26.9097 13.0183 26.8319 13.0433C26.2125 13.2655 24.2181 14.021 23.2043 14.8154C21.996 15.7626 17.9768 19.0652 17.9768 19.0652L20.935 22.0261C20.9378 22.0261 24.2376 18.0041 25.1848 16.7958Z" fill="#F44336"/>
<path d="M13.7259 24.3021C12.9315 25.3159 12.1787 27.313 11.9565 27.9324C11.9287 28.0074 12.0009 28.0796 12.0787 28.0546C12.6981 27.8324 14.6925 27.0769 15.7063 26.2825C16.9146 25.3353 20.9338 22.0327 20.9338 22.0327L17.9729 19.0718C17.9729 19.0718 14.673 23.091 13.7259 24.3021Z" fill="#2F7889"/>
<path d="M19.4539 22.6548C20.6136 22.6548 21.5538 21.7134 21.5538 20.5521C21.5538 19.3909 20.6136 18.4495 19.4539 18.4495C18.2942 18.4495 17.354 19.3909 17.354 20.5521C17.354 21.7134 18.2942 22.6548 19.4539 22.6548Z" fill="#94D1E0"/>
<path d="M27.3539 12.6461C26.9817 12.2739 26.9817 11.6684 27.3539 11.2962L28.3427 10.3074L29.6926 11.6573L28.7066 12.6461C28.3316 13.0211 27.7261 13.0211 27.3539 12.6461Z" fill="#F44336"/>
<path d="M11.7457 28.265C12.1179 28.6372 12.1179 29.2427 11.7457 29.6149L10.7569 30.6038L9.40698 29.2538L10.393 28.265C10.768 27.8928 11.3735 27.8928 11.7457 28.265Z" fill="#B2947C"/>
<path d="M30.5876 20.4555C30.5876 19.9278 31.0154 19.5 31.5432 19.5H32.9375V21.411H31.5432C31.0154 21.411 30.5876 20.9833 30.5876 20.4555Z" fill="#E0C3AB"/>
<path d="M8.51467 20.4555C8.51467 20.9833 8.08692 21.411 7.55917 21.411H6.16479V19.5H7.55917C8.08692 19.5 8.51467 19.9278 8.51467 20.4555Z" fill="#E0C3AB"/>
<path d="M27.3547 28.2647C27.7269 27.8925 28.3324 27.8925 28.7046 28.2647L29.6907 29.2536L28.3408 30.6035L27.3519 29.6147C26.9825 29.2425 26.9825 28.6397 27.3547 28.2647Z" fill="#B2947C"/>
<path d="M11.7469 12.6459C11.3747 13.0181 10.7692 13.0181 10.3969 12.6459L9.41089 11.6571L10.7608 10.3071L11.7497 11.296C12.1191 11.6682 12.1191 12.2737 11.7469 12.6459Z" fill="#B2947C"/>
<path d="M19.5504 31.4988C20.0781 31.4988 20.5059 31.9265 20.5059 32.4543V33.8514H18.5977V32.4543C18.5949 31.9265 19.0226 31.4988 19.5504 31.4988Z" fill="#E0C3AB"/>
<path d="M19.5502 9.4121C19.0225 9.4121 18.5947 8.98435 18.5947 8.4566V7.05945H20.503V8.4566C20.5057 8.98435 20.078 9.4121 19.5502 9.4121Z" fill="#E0C3AB"/>
<path fill-rule="evenodd" clip-rule="evenodd" d="M19.5501 7.72638C12.5247 7.72638 6.82904 13.4253 6.82904 20.4558C6.82904 27.4863 12.5247 33.1851 19.5501 33.1851C26.5755 33.1851 32.2711 27.4863 32.2711 20.4558C32.2711 13.4253 26.5755 7.72638 19.5501 7.72638ZM5.99561 20.4558C5.99561 12.9655 12.0639 6.89294 19.5501 6.89294C27.0363 6.89294 33.1046 12.9655 33.1046 20.4558C33.1046 27.946 27.0363 34.0186 19.5501 34.0186C12.0639 34.0186 5.99561 27.946 5.99561 20.4558Z" fill="#E2A610"/>
<path d="M4.64438 20.2577C4.64438 20.2577 4.05542 17.274 5.62506 13.5791C7.94202 8.12839 12.9454 5.12801 18.3266 4.89465C22.3633 4.71963 24.6913 6.05035 24.6913 6.05035C24.6913 6.05035 21.4076 5.78087 19.1434 5.88089C13.6816 6.12258 9.8867 8.61456 7.28638 12.8762C5.14722 16.3878 4.64438 20.2577 4.64438 20.2577Z" fill="#FFF59D"/>
</svg>
