<svg width="135" height="86" viewBox="0 0 135 86" fill="none" xmlns="http://www.w3.org/2000/svg">
<path d="M51.077 58.5771C49.2058 54.71 47.2931 51.6122 42.2202 52.5686C37.168 53.5249 27.833 58.8889 26.0866 61.4254C24.4857 63.7539 22.9264 66.6438 22.9264 66.6438C22.9264 66.6438 5.04647 76.4154 2.21895 78.0163C-2.20946 80.5528 0.846772 85.7089 3.96537 85.1267C8.22745 84.3367 27.2717 76.5818 27.2717 76.5818C27.2717 76.5818 31.3051 77.5381 33.6752 77.5381C36.0453 77.5381 49.5593 70.8643 51.3888 69.6377C54.4035 67.5794 52.9689 62.5273 51.077 58.5771Z" fill="#ACB1B5"/>
<path d="M38.9971 64.731C41.3464 69.1178 45.2342 69.1594 49.3508 67.413C53.4673 65.6666 72.9066 51.9239 72.9066 51.9239C72.9066 51.9239 99.3107 65.2092 116.38 58.5562C133.449 51.924 132.971 33.8985 132.971 33.8985L122.867 27.4949C122.867 27.4949 130.226 23.6695 132.597 22.2557C133.761 21.5488 135.486 18.9292 134.53 16.5798C133.782 14.7503 130.913 14.1265 128.542 15.0829C126.172 16.0393 119.332 18.1807 119.332 18.1807C119.332 18.1807 122.056 6.84982 121.578 6.2261C121.099 5.60238 116.193 3.06592 116.193 3.06592C116.193 3.06592 100.226 3.06592 98.1673 3.85596C96.109 4.64601 80.3081 20.3014 80.3081 20.3014L72.7195 35.7904L69.4761 42.6929C69.4761 42.6929 47.3341 52.61 44.0076 54.0238C40.7019 55.4584 36.1072 59.3878 38.9971 64.731Z" fill="#006CA9"/>
<path d="M74.1942 40.7815C74.1942 40.7815 83.5084 34.0454 90.1406 30.7189C96.7728 27.3923 109.081 23.3382 112.719 22.9016C116.358 22.465 117.855 23.4421 118.499 25.147C119.144 26.8518 117.002 28.9932 115.173 29.9704C113.364 30.9268 103.717 35.3136 93.0305 40.9894C82.3441 46.6653 77.2712 50.8234 72.9468 51.8006C70.7637 52.2996 67.957 50.3452 67.7907 47.0811C67.6659 44.5446 68.1649 42.424 69.8282 37.559C71.8656 31.5713 76.3356 22.5689 80.0987 16.706C85.6706 8.03625 93.6958 2.1525 102.573 0.551618C111.451 -1.04926 118.728 1.19613 120.557 2.69306C122.366 4.18998 122.262 5.72849 121.618 6.24826C120.973 6.76802 120.017 7.18384 115.193 5.479C111.846 4.29394 101.18 4.29393 93.6958 9.86583C86.128 15.4793 84.2777 18.9513 80.9719 25.0638C77.6662 31.1763 74.1942 40.7815 74.1942 40.7815Z" fill="#1F87FD"/>
</svg>
