<svg width="15" height="16" viewBox="0 0 15 16" fill="none" xmlns="http://www.w3.org/2000/svg">
<g clip-path="url(#clip0_716_529)">
<path d="M1.05017 3.96667C1.05017 3.96667 0.243819 4.03043 0.136305 4.21171C0.0275415 4.39298 0.0212907 4.67176 0.0212907 4.97805C0.0212907 5.28559 0.00878906 5.99068 0.00878906 5.99068L0.201313 6.40448C0.201313 6.40448 0.237568 11.6789 0.237568 11.8427C0.237568 12.0052 0.237568 12.204 0.472597 12.3302C0.707626 12.4565 6.68087 15.3419 6.86715 15.4194C7.14843 15.5356 7.2822 15.4919 7.2822 15.4919L13.9193 4.39173C13.9193 4.39173 13.898 4.08794 13.6217 4.01543C13.463 3.97543 1.05017 3.96667 1.05017 3.96667Z" fill="#F5B03E"/>
<path d="M7.2113 7.61593C7.11004 7.89471 7.15629 10.7776 7.17379 12.8741C7.1913 14.9694 7.12004 15.4032 7.17379 15.4757C7.22755 15.5482 7.37382 15.4782 7.78762 15.2944C8.55647 14.9543 12.2494 13.1266 12.5207 12.9641C12.792 12.8016 13.4546 12.4653 13.5633 12.284C13.6721 12.1027 13.7309 10.4163 13.7671 9.06236C13.8034 7.70719 13.8396 6.6233 13.8396 6.6233L14.0021 6.13574C14.0021 6.13574 13.9671 4.81808 13.9609 4.67306C13.9496 4.43303 13.9234 4.30926 13.8621 4.33927C13.7746 4.38052 13.0445 4.97935 11.1118 5.91946C9.89788 6.50829 7.28131 7.4234 7.2113 7.61593Z" fill="#E07F14"/>
<path d="M7.22866 1.40141C6.68734 1.37641 5.2059 2.23277 3.77823 2.70158C2.35055 3.17039 0.195278 4.11301 0.176525 4.16801C0.159023 4.22177 1.04413 4.61807 1.6092 4.88935C2.28054 5.21064 4.84336 6.42455 5.31217 6.62332C5.78223 6.8221 6.90237 7.28715 7.08239 7.2734C7.33492 7.2559 9.72022 6.31578 10.9304 5.73821C12.1405 5.16064 13.6532 4.26552 13.6732 4.048C13.682 3.95048 11.4479 3.11663 10.334 2.61282C8.18378 1.63894 7.62496 1.42017 7.22866 1.40141Z" fill="#FDD717"/>
<path d="M0.0153723 6.22202C0.0341247 6.45701 0.162891 6.54075 0.490432 6.68324C0.817973 6.82574 7.01 10.0418 7.15251 10.0418C7.29503 10.0418 7.33754 9.53185 7.18127 9.5456C7.09626 9.5531 5.06225 8.5869 3.16202 7.62195C1.54931 6.80449 0.00537109 5.98828 0.00537109 5.98828L0.0153723 6.22202Z" fill="#E37D14"/>
<path d="M14.0032 6.12451C14.0032 6.12451 7.39112 9.48684 7.32612 9.51933C7.26111 9.55183 7.15734 9.54058 7.15734 9.54058L7.15234 10.0418C7.15234 10.0418 7.2136 10.0556 7.28236 10.0343C7.32237 10.0218 13.8119 6.66323 13.8407 6.65323C13.8694 6.64323 13.9944 6.56824 14.0207 6.4095C14.0432 6.282 14.0032 6.12451 14.0032 6.12451Z" fill="#BA5E0D"/>
<path d="M2.60811 12.179L3.90202 14.1042L4.46835 14.298C4.46835 14.298 4.5146 12.1977 4.53335 10.6413C4.55961 8.36725 4.54961 6.29324 4.58211 6.17572C4.63587 5.97695 7.15243 5.16059 7.15243 5.16059C7.15243 5.16059 9.99529 6.05196 10.0853 6.25073C10.1253 6.33824 10.094 7.81093 10.0853 9.52739C10.074 11.6952 10.0778 14.198 10.0778 14.198C10.0778 14.198 10.3716 14.1967 10.4066 14.088C10.4428 13.9792 10.5879 13.1403 10.5879 13.1403L11.6905 5.79067L12.2506 5.06808L11.473 3.5879L8.28257 2.0177L7.18619 2.26398L5.99979 2.08271L2.23682 4.7868L2.67562 5.67691L3.75201 6.22573L2.60811 12.179Z" fill="#AF0F1B"/>
<path d="M4.16923 6.01326C4.21048 6.05827 4.14298 14.1468 4.05923 14.1655C3.99299 14.1818 2.48682 13.5092 2.48682 13.4404C2.48682 13.3717 2.60806 5.64197 2.60806 5.64197C2.60806 5.64197 4.04673 5.87575 4.16923 6.01326Z" fill="#FF2A23"/>
<path d="M10.4114 6.17449C10.3427 6.32576 10.3827 14.1205 10.3827 14.1205C10.3827 14.1205 10.7264 13.9305 11.1689 13.7179C11.6088 13.5067 11.9251 13.3754 11.9526 13.2654C11.9801 13.1554 12.0288 5.4469 12.0288 5.4469L10.4114 6.17449Z" fill="#DC0D28"/>
<path d="M7.1547 1.78149C6.73847 1.78149 6.27849 1.90024 6.14475 2.24897C6.01101 2.5977 5.98101 3.11642 5.98101 3.5039C5.98101 3.87514 5.92101 4.82509 7.0647 4.81009C8.20839 4.79509 8.24214 4.37136 8.25964 3.43641C8.27464 2.65645 8.17089 2.27772 8.06715 2.11523C7.97465 1.96898 7.66717 1.78149 7.1547 1.78149Z" fill="#FF2A23"/>
<path d="M6.49375 3.71136C6.75374 3.72636 6.86498 3.15514 7.06497 2.84266C7.26496 2.53142 7.4737 2.32269 7.3987 2.16019C7.33746 2.0252 6.79374 1.98145 6.5 2.39018C6.29376 2.67892 6.25751 3.69761 6.49375 3.71136Z" fill="#FCC9D2"/>
<path d="M8.16748 2.05271C8.16748 2.05271 8.53621 2.42776 8.63246 3.16285C8.7287 3.89795 8.61746 4.46927 8.61746 4.46927C8.61746 4.46927 10.4499 4.41426 11.0823 4.53553C11.706 4.65679 11.9235 4.93183 11.9235 5.13185C11.9235 5.33188 11.5136 5.49315 11.0973 5.46314C10.6811 5.43314 10.3999 5.41064 10.3474 5.51565C10.2949 5.62066 10.3699 5.78318 10.9486 5.82694C11.5273 5.87194 12.196 5.78943 12.4035 5.06934C12.611 4.34925 12.6185 3.1016 12.5447 2.20273C12.471 1.30387 12.3085 0.790055 11.906 0.595031C11.4823 0.391255 10.4211 0.357501 9.41866 0.921322C8.41622 1.48514 8.16748 2.05271 8.16748 2.05271Z" fill="#FF2A23"/>
<path d="M10.244 1.19736C10.114 1.02987 9.6953 1.03487 9.47156 1.2936C9.23407 1.56859 9.18157 2.61479 9.48656 2.67478C9.83154 2.74228 9.76904 2.17731 10.0215 1.82858C10.269 1.48734 10.3703 1.3611 10.244 1.19736Z" fill="#FCC9D2"/>
<path d="M6.0479 2.08891C6.0479 2.08891 4.64422 0.452453 3.04055 0.477456C2.0756 0.492458 1.83062 1.04878 1.77812 1.27881C1.72562 1.50884 1.32564 3.79662 1.85937 5.03553C2.39309 6.27443 3.50053 5.95314 3.67427 5.91314C3.89676 5.86063 4.37048 5.69811 4.32549 5.52684C4.28049 5.35557 2.70682 5.9719 2.69182 5.26681C2.67682 4.56172 3.80551 4.48671 4.32549 4.47171C4.84546 4.45671 5.73666 4.57547 5.73666 4.57547C5.73666 4.57547 5.58042 3.72161 5.68417 3.11279C5.78791 2.50396 6.0479 2.08891 6.0479 2.08891Z" fill="#FF2A23"/>
<path d="M2.61085 1.07116C2.41086 1.27865 2.32836 2.47484 2.45461 3.06856C2.58085 3.66228 2.69209 3.91476 2.95208 3.86352C3.16957 3.81977 3.30081 2.65483 3.40456 2.24485C3.5158 1.80737 3.79079 1.3424 3.67954 1.13866C3.50955 0.826175 2.81959 0.854923 2.61085 1.07116Z" fill="#FCC9D2"/>
</g>
<defs>
<clipPath id="clip0_716_529">
<rect width="15" height="16" fill="white"/>
</clipPath>
</defs>
</svg>
