<svg width="60" height="57" viewBox="0 0 60 57" fill="none" xmlns="http://www.w3.org/2000/svg">
<path d="M29.814 53.7404C16.7366 53.7404 2.62793 45.5377 2.62793 27.5388C2.62793 9.5398 16.7366 1.33714 29.814 1.33714C37.0792 1.33714 43.782 3.72763 48.7505 8.08676C54.1408 12.8677 57 19.6173 57 27.5388C57 35.4602 54.1408 42.1629 48.7505 46.9439C43.782 51.303 37.0324 53.7404 29.814 53.7404Z" fill="url(#paint0_radial_129_503)"/>
<path d="M52.2618 11.9631C54.7601 15.9941 56.0632 20.7938 56.0632 26.1326C56.0632 34.054 53.204 40.7568 47.8136 45.5377C42.8451 49.8969 36.0955 52.3342 28.8771 52.3342C20.4119 52.3342 11.5343 48.8891 6.29395 41.5817C11.3374 49.8594 20.8244 53.7404 29.8146 53.7404C37.0329 53.7404 43.7826 51.303 48.7511 46.9439C54.1414 42.1629 57.0006 35.4602 57.0006 27.5388C57.0006 21.5672 55.3741 16.2613 52.2618 11.9631Z" fill="#EB8F00"/>
<path d="M30.19 37.1058C28.512 37.1058 26.848 36.8245 25.2684 36.2621C23.3232 35.5918 21.2092 36.6277 20.5389 38.5682C20.1593 39.665 20.314 40.8743 20.9561 41.8399C22.9716 44.9335 26.159 46.6209 30.19 46.6209C34.221 46.6209 37.4084 44.9335 39.4239 41.8399C40.5629 40.129 40.0942 37.8182 38.3833 36.6792C37.4177 36.0371 36.2084 35.8824 35.1116 36.2621C33.532 36.8245 31.868 37.1058 30.19 37.1058Z" fill="#422B0D"/>
<path opacity="0.8" d="M16.0328 39.8732C20.563 39.8732 24.2355 36.4106 24.2355 32.1392C24.2355 27.8679 20.563 24.4053 16.0328 24.4053C11.5025 24.4053 7.83008 27.8679 7.83008 32.1392C7.83008 36.4106 11.5025 39.8732 16.0328 39.8732Z" fill="url(#paint1_radial_129_503)"/>
<path opacity="0.8" d="M44.3448 39.8732C48.875 39.8732 52.5475 36.4106 52.5475 32.1392C52.5475 27.8679 48.875 24.4053 44.3448 24.4053C39.8146 24.4053 36.1421 27.8679 36.1421 32.1392C36.1421 36.4106 39.8146 39.8732 44.3448 39.8732Z" fill="url(#paint2_radial_129_503)"/>
<path d="M50.4331 14.1669C46.5849 13.0841 43.7585 16.2293 43.7585 16.2293C43.7585 16.2293 43.4304 12.6623 40.1399 11.5421C36.1933 10.1874 32.0263 12.3436 31.7779 17.9354C31.4966 24.3054 39.9243 32.6674 39.9243 32.6674C39.9243 32.6674 50.3863 29.8551 53.8127 23.8929C56.6016 19.0416 53.3439 14.9825 50.4331 14.1669Z" fill="#F44336"/>
<path d="M50.4326 14.1628C49.9592 14.0363 49.4718 13.98 48.9843 13.9894C50.3623 14.9128 51.4545 16.2018 52.1341 17.7111C52.795 19.3 52.9685 21.3531 51.7123 23.8045C48.989 29.1339 40.6035 32.4337 39.9941 32.6633C40.7582 32.4477 50.5358 29.6354 53.8309 23.9029C56.6011 19.0376 53.3434 14.9784 50.4326 14.1628Z" fill="#C62828"/>
<path d="M43.7531 16.8046C43.725 16.3172 43.65 15.8297 43.5375 15.3516C43.2657 13.9735 42.4126 12.7783 41.1939 12.0705C40.3596 11.5831 39.4362 11.2737 38.48 11.1565C38.48 11.1565 39.8862 11.5831 40.8892 13.5283C41.4001 14.5501 41.7048 15.6656 41.7798 16.8046C41.7751 17.2218 41.8501 17.6296 42.0001 18.0186C42.1688 18.4077 42.5813 18.6373 43.0032 18.5717C43.6453 18.4077 43.7859 17.6061 43.7531 16.8046Z" fill="#C62828"/>
<path d="M34.6418 14.5692C35.5183 13.4817 36.9573 12.4458 38.3354 13.402C39.0666 13.9129 39.0759 15.3613 38.1807 16.0128C36.6714 17.119 36.6011 17.8455 36.4323 18.4549C36.2261 19.1814 36.0949 20.0485 35.434 20.4141C34.7731 20.7797 34.1918 20.4141 33.845 19.3689C33.2544 17.7377 33.5544 15.9191 34.6418 14.5692Z" fill="#FF847A"/>
<path d="M19.0897 11.4475C15.2883 12.6802 14.679 16.8659 14.679 16.8659C14.679 16.8659 12.4291 14.0536 9.05426 14.9629C5.02791 16.0222 2.75459 20.1283 5.62788 24.9139C8.95583 30.398 20.599 32.6713 20.599 32.6713C20.599 32.6713 27.747 24.5343 27.297 17.6721C26.9267 12.085 21.9629 10.5147 19.0897 11.4475Z" fill="#F44336"/>
<path d="M19.0896 11.4475C18.6255 11.5975 18.1803 11.8131 17.7725 12.0849C19.4317 12.0896 21.0535 12.5584 22.4597 13.4396C23.894 14.377 25.1736 16.0082 25.4924 18.7502C26.1814 24.6983 21.0254 32.09 20.627 32.6291C21.1473 32.0291 27.7235 24.2671 27.2923 17.6674C26.9267 12.0849 21.9629 10.5147 19.0896 11.4475Z" fill="#C62828"/>
<path d="M15.002 17.358C14.7114 16.9595 14.3833 16.5939 14.0177 16.2658C13.0334 15.2628 11.6694 14.7284 10.2679 14.8034C9.30703 14.8597 8.3649 15.1081 7.50244 15.544C7.50244 15.544 8.90862 15.1175 10.821 16.1861C11.8194 16.7627 12.6865 17.5361 13.3803 18.4548C13.6052 18.8063 13.8959 19.1063 14.238 19.3453C14.5943 19.575 15.063 19.5328 15.377 19.2469C15.7942 18.7407 15.4708 18.0001 15.002 17.358Z" fill="#C62828"/>
<path d="M6.18961 20.5556C6.20836 20.1619 6.27867 19.7728 6.39585 19.3978C6.58803 18.6104 7.14581 17.9589 7.89109 17.6448C8.60824 17.4198 9.60193 17.5792 9.98629 18.2964C10.3285 18.9338 10.08 19.7025 9.89254 20.4056C9.7238 21.2118 9.63006 22.0368 9.61131 22.8617C9.61599 23.5367 9.07696 24.0851 8.402 24.0945C7.76453 24.0945 7.26768 23.5414 6.91145 23.0117C6.4146 22.2899 6.16149 21.4321 6.18961 20.5556Z" fill="#FF847A"/>
<defs>
<radialGradient id="paint0_radial_129_503" cx="0" cy="0" r="1" gradientUnits="userSpaceOnUse" gradientTransform="translate(29.814 27.5388) scale(26.6984 26.6983)">
<stop offset="0.5" stop-color="#FDE030"/>
<stop offset="0.92" stop-color="#F7C02B"/>
<stop offset="1" stop-color="#F4A223"/>
</radialGradient>
<radialGradient id="paint1_radial_129_503" cx="0" cy="0" r="1" gradientUnits="userSpaceOnUse" gradientTransform="translate(16.0328 28.5819) scale(8.93947 8.02724)">
<stop stop-color="#ED7770"/>
<stop offset="0.9" stop-color="#ED7770" stop-opacity="0"/>
</radialGradient>
<radialGradient id="paint2_radial_129_503" cx="0" cy="0" r="1" gradientUnits="userSpaceOnUse" gradientTransform="translate(57.7128 1182.8) scale(9.12139 9.12135)">
<stop stop-color="#ED7770"/>
<stop offset="0.9" stop-color="#ED7770" stop-opacity="0"/>
</radialGradient>
</defs>
</svg>
