<svg width="40" height="40" viewBox="0 0 40 40" fill="none" xmlns="http://www.w3.org/2000/svg">
<path d="M20.2203 35.7509C21.2424 35.7509 29.1393 29.0346 33.7473 23.5099C38.1804 18.1935 36.5805 11.9161 35.6056 10.1689C34.4529 8.10514 19.7897 14.8937 19.7897 14.8937C19.7897 14.8937 6.12936 7.21908 5.10719 8.88566C3.72115 11.1466 1.77959 17.0936 5.69882 22.6238C9.85972 28.4985 19.1231 35.7509 20.2203 35.7509Z" fill="#DB0A28"/>
<path d="M20.1507 33.9426C20.1507 33.9426 34.6666 23.1988 35.9138 16.638C37.0943 10.4244 34.6777 7.4107 31.7029 5.958C24.1616 2.27486 20.3563 9.50225 19.9979 9.50225C19.6396 9.50225 16.0954 2.26097 8.80409 5.39414C4.78764 7.11905 3.10439 11.8132 4.69597 17.1019C7.03196 24.8626 20.1507 33.9426 20.1507 33.9426Z" fill="#FF262E"/>
</svg>
