<svg width="51" height="22" viewBox="0 0 51 22" fill="none" xmlns="http://www.w3.org/2000/svg">
<path d="M46.4331 3.1669C42.5849 2.08415 39.7585 5.22928 39.7585 5.22928C39.7585 5.22928 39.4304 1.6623 36.1399 0.542051C32.1933 -0.812559 28.0263 1.34357 27.7779 6.93543C27.4966 13.3054 35.9243 21.6674 35.9243 21.6674C35.9243 21.6674 46.3863 18.8551 49.8127 12.8929C52.6016 8.04162 49.3439 3.98248 46.4331 3.1669Z" fill="#F44336"/>
<path d="M46.4326 3.16284C45.9592 3.03629 45.4718 2.98004 44.9843 2.98942C46.3623 3.9128 47.4545 5.20179 48.1341 6.71108C48.795 8.30005 48.9685 10.3531 47.7123 12.8045C44.989 18.1339 36.6035 21.4337 35.9941 21.6633C36.7582 21.4477 46.5358 18.6354 49.8309 12.9029C52.6011 8.03757 49.3434 3.97842 46.4326 3.16284Z" fill="#C62828"/>
<path d="M39.7531 5.80463C39.725 5.31716 39.65 4.82969 39.5375 4.35159C39.2657 2.97354 38.4126 1.7783 37.1939 1.07053C36.3596 0.583055 35.4362 0.273698 34.48 0.156517C34.48 0.156517 35.8862 0.583054 36.8892 2.52826C37.4001 3.55007 37.7048 4.66563 37.7798 5.80463C37.7751 6.22179 37.8501 6.62958 38.0001 7.01862C38.1688 7.40766 38.5813 7.63734 39.0032 7.57172C39.6453 7.40766 39.7859 6.60615 39.7531 5.80463Z" fill="#C62828"/>
<path d="M30.6418 3.56915C31.5183 2.48171 32.9573 1.44584 34.3354 2.40203C35.0666 2.91294 35.0759 4.36129 34.1807 5.01282C32.6714 6.11901 32.6011 6.84553 32.4323 7.45487C32.2261 8.18139 32.0949 9.04853 31.434 9.41413C30.7731 9.77973 30.1918 9.41413 29.845 8.36888C29.2544 6.73772 29.5544 4.91907 30.6418 3.56915Z" fill="#FF847A"/>
<path d="M15.0897 0.447506C11.2883 1.68025 10.679 5.86595 10.679 5.86595C10.679 5.86595 8.42908 3.05361 5.05426 3.96293C1.02791 5.02224 -1.24541 9.12826 1.62788 13.9139C4.95583 19.398 16.599 21.6713 16.599 21.6713C16.599 21.6713 23.747 13.5343 23.297 6.67215C22.9267 1.08497 17.963 -0.485253 15.0897 0.447506Z" fill="#F44336"/>
<path d="M15.0896 0.447479C14.6255 0.59747 14.1803 0.813083 13.7725 1.08494C15.4317 1.08963 17.0535 1.55835 18.4597 2.43955C19.894 3.377 21.1736 5.00816 21.4924 7.75019C22.1814 13.6983 17.0254 21.09 16.627 21.6291C17.1473 21.0291 23.7235 13.2671 23.2923 6.66744C22.9267 1.08494 17.9629 -0.48528 15.0896 0.447479Z" fill="#C62828"/>
<path d="M11.002 6.35795C10.7114 5.95954 10.3833 5.59393 10.0177 5.26583C9.0334 4.26276 7.66941 3.72842 6.26792 3.80341C5.30703 3.85966 4.3649 4.10808 3.50244 4.54399C3.50244 4.54399 4.90862 4.11746 6.82102 5.18614C7.8194 5.76267 8.68654 6.53607 9.38025 7.45476C9.60524 7.80631 9.89585 8.10629 10.238 8.34534C10.5943 8.57501 11.063 8.53283 11.377 8.24691C11.7942 7.74069 11.4708 7.0001 11.002 6.35795Z" fill="#C62828"/>
<path d="M2.18961 9.5556C2.20836 9.16187 2.27867 8.77283 2.39585 8.39785C2.58803 7.61039 3.14581 6.95887 3.89109 6.64483C4.60824 6.41984 5.60193 6.5792 5.98629 7.29635C6.32846 7.93381 6.08003 8.70252 5.89254 9.40561C5.7238 10.2118 5.63006 11.0368 5.61131 11.8617C5.61599 12.5367 5.07696 13.0851 4.402 13.0945C3.76453 13.0945 3.26768 12.5414 2.91145 12.0117C2.4146 11.2899 2.16149 10.4321 2.18961 9.5556Z" fill="#FF847A"/>
</svg>
