<svg width="40" height="40" viewBox="0 0 40 40" fill="none" xmlns="http://www.w3.org/2000/svg">
<path d="M20.0015 36.6704C21.8561 36.6704 23.3596 35.7837 23.3596 34.6899C23.3596 33.5962 21.8561 32.7095 20.0015 32.7095C18.1468 32.7095 16.6433 33.5962 16.6433 34.6899C16.6433 35.7837 18.1468 36.6704 20.0015 36.6704Z" fill="#424242"/>
<path d="M20.0014 3.33301C14.1451 3.33301 9.39453 7.68633 9.39453 13.0537C9.39453 14.4539 9.81681 15.9513 10.4363 17.2709C11.3059 19.1267 12.2532 20.4991 12.531 21.0047C13.3034 22.4104 13.1922 23.8911 13.4061 24.819C13.809 26.5526 15.0147 27.1804 19.9986 27.1804C24.9826 27.1804 26.0549 26.5832 26.5022 24.9857C26.8078 23.8995 26.5106 22.7132 27.2801 21.3103C27.5579 20.8046 28.6886 19.1294 29.5609 17.2709C30.1805 15.9513 30.6027 14.4539 30.6027 13.0537C30.6083 7.68633 25.8577 3.33301 20.0014 3.33301Z" fill="#FFD600"/>
<path d="M20.0015 27.3887C23.3677 27.3887 26.0967 26.834 26.0967 26.1498C26.0967 25.4657 23.3677 24.911 20.0015 24.911C16.6352 24.911 13.9062 25.4657 13.9062 26.1498C13.9062 26.834 16.6352 27.3887 20.0015 27.3887Z" fill="#B26500"/>
<path d="M20.0015 27.3887C23.3677 27.3887 26.0967 26.834 26.0967 26.1498C26.0967 25.4657 23.3677 24.911 20.0015 24.911C16.6352 24.911 13.9062 25.4657 13.9062 26.1498C13.9062 26.834 16.6352 27.3887 20.0015 27.3887Z" fill="#B26500"/>
<path d="M20.0012 26.7225C22.4542 26.7225 24.4427 26.4663 24.4427 26.1503C24.4427 25.8343 22.4542 25.5781 20.0012 25.5781C17.5483 25.5781 15.5598 25.8343 15.5598 26.1503C15.5598 26.4663 17.5483 26.7225 20.0012 26.7225Z" fill="#FFA000"/>
<path fill-rule="evenodd" clip-rule="evenodd" d="M16.6899 18.0851C16.7217 18.0102 16.7498 17.944 16.771 17.8906L17.2873 18.0958C17.2581 18.1693 17.2244 18.2485 17.1889 18.3322C17.1084 18.5215 17.0184 18.7334 16.9487 18.9525C16.8996 19.1064 16.867 19.2463 16.8576 19.3631C16.8479 19.4838 16.8656 19.5484 16.883 19.5782C17.0899 19.9337 17.4217 20.1904 17.7775 20.4656C17.8294 20.5057 17.8817 20.5462 17.9343 20.5874C18.3099 20.8823 18.754 21.2572 18.754 21.8375C18.754 22.5228 18.5097 23.9362 18.274 25.148C18.1548 25.7605 18.0357 26.3318 17.9464 26.7499C17.9017 26.959 17.8645 27.1299 17.8384 27.2486C17.8254 27.3079 17.8152 27.3542 17.8082 27.3857L17.7974 27.4339C17.7974 27.4339 17.7973 27.4341 17.5263 27.3733C17.2553 27.3124 17.2553 27.3124 17.2553 27.3124L17.2659 27.2652C17.2728 27.2341 17.2829 27.1882 17.2959 27.1293C17.3217 27.0116 17.3587 26.8418 17.4031 26.6339C17.492 26.218 17.6103 25.6501 17.7287 25.0419C17.9679 23.8121 18.1985 22.4576 18.1985 21.8375C18.1985 21.5622 17.9969 21.3427 17.5913 21.0244C17.5448 20.9879 17.496 20.9504 17.4455 20.9116C17.0964 20.6434 16.6691 20.315 16.403 19.8579M16.6899 18.0851C16.6065 18.2818 16.4974 18.5389 16.4194 18.7839L16.6899 18.0851ZM16.4194 18.7839C16.3642 18.957 16.3181 19.1421 16.3039 19.3185L16.4194 18.7839ZM16.3039 19.3185C16.29 19.4909 16.3039 19.6878 16.403 19.8579L16.3039 19.3185Z" fill="#B26500"/>
<path fill-rule="evenodd" clip-rule="evenodd" d="M22.5365 17.955C22.5365 17.955 22.5365 17.955 22.7882 17.8376C23.04 17.7201 23.04 17.7202 23.04 17.7202L23.0402 17.7207L23.0407 17.7218L23.0424 17.7253L23.0482 17.738C23.0531 17.7489 23.0601 17.7646 23.0688 17.7845C23.0863 17.8243 23.1107 17.8813 23.1389 17.9513C23.1953 18.0909 23.268 18.2845 23.3324 18.4989C23.3964 18.7121 23.4546 18.9533 23.4782 19.1864C23.5013 19.4133 23.4954 19.6658 23.4006 19.8803L23.4005 19.8807C23.3269 20.0465 23.1795 20.2068 23.0341 20.3421C22.8815 20.4841 22.7003 20.6263 22.5262 20.7541C22.3512 20.8825 22.1786 20.9997 22.0418 21.0913C22.0037 21.1169 21.9696 21.1396 21.9396 21.1597C21.8565 21.215 21.8044 21.2498 21.7831 21.2662C21.7827 21.2668 21.7694 21.2803 21.7507 21.323C21.7295 21.3711 21.7083 21.4405 21.6896 21.5342C21.6522 21.7217 21.6314 21.974 21.6259 22.2766C21.6149 22.8798 21.6649 23.6409 21.738 24.3937C21.811 25.1447 21.906 25.8793 21.9829 26.4268C22.0213 26.7004 22.0551 26.9269 22.0793 27.0848C22.0914 27.1637 22.1011 27.2255 22.1078 27.2675L22.1154 27.3153L22.118 27.3311C22.118 27.3311 22.118 27.3313 21.8439 27.376C21.5697 27.4207 21.5697 27.4207 21.5697 27.4206L21.5669 27.4035L21.5591 27.3545C21.5523 27.3117 21.5425 27.2489 21.5302 27.169C21.5057 27.0091 21.4715 26.7803 21.4327 26.5041C21.3552 25.952 21.2591 25.2089 21.1851 24.4474C21.1114 23.6878 21.0588 22.9018 21.0705 22.2665C21.0763 21.9498 21.0981 21.66 21.1448 21.4256C21.1682 21.3083 21.1993 21.1968 21.2422 21.0993C21.284 21.0042 21.3452 20.9036 21.4391 20.83L21.4395 20.8297C21.4778 20.7997 21.5593 20.7454 21.6533 20.6828C21.679 20.6656 21.7057 20.6479 21.7327 20.6298C21.8674 20.5395 22.0323 20.4275 22.1976 20.3062C22.3637 20.1843 22.5255 20.0566 22.6556 19.9355C22.7926 19.8079 22.8675 19.712 22.8926 19.6556C22.9297 19.5715 22.9449 19.4334 22.9256 19.2425C22.9068 19.0577 22.8589 18.8536 22.8003 18.6588C22.7422 18.4652 22.6758 18.2882 22.6238 18.1592C22.5978 18.0949 22.5756 18.043 22.5601 18.0076C22.5523 17.9899 22.5462 17.9763 22.5422 17.9674L22.5377 17.9575L22.5367 17.9553L22.5365 17.955Z" fill="#B26500"/>
<path fill-rule="evenodd" clip-rule="evenodd" d="M19.1003 12.1679C19.2664 11.8989 19.5259 11.7218 19.8742 11.7259C20.1924 11.7296 20.4511 11.86 20.6387 12.0838C20.8178 12.2976 20.9208 12.5821 20.9763 12.8874C21.0873 13.4979 21.0262 14.2914 20.8716 15.0834C20.7273 15.823 20.497 16.5847 20.2265 17.2334C20.3132 17.4273 20.403 17.6047 20.4941 17.7601C20.6571 18.0382 20.8099 18.2206 20.9365 18.3108C20.9975 18.3542 21.0394 18.3669 21.0634 18.3695C21.0822 18.3715 21.1022 18.3692 21.1318 18.3502C21.2123 18.2983 21.3367 18.1707 21.4932 17.9523C21.6446 17.741 21.81 17.4676 21.9776 17.1515C22.0516 17.012 22.1255 16.8649 22.1985 16.7122C22.0739 16.2045 21.9381 15.587 21.8405 14.9676C21.7249 14.2339 21.6585 13.4722 21.7405 12.8837C21.7814 12.5906 21.8629 12.3106 22.0189 12.0979C22.1854 11.871 22.4282 11.7342 22.7374 11.7342C23.0686 11.7342 23.3378 11.8598 23.5208 12.0987C23.6929 12.3234 23.7667 12.6198 23.7875 12.9284C23.8291 13.5461 23.6659 14.3463 23.4173 15.1365C23.2429 15.6909 23.0217 16.2548 22.7852 16.7693C22.7927 16.7992 22.8002 16.8286 22.8077 16.8575C22.877 17.1278 22.9393 17.353 22.9841 17.5103C23.0065 17.5889 23.0245 17.6506 23.0369 17.6924C23.04 17.7029 23.0428 17.7121 23.0452 17.7201C23.0475 17.7279 23.0495 17.7345 23.0511 17.7398L23.0547 17.7517L23.0556 17.7546L23.0558 17.7552C23.0558 17.7552 23.0558 17.7554 22.7902 17.8367C22.5246 17.918 22.5246 17.9179 22.5246 17.9178L22.5232 17.9132L22.5192 17.9001C22.5158 17.8887 22.5107 17.8719 22.5043 17.8502C22.4914 17.8066 22.4728 17.7431 22.4498 17.6625C22.4377 17.6199 22.4243 17.5724 22.4099 17.5206C22.2536 17.8075 22.0959 18.0649 21.9448 18.2758C21.7799 18.506 21.6052 18.7061 21.4323 18.8174C21.3014 18.9015 21.1552 18.938 21.0043 18.9218C20.8587 18.9063 20.7276 18.844 20.6143 18.7633C20.3924 18.6053 20.1919 18.343 20.0149 18.0411C19.9842 17.9888 19.9538 17.9345 19.9238 17.8785C19.8455 18.0255 19.765 18.1622 19.683 18.2858C19.5174 18.5353 19.3327 18.751 19.1316 18.8828C18.8538 19.0649 18.5558 19.0004 18.3164 18.8487C18.0856 18.7024 17.8677 18.4548 17.67 18.1651C17.5897 18.0475 17.5103 17.9192 17.4324 17.7822C17.3823 17.9002 17.3305 18.0123 17.2773 18.1176L16.7815 17.8668C16.8926 17.6473 16.9977 17.3917 17.0944 17.1124C16.9175 16.7197 16.7566 16.2916 16.6224 15.857C16.3526 14.9838 16.1812 14.0548 16.2152 13.3069C16.2322 12.9339 16.3012 12.5827 16.4542 12.3033C16.6127 12.0137 16.8628 11.8019 17.2133 11.7386M17.6912 17.0781C17.9743 16.1924 18.1723 15.1441 18.2366 14.231C18.2827 13.5773 18.2627 12.9631 18.1407 12.5152C18.0802 12.2928 17.9867 12.0815 17.8365 11.9318C17.6729 11.7686 17.4566 11.6947 17.2133 11.7386M17.6912 17.0781C17.8323 17.3715 17.9805 17.6346 18.1288 17.8519C18.3101 18.1176 18.477 18.2928 18.6138 18.3795C18.742 18.4608 18.7943 18.4396 18.827 18.4182C18.9363 18.3466 19.0713 18.2027 19.2201 17.9785C19.355 17.7754 19.4911 17.5218 19.6217 17.2321C19.4247 16.7526 19.2513 16.2091 19.1171 15.6608C18.8994 14.771 18.7773 13.8377 18.8373 13.1154C18.8671 12.757 18.9438 12.4213 19.1003 12.1679M19.9265 16.4596C20.09 15.9869 20.2289 15.4768 20.3264 14.977C20.4757 14.2119 20.5226 13.4976 20.4298 12.9868C20.3833 12.7316 20.3063 12.5521 20.2129 12.4407C20.128 12.3393 20.0217 12.2832 19.8676 12.2814C19.7437 12.2799 19.6531 12.3301 19.573 12.4598C19.4832 12.6051 19.4176 12.8396 19.3909 13.1614C19.3379 13.7998 19.446 14.6676 19.6567 15.5288C19.7349 15.8483 19.8262 16.1626 19.9265 16.4596ZM17.346 16.2609C17.2773 16.0759 17.2127 15.8857 17.1531 15.693C16.893 14.851 16.7402 13.9908 16.7702 13.3322C16.7852 13.0019 16.8454 12.7456 16.9414 12.5701C17.032 12.4047 17.1508 12.3144 17.3121 12.2853C17.3722 12.2745 17.4062 12.2872 17.4443 12.3252C17.4958 12.3766 17.5556 12.4808 17.6047 12.6612C17.7021 13.0189 17.7271 13.5593 17.6825 14.192C17.6358 14.8545 17.5156 15.5855 17.346 16.2609ZM22.5717 15.8558C22.6874 15.564 22.7944 15.2653 22.8874 14.9698C23.13 14.1986 23.2677 13.4782 23.2332 12.9657C23.2159 12.7092 23.1575 12.538 23.0797 12.4365C23.0128 12.3491 22.9146 12.2897 22.7374 12.2897C22.614 12.2897 22.534 12.335 22.4668 12.4266C22.3892 12.5324 22.326 12.7075 22.2907 12.9605C22.2205 13.4641 22.2754 14.1586 22.3893 14.8811C22.4413 15.2113 22.5048 15.5421 22.5717 15.8558Z" fill="white"/>
<path d="M26.0831 26.4087C26.0831 26.4087 24.4829 27.1809 20.0018 27.1809C15.5207 27.1809 13.9205 26.4087 13.9205 26.4087C13.9205 26.4087 13.8204 27.8364 14.151 28.4836C14.5483 29.2613 14.8539 29.5308 14.8539 29.5308L15.0206 30.3224L14.9539 30.5307C14.8678 30.8029 14.9289 31.1029 15.1206 31.3168L15.2651 31.4779L15.4262 32.2389L15.3706 32.3917C15.2651 32.6834 15.3373 33.0083 15.554 33.2306L15.6596 33.3389L15.7901 33.9611C15.7901 33.9611 16.4513 35.3721 20.0018 35.3721C23.5522 35.3721 24.2134 33.9611 24.2134 33.9611L24.2245 33.9083L24.2968 33.8361C24.4412 33.6944 24.4885 33.4833 24.419 33.2944L24.3773 33.1861L24.5496 32.3639L24.8524 32.0445C25.0024 31.8862 25.0357 31.6529 24.9385 31.4584L24.7996 31.1834L24.9746 30.3585L25.0857 30.2724C25.2497 30.0918 25.2524 29.8196 25.1802 29.6335C25.1246 29.4863 25.1691 29.3197 25.283 29.2113C25.458 29.0447 25.683 28.7919 25.8497 28.478C26.1914 27.842 26.0831 26.4087 26.0831 26.4087Z" fill="#82AEC0"/>
<path d="M14.8535 29.5308L15.0035 30.328C16.6201 30.3196 18.7783 30.4002 22.9198 29.7419C23.6669 29.5725 24.5641 29.2364 23.5725 29.3752C23.5725 29.3725 19.7699 29.7363 14.8535 29.5308Z" fill="#2F7889"/>
<path d="M15.4091 32.2447C17.1979 32.2141 20.8533 32.0363 24.7809 31.1836L24.9559 30.3586C20.8477 31.2919 16.9841 31.4586 15.248 31.4808L15.4091 32.2447Z" fill="#2F7889"/>
<path d="M24.5317 32.3622C20.8958 33.151 17.4932 33.3538 15.6516 33.3982L15.771 33.9649C15.771 33.9649 15.8294 35.7231 19.9819 35.7231C24.1345 35.7231 24.1928 33.9649 24.1928 33.9649C24.1928 33.9649 22.4207 34.4704 20.2403 34.2232C20.018 34.1982 20.0153 33.901 20.2375 33.8732C21.5402 33.701 23.0957 33.4455 24.3595 33.1844L24.5317 32.3622Z" fill="#2F7889"/>
<path fill-rule="evenodd" clip-rule="evenodd" d="M26.5748 26.1924C26.6942 26.4748 26.5619 26.8005 26.2795 26.9198L26.0634 26.4084C26.2795 26.9198 26.2792 26.9199 26.279 26.92L26.2785 26.9202L26.2775 26.9206L26.2748 26.9217L26.2674 26.9248C26.2616 26.9271 26.254 26.9302 26.2445 26.9339C26.2256 26.9413 26.1993 26.9513 26.1657 26.9635C26.0983 26.9879 26.0012 27.0211 25.8731 27.0601C25.6169 27.1381 25.2371 27.2392 24.7245 27.3393C23.6993 27.5396 22.1439 27.7357 19.9848 27.7357C17.8258 27.7357 16.2785 27.5396 15.261 27.3392C14.7523 27.239 14.3763 27.1377 14.1228 27.0595C13.996 27.0204 13.9 26.9871 13.8333 26.9626C13.7999 26.9503 13.7739 26.9402 13.7551 26.9327C13.7457 26.929 13.7381 26.9259 13.7323 26.9234L13.7249 26.9204L13.7222 26.9192L13.7211 26.9187L13.7206 26.9185C13.7204 26.9184 13.7202 26.9183 13.9396 26.4084L13.7202 26.9183C13.4385 26.7971 13.3084 26.4706 13.4296 26.189C13.5506 25.908 13.8759 25.7779 14.1571 25.8977C14.157 25.8976 14.1569 25.8976 14.1569 25.8976L14.157 25.8976L14.1575 25.8978L14.1577 25.8979L14.1583 25.8982M14.1571 25.8977C14.1572 25.8977 14.1574 25.8978 14.1575 25.8978C14.1588 25.8983 14.1617 25.8996 14.1665 25.9015C14.1761 25.9053 14.1928 25.9118 14.2168 25.9206C14.2649 25.9383 14.3422 25.9653 14.4502 25.9986C14.666 26.0652 15.0043 26.157 15.4756 26.2499C16.4181 26.4355 17.8933 26.6255 19.9848 26.6255C22.0763 26.6255 23.5602 26.4355 24.5116 26.2497C24.9874 26.1568 25.3302 26.0648 25.5496 25.998C25.6593 25.9646 25.7382 25.9375 25.7874 25.9197C25.812 25.9108 25.8292 25.9042 25.8391 25.9003C25.8441 25.8983 25.8473 25.8971 25.8486 25.8965L25.848 25.8967L25.8477 25.8969C25.8482 25.8967 25.8487 25.8965 25.8492 25.8963C26.1312 25.7783 26.4558 25.9106 26.5748 26.1924" fill="#82AEC0"/>
<path d="M16.0782 5.08931C17.1643 4.82266 18.3003 4.95598 19.0781 5.90038C19.2975 6.16703 19.467 6.48368 19.5058 6.82811C19.5836 7.49196 19.1725 8.11971 18.6837 8.58079C17.2893 9.89739 15.3088 10.5362 14.4089 12.3528C14.1978 12.7778 14.0311 13.2361 13.7089 13.5833C13.3867 13.9305 12.8506 14.1416 12.4312 13.9194C12.209 13.8027 12.0562 13.5833 11.9312 13.3639C11.1424 11.9584 11.2007 10.1668 11.8951 8.71134C12.659 7.11698 14.3339 5.51706 16.0782 5.08931Z" fill="#FFFF8D"/>
<path d="M15.1262 27.7616C14.8818 27.6505 14.979 27.2839 15.2456 27.3033C16.14 27.3727 17.6622 27.4588 19.676 27.4588C21.7981 27.4588 23.6646 27.3005 24.7535 27.1839C25.0229 27.1561 25.1257 27.5255 24.8785 27.6394C24.0396 28.0338 22.5036 28.4838 19.8704 28.4838C17.3011 28.4838 15.8845 28.1033 15.1262 27.7616Z" fill="#FFD600"/>
<path d="M16.6511 30.5671C16.465 30.6337 16.2734 30.7254 16.1789 30.8976C16.1456 30.9615 16.1261 31.0337 16.14 31.1059C16.1623 31.2115 16.2595 31.2865 16.3567 31.3337C16.5511 31.4281 16.7706 31.4531 16.9844 31.4559C17.4261 31.4615 17.8649 31.3781 18.301 31.2948C18.4316 31.2698 18.5649 31.2448 18.6816 31.1809C18.7982 31.117 18.8982 31.0087 18.9177 30.8782C18.9454 30.7032 18.8204 30.5337 18.6677 30.4504C18.1399 30.1588 17.1844 30.3754 16.6511 30.5671Z" fill="#94D1E0"/>
<path d="M17.0652 32.3979C16.8791 32.4646 16.6874 32.5563 16.593 32.7285C16.5596 32.7924 16.5402 32.8646 16.5541 32.9368C16.5763 33.0423 16.6735 33.1173 16.7707 33.1646C16.9652 33.259 17.1846 33.284 17.3985 33.2868C17.8401 33.2923 18.279 33.209 18.7151 33.1257C18.8456 33.1007 18.979 33.0757 19.0956 33.0118C19.2123 32.9479 19.3123 32.8396 19.3317 32.709C19.3595 32.534 19.2345 32.3646 19.0817 32.2813C18.554 31.9924 17.5957 32.2091 17.0652 32.3979Z" fill="#94D1E0"/>
<path d="M16.1152 25.6135C16.3679 25.6385 16.6346 25.6163 16.8485 25.4802C17.0623 25.3441 17.1985 25.0663 17.1123 24.8274C17.0679 24.7024 16.9707 24.6024 16.8762 24.508C16.6679 24.3025 16.4596 24.0969 16.2541 23.8914C16.0235 23.6608 15.793 23.4331 15.543 23.2247C15.1569 22.9025 14.6375 22.5998 14.1292 22.8359C13.6959 23.0359 13.5931 23.4303 13.7847 23.8441C14.1931 24.7135 15.143 25.5135 16.1152 25.6135Z" fill="#FFFF8D"/>
</svg>
