<svg width="40" height="40" viewBox="0 0 40 40" fill="none" xmlns="http://www.w3.org/2000/svg">
<path d="M13.6139 34.08L10.7891 25.4082L14.9611 25.6554L15.1666 28.0942C15.4222 28.5747 16.0249 28.7941 16.2804 29.2747C16.411 29.5219 16.4332 29.8135 16.3971 30.0913C16.3221 30.6663 16.0193 31.2885 16.3138 31.7912C16.661 32.3828 17.5276 32.5523 17.4998 33.3661C17.472 34.1105 13.975 35.1216 13.6139 34.08Z" fill="#C62828"/>
<path d="M13.1906 35.9495L12.9267 36.0412C11.8851 36.4023 10.749 35.8523 10.388 34.8107L7.11035 25.3584H11.6268C11.7879 25.8195 11.8434 25.9889 12.0073 26.45C12.1573 26.8694 12.3629 27.0778 12.2295 27.5222C12.0962 27.961 11.9851 28.461 12.2129 28.8888C12.4684 29.3693 13.0711 29.5887 13.3267 30.0693C13.4572 30.3165 13.4795 30.6081 13.4434 30.8859C13.3684 31.4609 13.0656 32.083 13.36 32.5858C13.7072 33.1774 14.5738 33.3469 14.5461 34.1607C14.5211 34.9051 13.8905 35.7079 13.1906 35.9495Z" fill="#F44336"/>
<path d="M14.5471 34.1593C14.1749 35.3426 13.2472 35.7536 12.2778 35.8175C11.3389 35.8814 10.689 35.3564 10.689 35.3564C12.0333 37.3786 15.4832 36.1203 16.1831 35.737C17.2525 35.1509 17.4303 34.5565 17.4997 33.4371C17.5053 33.3677 17.3886 33.1316 17.1692 33.3093C16.8359 33.576 16.4581 33.6732 16.0359 33.7593C15.5165 33.8648 15.2387 33.8343 15.0276 33.8482C14.7554 33.8648 14.6193 33.926 14.5471 34.1593Z" fill="#A12524"/>
<path d="M13.2727 31.7202C13.1672 32.1535 13.4255 32.2118 13.6866 32.2174C14.3227 32.234 15.1615 31.9785 15.5754 31.7924C15.7337 31.7229 15.8809 31.6313 16.0143 31.5285C16.1143 31.4507 16.1809 31.3368 16.1893 31.2119C16.2087 30.848 16.3476 30.4619 16.3948 30.0925C16.4142 29.9397 16.4142 29.7814 16.3892 29.6314C16.3698 29.5119 16.2309 29.4508 16.1254 29.5092C15.8587 29.6564 15.3837 29.9008 15.0671 29.9647C14.4393 30.0925 14.0533 30.0814 13.781 30.0869C13.5783 30.0897 13.4172 30.2702 13.445 30.4702C13.4644 30.6091 13.4616 30.7508 13.445 30.8869C13.4088 31.1591 13.3394 31.4452 13.2727 31.7202Z" fill="#A12524"/>
<path d="M7.11035 25.3584L7.97975 27.8805C7.97975 27.8805 8.51028 26.7 10.6213 26.9167C12.0518 27.0639 12.4795 27.5638 12.4795 27.5638L12.5712 25.4306L7.11035 25.3584Z" fill="#C62828"/>
<path d="M30.8799 32.9589C30.8799 32.9589 21.4871 26.0052 13.6778 25.7969C10.319 25.708 7.8826 25.6996 7.29642 25.6996C5.4573 25.7024 3.33203 23.0882 3.33203 18.4876C3.33203 13.887 5.724 10.7839 7.56312 10.7839C7.83537 10.7839 10.7441 10.9561 14.2612 10.8561C22.5344 10.6227 30.8799 4.01636 30.8799 4.01636V32.9589Z" fill="#E0E0E0"/>
<path d="M24.4861 22.6302C24.1722 23.1913 24.1666 24.469 24.2499 25.6523C24.3111 26.4995 23.4637 27.1272 22.672 26.8161C17.2713 24.7107 12.8374 24.8996 12.8374 24.8996L13.0513 25.7801C13.2569 25.7856 13.4653 25.7912 13.6764 25.7968C18.3937 25.9217 23.6888 28.5077 27.142 30.5382C27.142 30.5382 26.0752 29.0049 25.5307 26.9106C24.9667 24.7274 24.4861 22.6302 24.4861 22.6302Z" fill="#BDBDBD"/>
<path d="M12.8416 26.5028L12.6333 26.8639L13.5249 28.6055C13.6332 28.8166 13.8666 28.9332 14.0999 28.8888L15.6054 28.586C15.6054 28.586 16.0248 27.9888 16.1053 27.8527C16.1859 27.7166 16.1553 27.6361 16.1553 27.6361L14.4443 27.9638C14.4415 27.9638 12.8972 26.5195 12.8416 26.5028Z" fill="#353738"/>
<path d="M13.9812 27.7694L12.8257 26.5111L14.9061 26.5028L16.0838 27.5222C16.2255 27.6722 16.1338 27.8583 15.9311 27.8916L14.7617 28.0749C14.4673 28.1194 14.1701 28.0055 13.9812 27.7694Z" fill="#616161"/>
<path d="M11.7399 18.4879C11.7399 15.8626 12.5982 12.9178 13.6732 10.8703C10.4261 10.937 7.82068 10.7842 7.56236 10.7842C5.72357 10.7842 3.33203 13.8873 3.33203 18.4879C3.33203 23.0885 5.45692 25.6999 7.29849 25.6999C7.88457 25.6999 10.3206 25.7083 13.6787 25.7972C13.6982 25.7972 13.7204 25.8 13.7398 25.8C12.4954 23.5663 11.7399 21.1049 11.7399 18.4879Z" fill="#F44336"/>
<path d="M30.8809 32.9589C34.0784 32.9589 36.6705 26.4799 36.6705 18.4876C36.6705 10.4954 34.0784 4.01636 30.8809 4.01636C27.6834 4.01636 25.0913 10.4954 25.0913 18.4876C25.0913 26.4799 27.6834 32.9589 30.8809 32.9589Z" fill="#2F7889"/>
<path d="M25.3461 14.254C25.1822 15.5931 25.0933 17.0155 25.0933 18.4907C25.0933 26.4833 27.6853 32.9619 30.8829 32.9619C34.0805 32.9619 36.6725 26.4833 36.6725 18.4907C36.6725 17.0155 36.5836 15.5959 36.4197 14.254H25.3461Z" fill="url(#paint0_linear_15_708)"/>
<path d="M30.8809 33.7925C27.1054 33.7925 24.2578 27.2139 24.2578 18.4878C24.2578 9.76171 27.1054 3.18311 30.8809 3.18311C34.6563 3.18311 36.6705 9.76449 36.6705 18.4878C36.6705 27.2139 34.6563 33.7925 30.8809 33.7925ZM30.8809 4.84998C28.5361 4.84998 25.9247 10.4507 25.9247 18.4878C25.9247 26.5249 28.5361 32.1256 30.8809 32.1256C33.2256 32.1256 35.837 26.5249 35.837 18.4878C35.837 10.4507 33.2256 4.84998 30.8809 4.84998Z" fill="#E0E0E0"/>
<path d="M27.102 8.67848C26.852 9.35622 25.9493 10.8589 25.5326 15.8031C25.5187 15.9698 25.4271 16.7031 25.0188 16.7031C24.7466 16.7031 24.666 16.292 24.666 15.7253C24.666 13.5171 25.0327 11.0811 25.8854 8.6757C26.3687 7.31744 27.4492 7.74519 27.102 8.67848Z" fill="white"/>
<path d="M26.0854 15.1376L31.3351 15.7487V21.2761L26.1243 22.215C25.7799 17.8458 26.0854 15.1376 26.0854 15.1376Z" fill="url(#paint1_radial_15_708)"/>
<path d="M31.3359 21.279C32.06 21.279 32.647 20.0416 32.647 18.5152C32.647 16.9888 32.06 15.7515 31.3359 15.7515C30.6119 15.7515 30.0249 16.9888 30.0249 18.5152C30.0249 20.0416 30.6119 21.279 31.3359 21.279Z" fill="#E0E0E0"/>
<path d="M18.1979 12.6481C19.9593 12.4148 21.6984 11.8787 23.1874 10.9093C22.3234 13.2286 21.9123 16.0229 22.2318 18.4811C21.4094 18.0756 20.5788 17.6701 19.7009 17.409C18.9675 17.1923 18.209 17.0784 17.4506 16.9895C15.542 16.759 13.7752 16.7229 11.8555 16.759C11.911 16.759 12.0638 15.4618 12.2972 14.4952C12.5306 13.5286 12.7695 12.9675 12.7695 12.9675C12.7695 12.9675 16.5283 12.8703 18.1979 12.6481Z" fill="white"/>
<path d="M12.0202 12.8483C9.32586 12.9288 6.31769 12.9649 6.31769 12.9649C6.31769 12.9649 4.95943 14.1482 4.71777 16.7564C4.71777 16.7564 7.92594 16.7564 10.8397 16.8092C11.0452 14.9315 11.6507 13.5455 12.0202 12.8483Z" fill="#FF7555"/>
<defs>
<linearGradient id="paint0_linear_15_708" x1="30.8812" y1="31.0664" x2="30.8812" y2="14.7851" gradientUnits="userSpaceOnUse">
<stop stop-color="#353738"/>
<stop offset="1" stop-color="#353738" stop-opacity="0"/>
</linearGradient>
<radialGradient id="paint1_radial_15_708" cx="0" cy="0" r="1" gradientUnits="userSpaceOnUse" gradientTransform="translate(30.337 18.9589) scale(5.81014 9.88595)">
<stop offset="0.4156" stop-color="#82AEC0"/>
<stop offset="1" stop-color="#7FA9BB" stop-opacity="0"/>
</radialGradient>
</defs>
</svg>
